{
  "title" : "",
  "description" : "",
  "author" : "",
  "width" : 778.0,
  "height" : 540.0,
  "version" : "0.5",
  "editRate" : 30,
  "authoringClientName" :  {
    "name" : "Camtasia Studio",
    "platform" : "Windows",
    "version" : "9.0"
  },
  "sourceBin" : [
    {
      "id" : 1,
      "src" : "C:\\Users\\Adam\\Documents\\My HelpAndManual Projects\\Videos1\\MD14\\EditPart.camrec",
      "rect" : [0, 0, 778, 539],
      "lastMod" : "20200118T150300",
      "sourceTracks" : [
        {
          "range" : [0, 562000000],
          "type" : 0,
          "editRate" : 10000000,
          "trackRect" : [0, 0, 778, 539],
          "sampleRate" : "5000000/333333",
          "bitDepth" : 24,
          "numChannels" : 0,
          "metaData" : "EditPart.camrec!Events.dat;EditPart.camrec!manifest.camxml;"
        },
        {
          "range" : [0, 562086168],
          "type" : 2,
          "editRate" : 10000000,
          "trackRect" : [0, 0, 0, 0],
          "sampleRate" : 22050,
          "bitDepth" : 16,
          "numChannels" : 1,
          "metaData" : ""
        }
      ]
    }
  ],
  "timeline" : {
    "id" : 2,
    "sceneTrack" : {
      "scenes" : [
        {
          "duration" : 124.633333333333,
          "title" : "",
          "type" : "",
          "csml" : {
            "tracks" : [
              {
                "trackIndex" : 0,
                "medias" : [
                  {
                    "id" : 3,
                    "_type" : "Callout",
                    "def" : {
                      "kind" : "remix",
                      "shape" : "text-rectangle",
                      "style" : "basic",
                      "fill-color-blue" : 1.0,
                      "fill-color-green" : 1.0,
                      "fill-color-opacity" : 1.0,
                      "fill-color-red" : 1.0,
                      "height" : 230.000000000119,
                      "stroke-color-blue" : 0.56078431372549,
                      "stroke-color-green" : 0.686274509803922,
                      "stroke-color-opacity" : 1.0,
                      "stroke-color-red" : 0.0196078431372549,
                      "stroke-width" : 2.0,
                      "tail-x" : 17.9999999997872,
                      "tail-y" : -167.999999999892,
                      "width" : 728.741935483491,
                      "word-wrap" : 1.0,
                      "fill-style" : "solid",
                      "horizontal-alignment" : "left",
                      "stroke-style" : "solid",
                      "text" : "EDIT PART...\rMETHOD 1: Edit Part-Editor icon\rMETHOD 2: Double-Click Part-Outline\rMETHOD 3: Selection-Window",
                      "vertical-alignment" : "center",
                      "font" : {
                        "color-blue" : 0.266666666666667,
                        "color-green" : 0.231372549019608,
                        "color-opacity" : 1.0,
                        "color-red" : 0.184313725490196,
                        "size" : 64.0,
                        "tracking" : 0.0,
                        "name" : "Montserrat",
                        "weight" : "Regular"
                      },
                      "textAttributes" : {
                        "type" : "textAttributeList",
                        "keyframes" : [
                          {
                            "time" : 0,
                            "value" : [{"name":"fontSize","rangeEnd":107,"rangeStart":12,"value":36,"valueType":"double"},{"name":"fontWeight","rangeEnd":107,"rangeStart":0,"value":400,"valueType":"int"},{"name":"fontName","rangeEnd":107,"rangeStart":0,"value":"Montserrat","valueType":"string"},{"name":"underline","rangeEnd":107,"rangeStart":0,"value":0,"valueType":"int"},{"name":"fontSize","rangeEnd":12,"rangeStart":0,"value":60,"valueType":"double"},{"name":"strikethrough","rangeEnd":107,"rangeStart":0,"value":0,"valueType":"int"},{"name":"fontItalic","rangeEnd":107,"rangeStart":0,"value":0,"valueType":"int"},{"name":"fgColor","rangeEnd":107,"rangeStart":0,"value":"(47,59,68,255)","valueType":"color"}],
                            "duration" : 0
                          }
                        ]
                      }
                    },
                    "attributes" : {
                      "autoRotateText" : true
                    },
                    "parameters" : {
                      "translation0" : 4.86917173248003e-11,
                      "translation1" : -4.05435685024713e-11
                    },
                    "effects" : [
                        {
                          "effectName" : "DropShadow",
                          "category" : "categoryVisualEffects",
                          "parameters" : {
                            "angle" : 5.49778714378214,
                            "blur" : 10.0,
                            "color-alpha" : 1.0,
                            "color-blue" : 0.1216,
                            "color-green" : 0.1216,
                            "color-red" : 0.1216,
                            "enabled" : 1,
                            "offset" : 10.0,
                            "opacity" : 0.4
                          }
                        }
                    ],
                    "start" : 0,
                    "duration" : 90,
                    "mediaStart" : 0,
                    "mediaDuration" : 90,
                    "scalar" : 1,
                    "metadata" : {
                      "WinSubProjectDisplayName" : "",
                      "clipSpeedAttribute" : false,
                      "default-HAlign" : "center",
                      "default-VAlign" : "center",
                      "default-text-attributes" : null,
                      "default-translation0" : -8.499999999925,
                      "default-translation1" : 83.9999999999238
                    },
                    "animationTracks" : {

                    }
                  },
                  {
                    "id" : 4,
                    "_type" : "StitchedMedia",
                    "minMediaStart" : 0,
                    "attributes" : {
                      "ident" : "EditPart",
                      "gain" : 1.0,
                      "mixToMono" : false
                    },
                    "parameters" : {
                      "translation1" : -0.5,
                      "volume" : 1.0,
                      "cursorOpacity" : 1.0,
                      "cursorScale" : 1.0
                    },
                    "medias" : [
                        {
                          "id" : 5,
                          "_type" : "UnifiedMedia",
                          "video" : 
                              {
                                "id" : 6,
                                "_type" : "ScreenVMFile",
                                "src" : 1,
                                "trackNumber" : 0,
                                "attributes" : {
                                  "ident" : "EditPart"
                                },
                                "parameters" : {
                                  "cursorScale" : {
                                    "type" : "double",
                                    "defaultValue" : 0.0,
                                    "interp" : "linr"
                                  },
                                  "cursorOpacity" : {
                                    "type" : "double",
                                    "defaultValue" : 0.0,
                                    "interp" : "linr"
                                  }
                                },
                                "effects" : [

                                ],
                                "start" : 0,
                                "duration" : 352,
                                "mediaStart" : 0,
                                "mediaDuration" : 352,
                                "scalar" : 1,
                                "animationTracks" : {

                                }
                              },
                          "audio" : 
                              {
                                "id" : 7,
                                "_type" : "AMFile",
                                "src" : 1,
                                "trackNumber" : 1,
                                "attributes" : {
                                  "ident" : "",
                                  "sampleRate" : 22050,
                                  "bitDepth" : 16,
                                  "gain" : 1.0,
                                  "mixToMono" : false
                                },
                                  "channelNumber" : "0",
                                "effects" : [

                                ],
                                "start" : 0,
                                "duration" : 352,
                                "mediaStart" : 0,
                                "mediaDuration" : 352,
                                "scalar" : 1,
                                "animationTracks" : {

                                }
                              }
,
                          "start" : 0,
                          "duration" : 352,
                          "mediaStart" : 0,
                          "mediaDuration" : 1686,
                          "scalar" : 1,
                          "metadata" : {
                            "AutoAppliedSmartFocus" : "False",
                            "WinSubProjectDisplayName" : "",
                            "clipSpeedAttribute" : false
                          }
                        },
                        {
                          "id" : 8,
                          "_type" : "ScreenIMFile",
                          "src" : 1,
                          "trackNumber" : 0,
                          "trimStartSum" : 0,
                          "attributes" : {
                            "ident" : "EditPart"
                          },
                          "parameters" : {
                            "cursorOpacity" : {
                              "type" : "double",
                              "defaultValue" : 0.0,
                              "interp" : "linr"
                            },
                            "cursorScale" : {
                              "type" : "double",
                              "defaultValue" : 0.0,
                              "interp" : "linr"
                            }
                          },
                          "effects" : [

                          ],
                          "start" : 352,
                          "duration" : 120,
                          "mediaStart" : 351,
                          "mediaDuration" : 1,
                          "scalar" : 1,
                          "metadata" : {
                            "AutoAppliedSmartFocus" : "False",
                            "WinSubProjectDisplayName" : ""
                          },
                          "animationTracks" : {

                          }
                        },
                        {
                          "id" : 9,
                          "_type" : "UnifiedMedia",
                          "video" : 
                              {
                                "id" : 10,
                                "_type" : "ScreenVMFile",
                                "src" : 1,
                                "trackNumber" : 0,
                                "attributes" : {
                                  "ident" : "EditPart"
                                },
                                "parameters" : {
                                  "cursorScale" : {
                                    "type" : "double",
                                    "defaultValue" : 0.0,
                                    "interp" : "linr"
                                  },
                                  "cursorOpacity" : {
                                    "type" : "double",
                                    "defaultValue" : 0.0,
                                    "interp" : "linr"
                                  }
                                },
                                "effects" : [

                                ],
                                "start" : 472,
                                "duration" : 1334,
                                "mediaStart" : 352,
                                "mediaDuration" : 1334,
                                "scalar" : 1,
                                "animationTracks" : {

                                }
                              },
                          "audio" : 
                              {
                                "id" : 11,
                                "_type" : "AMFile",
                                "src" : 1,
                                "trackNumber" : 1,
                                "attributes" : {
                                  "ident" : "",
                                  "sampleRate" : 22050,
                                  "bitDepth" : 16,
                                  "gain" : 1.0,
                                  "mixToMono" : false
                                },
                                  "channelNumber" : "0",
                                "effects" : [

                                ],
                                "start" : 472,
                                "duration" : 1334,
                                "mediaStart" : 352,
                                "mediaDuration" : 1334,
                                "scalar" : 1,
                                "animationTracks" : {

                                }
                              }
,
                          "start" : 472,
                          "duration" : 1334,
                          "mediaStart" : 0,
                          "mediaDuration" : 1686,
                          "scalar" : 1,
                          "metadata" : {
                            "AutoAppliedSmartFocus" : "False",
                            "WinSubProjectDisplayName" : "",
                            "clipSpeedAttribute" : false
                          }
                        }
                    ],
                    "effects" : [

                    ],
                    "start" : 90,
                    "duration" : 605,
                    "mediaStart" : 0,
                    "mediaDuration" : 605,
                    "scalar" : 1,
                    "metadata" : {
                      "AutoAppliedSmartFocus" : "False",
                      "WinSubProjectDisplayName" : "",
                      "clipSpeedAttribute" : false
                    },
                    "animationTracks" : {

                    }
                  },
                  {
                    "id" : 12,
                    "_type" : "StitchedMedia",
                    "minMediaStart" : 0,
                    "attributes" : {
                      "ident" : "EditPart",
                      "gain" : 1.0,
                      "mixToMono" : false
                    },
                    "parameters" : {
                      "translation1" : -0.5,
                      "volume" : 1.0,
                      "cursorOpacity" : 1.0,
                      "cursorScale" : 1.0
                    },
                    "medias" : [
                        {
                          "id" : 13,
                          "_type" : "UnifiedMedia",
                          "video" : 
                              {
                                "id" : 14,
                                "_type" : "ScreenVMFile",
                                "src" : 1,
                                "trackNumber" : 0,
                                "attributes" : {
                                  "ident" : "EditPart"
                                },
                                "parameters" : {
                                  "cursorScale" : {
                                    "type" : "double",
                                    "defaultValue" : 0.0,
                                    "interp" : "linr"
                                  },
                                  "cursorOpacity" : {
                                    "type" : "double",
                                    "defaultValue" : 0.0,
                                    "interp" : "linr"
                                  }
                                },
                                "effects" : [

                                ],
                                "start" : 0,
                                "duration" : 352,
                                "mediaStart" : 0,
                                "mediaDuration" : 352,
                                "scalar" : 1,
                                "animationTracks" : {

                                }
                              },
                          "audio" : 
                              {
                                "id" : 15,
                                "_type" : "AMFile",
                                "src" : 1,
                                "trackNumber" : 1,
                                "attributes" : {
                                  "ident" : "",
                                  "sampleRate" : 22050,
                                  "bitDepth" : 16,
                                  "gain" : 1.0,
                                  "mixToMono" : false
                                },
                                  "channelNumber" : "0",
                                "effects" : [

                                ],
                                "start" : 0,
                                "duration" : 352,
                                "mediaStart" : 0,
                                "mediaDuration" : 352,
                                "scalar" : 1,
                                "animationTracks" : {

                                }
                              }
,
                          "start" : 0,
                          "duration" : 352,
                          "mediaStart" : 0,
                          "mediaDuration" : 1686,
                          "scalar" : 1,
                          "metadata" : {
                            "AutoAppliedSmartFocus" : "False",
                            "WinSubProjectDisplayName" : "",
                            "clipSpeedAttribute" : false
                          }
                        },
                        {
                          "id" : 16,
                          "_type" : "ScreenIMFile",
                          "src" : 1,
                          "trackNumber" : 0,
                          "trimStartSum" : 0,
                          "attributes" : {
                            "ident" : "EditPart"
                          },
                          "parameters" : {
                            "cursorOpacity" : {
                              "type" : "double",
                              "defaultValue" : 0.0,
                              "interp" : "linr"
                            },
                            "cursorScale" : {
                              "type" : "double",
                              "defaultValue" : 0.0,
                              "interp" : "linr"
                            }
                          },
                          "effects" : [

                          ],
                          "start" : 352,
                          "duration" : 120,
                          "mediaStart" : 351,
                          "mediaDuration" : 1,
                          "scalar" : 1,
                          "metadata" : {
                            "AutoAppliedSmartFocus" : "False",
                            "WinSubProjectDisplayName" : ""
                          },
                          "animationTracks" : {

                          }
                        },
                        {
                          "id" : 17,
                          "_type" : "UnifiedMedia",
                          "video" : 
                              {
                                "id" : 18,
                                "_type" : "ScreenVMFile",
                                "src" : 1,
                                "trackNumber" : 0,
                                "attributes" : {
                                  "ident" : "EditPart"
                                },
                                "parameters" : {
                                  "cursorScale" : {
                                    "type" : "double",
                                    "defaultValue" : 0.0,
                                    "interp" : "linr"
                                  },
                                  "cursorOpacity" : {
                                    "type" : "double",
                                    "defaultValue" : 0.0,
                                    "interp" : "linr"
                                  }
                                },
                                "effects" : [

                                ],
                                "start" : 472,
                                "duration" : 1007,
                                "mediaStart" : 352,
                                "mediaDuration" : 1007,
                                "scalar" : 1,
                                "animationTracks" : {

                                }
                              },
                          "audio" : 
                              {
                                "id" : 19,
                                "_type" : "AMFile",
                                "src" : 1,
                                "trackNumber" : 1,
                                "attributes" : {
                                  "ident" : "",
                                  "sampleRate" : 22050,
                                  "bitDepth" : 16,
                                  "gain" : 1.0,
                                  "mixToMono" : false
                                },
                                  "channelNumber" : "0",
                                "effects" : [

                                ],
                                "start" : 472,
                                "duration" : 1007,
                                "mediaStart" : 352,
                                "mediaDuration" : 1007,
                                "scalar" : 1,
                                "animationTracks" : {

                                }
                              }
,
                          "start" : 472,
                          "duration" : 1007,
                          "mediaStart" : 0,
                          "mediaDuration" : 1686,
                          "scalar" : 1,
                          "metadata" : {
                            "AutoAppliedSmartFocus" : "False",
                            "WinSubProjectDisplayName" : "",
                            "clipSpeedAttribute" : false
                          }
                        },
                        {
                          "id" : 20,
                          "_type" : "ScreenIMFile",
                          "src" : 1,
                          "trackNumber" : 0,
                          "trimStartSum" : 0,
                          "attributes" : {
                            "ident" : "EditPart"
                          },
                          "parameters" : {
                            "cursorOpacity" : {
                              "type" : "double",
                              "defaultValue" : 0.0,
                              "interp" : "linr"
                            },
                            "cursorScale" : {
                              "type" : "double",
                              "defaultValue" : 0.0,
                              "interp" : "linr"
                            }
                          },
                          "effects" : [

                          ],
                          "start" : 1479,
                          "duration" : 90,
                          "mediaStart" : 1359,
                          "mediaDuration" : 1,
                          "scalar" : 1,
                          "metadata" : {
                            "AutoAppliedSmartFocus" : "False",
                            "WinSubProjectDisplayName" : ""
                          },
                          "animationTracks" : {

                          }
                        },
                        {
                          "id" : 21,
                          "_type" : "UnifiedMedia",
                          "video" : 
                              {
                                "id" : 22,
                                "_type" : "ScreenVMFile",
                                "src" : 1,
                                "trackNumber" : 0,
                                "attributes" : {
                                  "ident" : "EditPart"
                                },
                                "parameters" : {
                                  "cursorScale" : {
                                    "type" : "double",
                                    "defaultValue" : 0.0,
                                    "interp" : "linr"
                                  },
                                  "cursorOpacity" : {
                                    "type" : "double",
                                    "defaultValue" : 0.0,
                                    "interp" : "linr"
                                  }
                                },
                                "effects" : [

                                ],
                                "start" : 1569,
                                "duration" : 327,
                                "mediaStart" : 1359,
                                "mediaDuration" : 327,
                                "scalar" : 1,
                                "animationTracks" : {

                                }
                              },
                          "audio" : 
                              {
                                "id" : 23,
                                "_type" : "AMFile",
                                "src" : 1,
                                "trackNumber" : 1,
                                "attributes" : {
                                  "ident" : "",
                                  "sampleRate" : 22050,
                                  "bitDepth" : 16,
                                  "gain" : 1.0,
                                  "mixToMono" : false
                                },
                                  "channelNumber" : "0",
                                "effects" : [

                                ],
                                "start" : 1569,
                                "duration" : 327,
                                "mediaStart" : 1359,
                                "mediaDuration" : 327,
                                "scalar" : 1,
                                "animationTracks" : {

                                }
                              }
,
                          "start" : 1569,
                          "duration" : 327,
                          "mediaStart" : 0,
                          "mediaDuration" : 1686,
                          "scalar" : 1,
                          "metadata" : {
                            "AutoAppliedSmartFocus" : "False",
                            "WinSubProjectDisplayName" : "",
                            "clipSpeedAttribute" : false
                          }
                        }
                    ],
                    "effects" : [

                    ],
                    "start" : 695,
                    "duration" : 752,
                    "mediaStart" : 959,
                    "mediaDuration" : 752,
                    "scalar" : 1,
                    "metadata" : {
                      "AutoAppliedSmartFocus" : "False",
                      "WinSubProjectDisplayName" : "",
                      "clipSpeedAttribute" : false
                    },
                    "animationTracks" : {

                    }
                  },
                  {
                    "id" : 24,
                    "_type" : "StitchedMedia",
                    "minMediaStart" : 0,
                    "attributes" : {
                      "ident" : "EditPart",
                      "gain" : 1.0,
                      "mixToMono" : false
                    },
                    "parameters" : {
                      "translation1" : {
                        "type" : "double",
                        "defaultValue" : -0.5,
                        "interp" : "eioe"
                      },
                      "volume" : 1.0,
                      "cursorOpacity" : {
                        "type" : "double",
                        "defaultValue" : 1.0,
                        "interp" : "linr"
                      },
                      "cursorScale" : {
                        "type" : "double",
                        "defaultValue" : 1.0,
                        "interp" : "linr"
                      }
                    },
                    "medias" : [
                        {
                          "id" : 25,
                          "_type" : "UnifiedMedia",
                          "video" : 
                              {
                                "id" : 26,
                                "_type" : "ScreenVMFile",
                                "src" : 1,
                                "trackNumber" : 0,
                                "attributes" : {
                                  "ident" : "EditPart"
                                },
                                "parameters" : {
                                  "cursorScale" : {
                                    "type" : "double",
                                    "defaultValue" : 0.0,
                                    "interp" : "linr"
                                  },
                                  "cursorOpacity" : {
                                    "type" : "double",
                                    "defaultValue" : 0.0,
                                    "interp" : "linr"
                                  }
                                },
                                "effects" : [

                                ],
                                "start" : 0,
                                "duration" : 352,
                                "mediaStart" : 0,
                                "mediaDuration" : 352,
                                "scalar" : 1,
                                "animationTracks" : {

                                }
                              },
                          "audio" : 
                              {
                                "id" : 27,
                                "_type" : "AMFile",
                                "src" : 1,
                                "trackNumber" : 1,
                                "attributes" : {
                                  "ident" : "",
                                  "sampleRate" : 22050,
                                  "bitDepth" : 16,
                                  "gain" : 1.0,
                                  "mixToMono" : false
                                },
                                  "channelNumber" : "0",
                                "effects" : [

                                ],
                                "start" : 0,
                                "duration" : 352,
                                "mediaStart" : 0,
                                "mediaDuration" : 352,
                                "scalar" : 1,
                                "animationTracks" : {

                                }
                              }
,
                          "start" : 0,
                          "duration" : 352,
                          "mediaStart" : 0,
                          "mediaDuration" : 1686,
                          "scalar" : 1,
                          "metadata" : {
                            "AutoAppliedSmartFocus" : "False",
                            "WinSubProjectDisplayName" : "",
                            "clipSpeedAttribute" : false
                          }
                        },
                        {
                          "id" : 28,
                          "_type" : "ScreenIMFile",
                          "src" : 1,
                          "trackNumber" : 0,
                          "trimStartSum" : 0,
                          "attributes" : {
                            "ident" : "EditPart"
                          },
                          "parameters" : {
                            "cursorOpacity" : {
                              "type" : "double",
                              "defaultValue" : 0.0,
                              "interp" : "linr"
                            },
                            "cursorScale" : {
                              "type" : "double",
                              "defaultValue" : 0.0,
                              "interp" : "linr"
                            }
                          },
                          "effects" : [

                          ],
                          "start" : 352,
                          "duration" : 120,
                          "mediaStart" : 351,
                          "mediaDuration" : 1,
                          "scalar" : 1,
                          "metadata" : {
                            "AutoAppliedSmartFocus" : "False",
                            "WinSubProjectDisplayName" : ""
                          },
                          "animationTracks" : {

                          }
                        },
                        {
                          "id" : 29,
                          "_type" : "UnifiedMedia",
                          "video" : 
                              {
                                "id" : 30,
                                "_type" : "ScreenVMFile",
                                "src" : 1,
                                "trackNumber" : 0,
                                "attributes" : {
                                  "ident" : "EditPart"
                                },
                                "parameters" : {
                                  "cursorScale" : {
                                    "type" : "double",
                                    "defaultValue" : 0.0,
                                    "interp" : "linr"
                                  },
                                  "cursorOpacity" : {
                                    "type" : "double",
                                    "defaultValue" : 0.0,
                                    "interp" : "linr"
                                  }
                                },
                                "effects" : [

                                ],
                                "start" : 472,
                                "duration" : 1334,
                                "mediaStart" : 352,
                                "mediaDuration" : 1334,
                                "scalar" : 1,
                                "animationTracks" : {

                                }
                              },
                          "audio" : 
                              {
                                "id" : 31,
                                "_type" : "AMFile",
                                "src" : 1,
                                "trackNumber" : 1,
                                "attributes" : {
                                  "ident" : "",
                                  "sampleRate" : 22050,
                                  "bitDepth" : 16,
                                  "gain" : 1.0,
                                  "mixToMono" : false
                                },
                                  "channelNumber" : "0",
                                "effects" : [

                                ],
                                "start" : 472,
                                "duration" : 1334,
                                "mediaStart" : 352,
                                "mediaDuration" : 1334,
                                "scalar" : 1,
                                "animationTracks" : {

                                }
                              }
,
                          "start" : 472,
                          "duration" : 1334,
                          "mediaStart" : 0,
                          "mediaDuration" : 1686,
                          "scalar" : 1,
                          "metadata" : {
                            "AutoAppliedSmartFocus" : "False",
                            "WinSubProjectDisplayName" : "",
                            "clipSpeedAttribute" : false
                          }
                        }
                    ],
                    "effects" : [

                    ],
                    "start" : 3385,
                    "duration" : 354,
                    "mediaStart" : 605,
                    "mediaDuration" : 354,
                    "scalar" : 1,
                    "metadata" : {
                      "AutoAppliedSmartFocus" : "False",
                      "WinSubProjectDisplayName" : "",
                      "clipSpeedAttribute" : false
                    },
                    "animationTracks" : {

                    }
                  }
                ]
              },
              {
                "trackIndex" : 1,
                "medias" : [
                  {
                    "id" : 32,
                    "_type" : "Callout",
                    "def" : {
                      "kind" : "remix",
                      "shape" : "speech-bubble2",
                      "style" : "basic",
                      "fill-color-blue" : 0.172549019607843,
                      "fill-color-green" : 0.615686274509804,
                      "fill-color-opacity" : 1.0,
                      "fill-color-red" : 0.105882352941176,
                      "height" : 89.4999999999467,
                      "stroke-color-blue" : 1.0,
                      "stroke-color-green" : 1.0,
                      "stroke-color-opacity" : 1.0,
                      "stroke-color-red" : 1.0,
                      "stroke-width" : 0.0,
                      "tail-x" : -268.999999999944,
                      "tail-y" : 161.750000000079,
                      "width" : 528.000000000128,
                      "word-wrap" : 1.0,
                      "fill-style" : "solid",
                      "horizontal-alignment" : "center",
                      "stroke-style" : "solid",
                      "text" : "1: Click 'Edit Part' icon\r2: Click 'Part-Outline'",
                      "vertical-alignment" : "center",
                      "font" : {
                        "color-blue" : 1.0,
                        "color-green" : 1.0,
                        "color-red" : 1.0,
                        "size" : 64.0,
                        "tracking" : 0.0,
                        "name" : "Montserrat",
                        "weight" : "Regular"
                      },
                      "textAttributes" : {
                        "type" : "textAttributeList",
                        "keyframes" : [
                          {
                            "time" : 0,
                            "value" : [{"name":"fontSize","rangeEnd":49,"rangeStart":0,"value":64,"valueType":"double"},{"name":"fontItalic","rangeEnd":49,"rangeStart":0,"value":0,"valueType":"int"},{"name":"strikethrough","rangeEnd":49,"rangeStart":0,"value":0,"valueType":"int"},{"name":"fgColor","rangeEnd":49,"rangeStart":0,"value":"(255,255,255,255)","valueType":"color"},{"name":"underline","rangeEnd":49,"rangeStart":0,"value":0,"valueType":"int"},{"name":"fontName","rangeEnd":49,"rangeStart":0,"value":"Montserrat","valueType":"string"},{"name":"fontWeight","rangeEnd":49,"rangeStart":0,"value":400,"valueType":"int"}],
                            "duration" : 0
                          }
                        ]
                      }
                    },
                    "attributes" : {
                      "autoRotateText" : true
                    },
                    "parameters" : {
                      "translation0" : 157.000000000151,
                      "translation1" : -162.250000000062
                    },
                    "effects" : [
                        {
                          "effectName" : "DropShadow",
                          "category" : "categoryVisualEffects",
                          "parameters" : {
                            "angle" : 5.49778714378214,
                            "blur" : 10.0,
                            "color-alpha" : 1.0,
                            "color-blue" : 0.1216,
                            "color-green" : 0.1216,
                            "color-red" : 0.1216,
                            "enabled" : 1,
                            "offset" : 10.0,
                            "opacity" : 0.4
                          }
                        }
                    ],
                    "start" : 90,
                    "duration" : 242,
                    "mediaStart" : 0,
                    "mediaDuration" : 242,
                    "scalar" : 1,
                    "metadata" : {
                      "WinSubProjectDisplayName" : "",
                      "clipSpeedAttribute" : false,
                      "default-HAlign" : "center",
                      "default-VAlign" : "center",
                      "default-fill-color-blue" : 0.258823529411765,
                      "default-fill-color-green" : 0.258823529411765,
                      "default-fill-color-red" : 0.988235294117647,
                      "default-text-attributes" : null,
                      "default-translation0" : 89.0000000000638,
                      "default-translation1" : -45.2500000000267
                    },
                    "animationTracks" : {

                    }
                  },
                  {
                    "id" : 33,
                    "_type" : "Callout",
                    "def" : {
                      "kind" : "remix",
                      "shape" : "text-rectangle",
                      "style" : "basic",
                      "fill-color-blue" : {
                        "type" : "double",
                        "defaultValue" : 1.0,
                        "interp" : "linr"
                      },
                      "fill-color-green" : {
                        "type" : "double",
                        "defaultValue" : 1.0,
                        "interp" : "linr"
                      },
                      "fill-color-opacity" : {
                        "type" : "double",
                        "defaultValue" : 1.0,
                        "interp" : "linr"
                      },
                      "fill-color-red" : {
                        "type" : "double",
                        "defaultValue" : 1.0,
                        "interp" : "linr"
                      },
                      "height" : {
                        "type" : "double",
                        "defaultValue" : 122.999999999952,
                        "interp" : "linr"
                      },
                      "stroke-color-blue" : {
                        "type" : "double",
                        "defaultValue" : 0.56078431372549,
                        "interp" : "linr"
                      },
                      "stroke-color-green" : {
                        "type" : "double",
                        "defaultValue" : 0.686274509803922,
                        "interp" : "linr"
                      },
                      "stroke-color-opacity" : {
                        "type" : "double",
                        "defaultValue" : 1.0,
                        "interp" : "linr"
                      },
                      "stroke-color-red" : {
                        "type" : "double",
                        "defaultValue" : 0.0196078431372549,
                        "interp" : "linr"
                      },
                      "stroke-width" : {
                        "type" : "double",
                        "defaultValue" : 2.0,
                        "interp" : "linr"
                      },
                      "tail-x" : {
                        "type" : "double",
                        "defaultValue" : -69.5000000000428,
                        "interp" : "linr"
                      },
                      "tail-y" : {
                        "type" : "double",
                        "defaultValue" : -6.49999999997598,
                        "interp" : "linr"
                      },
                      "width" : {
                        "type" : "double",
                        "defaultValue" : 210.999999999914,
                        "interp" : "linr"
                      },
                      "word-wrap" : {
                        "type" : "double",
                        "defaultValue" : 1.0,
                        "interp" : "linr"
                      },
                      "fill-style" : "solid",
                      "horizontal-alignment" : "center",
                      "stroke-style" : "solid",
                      "text" : "Wait \r3-4 secs",
                      "vertical-alignment" : "center",
                      "font" : {
                        "color-blue" : {
                          "type" : "double",
                          "defaultValue" : 0.266666666666667,
                          "interp" : "linr"
                        },
                        "color-green" : {
                          "type" : "double",
                          "defaultValue" : 0.231372549019608,
                          "interp" : "linr"
                        },
                        "color-opacity" : {
                          "type" : "double",
                          "defaultValue" : 1.0,
                          "interp" : "linr"
                        },
                        "color-red" : {
                          "type" : "double",
                          "defaultValue" : 0.184313725490196,
                          "interp" : "linr"
                        },
                        "size" : {
                          "type" : "double",
                          "defaultValue" : 64.0,
                          "interp" : "linr"
                        },
                        "tracking" : {
                          "type" : "double",
                          "defaultValue" : 0.0,
                          "interp" : "linr"
                        },
                        "name" : "Montserrat",
                        "weight" : "Regular"
                      },
                      "textAttributes" : {
                        "type" : "textAttributeList",
                        "keyframes" : [
                          {
                            "time" : 0,
                            "value" : [{"name":"fontItalic","rangeEnd":14,"rangeStart":0,"value":0,"valueType":"int"},{"name":"strikethrough","rangeEnd":14,"rangeStart":0,"value":0,"valueType":"int"},{"name":"fgColor","rangeEnd":14,"rangeStart":0,"value":"(47,59,68,255)","valueType":"color"},{"name":"fontName","rangeEnd":14,"rangeStart":0,"value":"Montserrat","valueType":"string"},{"name":"underline","rangeEnd":14,"rangeStart":0,"value":0,"valueType":"int"},{"name":"fontSize","rangeEnd":14,"rangeStart":0,"value":64,"valueType":"double"},{"name":"fontWeight","rangeEnd":14,"rangeStart":0,"value":400,"valueType":"int"}],
                            "duration" : 0
                          }
                        ]
                      }
                    },
                    "attributes" : {
                      "autoRotateText" : true
                    },
                    "parameters" : {
                      "translation0" : {
                        "type" : "double",
                        "defaultValue" : -256.499999999996,
                        "interp" : "eioe"
                      },
                      "translation1" : {
                        "type" : "double",
                        "defaultValue" : -195.500000000054,
                        "interp" : "eioe"
                      }
                    },
                    "effects" : [
                        {
                          "effectName" : "DropShadow",
                          "category" : "categoryVisualEffects",
                          "parameters" : {
                            "angle" : {
                              "type" : "double",
                              "defaultValue" : 5.49778714378214,
                              "interp" : "linr",
                              "uiHints" : {
                                "userInterfaceType" : 0,
                                "unitType" : 0
                              }
                            },
                            "blur" : {
                              "type" : "double",
                              "defaultValue" : 10.0,
                              "interp" : "linr",
                              "uiHints" : {
                                "userInterfaceType" : 0,
                                "unitType" : 0
                              }
                            },
                            "color-alpha" : {
                              "type" : "double",
                              "defaultValue" : 1.0,
                              "interp" : "linr",
                              "uiHints" : {
                                "userInterfaceType" : 0,
                                "unitType" : 0
                              }
                            },
                            "color-blue" : {
                              "type" : "double",
                              "defaultValue" : 0.1216,
                              "interp" : "linr",
                              "uiHints" : {
                                "userInterfaceType" : 0,
                                "unitType" : 0
                              }
                            },
                            "color-green" : {
                              "type" : "double",
                              "defaultValue" : 0.1216,
                              "interp" : "linr",
                              "uiHints" : {
                                "userInterfaceType" : 0,
                                "unitType" : 0
                              }
                            },
                            "color-red" : {
                              "type" : "double",
                              "defaultValue" : 0.1216,
                              "interp" : "linr",
                              "uiHints" : {
                                "userInterfaceType" : 0,
                                "unitType" : 0
                              }
                            },
                            "enabled" : 1,
                            "offset" : {
                              "type" : "double",
                              "defaultValue" : 10.0,
                              "interp" : "linr",
                              "uiHints" : {
                                "userInterfaceType" : 0,
                                "unitType" : 0
                              }
                            },
                            "opacity" : {
                              "type" : "double",
                              "defaultValue" : 0.4,
                              "interp" : "linr",
                              "uiHints" : {
                                "userInterfaceType" : 0,
                                "unitType" : 0
                              }
                            }
                          }
                        }
                    ],
                    "start" : 587,
                    "duration" : 99,
                    "mediaStart" : 0,
                    "mediaDuration" : 99,
                    "scalar" : 1,
                    "metadata" : {
                      "WinSubProjectDisplayName" : "",
                      "clipSpeedAttribute" : false,
                      "default-HAlign" : "center",
                      "default-VAlign" : "center",
                      "default-text-attributes" : null,
                      "default-translation0" : 69.5000000000428,
                      "default-translation1" : -13.500000000024
                    },
                    "animationTracks" : {

                    }
                  },
                  {
                    "id" : 34,
                    "_type" : "Callout",
                    "def" : {
                      "kind" : "remix",
                      "shape" : "speech-bubble2",
                      "style" : "basic",
                      "fill-color-blue" : {
                        "type" : "double",
                        "defaultValue" : 0.172549019607843,
                        "interp" : "linr"
                      },
                      "fill-color-green" : {
                        "type" : "double",
                        "defaultValue" : 0.615686274509804,
                        "interp" : "linr"
                      },
                      "fill-color-opacity" : {
                        "type" : "double",
                        "defaultValue" : 1.0,
                        "interp" : "linr"
                      },
                      "fill-color-red" : {
                        "type" : "double",
                        "defaultValue" : 0.105882352941176,
                        "interp" : "linr"
                      },
                      "height" : {
                        "type" : "double",
                        "defaultValue" : 89.4999999999467,
                        "interp" : "linr"
                      },
                      "stroke-color-blue" : {
                        "type" : "double",
                        "defaultValue" : 1.0,
                        "interp" : "linr"
                      },
                      "stroke-color-green" : {
                        "type" : "double",
                        "defaultValue" : 1.0,
                        "interp" : "linr"
                      },
                      "stroke-color-opacity" : {
                        "type" : "double",
                        "defaultValue" : 1.0,
                        "interp" : "linr"
                      },
                      "stroke-color-red" : {
                        "type" : "double",
                        "defaultValue" : 1.0,
                        "interp" : "linr"
                      },
                      "stroke-width" : {
                        "type" : "double",
                        "defaultValue" : 0.0,
                        "interp" : "linr"
                      },
                      "tail-x" : {
                        "type" : "double",
                        "defaultValue" : 21.0000000002068,
                        "interp" : "linr"
                      },
                      "tail-y" : {
                        "type" : "double",
                        "defaultValue" : 217.750000000089,
                        "interp" : "linr"
                      },
                      "width" : {
                        "type" : "double",
                        "defaultValue" : 528.000000000128,
                        "interp" : "linr"
                      },
                      "word-wrap" : {
                        "type" : "double",
                        "defaultValue" : 1.0,
                        "interp" : "linr"
                      },
                      "fill-style" : "solid",
                      "horizontal-alignment" : "center",
                      "stroke-style" : "solid",
                      "text" : "1: Double-Click  Part-Outline",
                      "vertical-alignment" : "center",
                      "font" : {
                        "color-blue" : {
                          "type" : "double",
                          "defaultValue" : 1.0,
                          "interp" : "linr"
                        },
                        "color-green" : {
                          "type" : "double",
                          "defaultValue" : 1.0,
                          "interp" : "linr"
                        },
                        "color-red" : {
                          "type" : "double",
                          "defaultValue" : 1.0,
                          "interp" : "linr"
                        },
                        "size" : {
                          "type" : "double",
                          "defaultValue" : 64.0,
                          "interp" : "linr"
                        },
                        "tracking" : {
                          "type" : "double",
                          "defaultValue" : 0.0,
                          "interp" : "linr"
                        },
                        "name" : "Montserrat",
                        "weight" : "Regular"
                      },
                      "textAttributes" : {
                        "type" : "textAttributeList",
                        "keyframes" : [
                          {
                            "time" : 0,
                            "value" : [{"name":"fontWeight","rangeEnd":29,"rangeStart":0,"value":400,"valueType":"int"},{"name":"strikethrough","rangeEnd":29,"rangeStart":0,"value":0,"valueType":"int"},{"name":"fgColor","rangeEnd":29,"rangeStart":0,"value":"(255,255,255,255)","valueType":"color"},{"name":"underline","rangeEnd":29,"rangeStart":0,"value":0,"valueType":"int"},{"name":"fontItalic","rangeEnd":29,"rangeStart":0,"value":0,"valueType":"int"},{"name":"fontSize","rangeEnd":29,"rangeStart":0,"value":64,"valueType":"double"},{"name":"fontName","rangeEnd":29,"rangeStart":0,"value":"Montserrat","valueType":"string"}],
                            "duration" : 0
                          }
                        ]
                      }
                    },
                    "attributes" : {
                      "autoRotateText" : true
                    },
                    "parameters" : {
                      "translation0" : {
                        "type" : "double",
                        "defaultValue" : 68.0000000002964,
                        "interp" : "eioe"
                      },
                      "translation1" : {
                        "type" : "double",
                        "defaultValue" : -168.25000000007,
                        "interp" : "eioe"
                      }
                    },
                    "effects" : [
                        {
                          "effectName" : "DropShadow",
                          "category" : "categoryVisualEffects",
                          "parameters" : {
                            "angle" : {
                              "type" : "double",
                              "defaultValue" : 5.49778714378214,
                              "interp" : "linr",
                              "uiHints" : {
                                "userInterfaceType" : 0,
                                "unitType" : 0
                              }
                            },
                            "blur" : {
                              "type" : "double",
                              "defaultValue" : 10.0,
                              "interp" : "linr",
                              "uiHints" : {
                                "userInterfaceType" : 0,
                                "unitType" : 0
                              }
                            },
                            "color-alpha" : {
                              "type" : "double",
                              "defaultValue" : 1.0,
                              "interp" : "linr",
                              "uiHints" : {
                                "userInterfaceType" : 0,
                                "unitType" : 0
                              }
                            },
                            "color-blue" : {
                              "type" : "double",
                              "defaultValue" : 0.1216,
                              "interp" : "linr",
                              "uiHints" : {
                                "userInterfaceType" : 0,
                                "unitType" : 0
                              }
                            },
                            "color-green" : {
                              "type" : "double",
                              "defaultValue" : 0.1216,
                              "interp" : "linr",
                              "uiHints" : {
                                "userInterfaceType" : 0,
                                "unitType" : 0
                              }
                            },
                            "color-red" : {
                              "type" : "double",
                              "defaultValue" : 0.1216,
                              "interp" : "linr",
                              "uiHints" : {
                                "userInterfaceType" : 0,
                                "unitType" : 0
                              }
                            },
                            "enabled" : 1,
                            "offset" : {
                              "type" : "double",
                              "defaultValue" : 10.0,
                              "interp" : "linr",
                              "uiHints" : {
                                "userInterfaceType" : 0,
                                "unitType" : 0
                              }
                            },
                            "opacity" : {
                              "type" : "double",
                              "defaultValue" : 0.4,
                              "interp" : "linr",
                              "uiHints" : {
                                "userInterfaceType" : 0,
                                "unitType" : 0
                              }
                            }
                          }
                        }
                    ],
                    "start" : 709,
                    "duration" : 117,
                    "mediaStart" : 0,
                    "mediaDuration" : 117,
                    "scalar" : 1,
                    "metadata" : {
                      "WinSubProjectDisplayName" : "",
                      "clipSpeedAttribute" : false,
                      "default-HAlign" : "center",
                      "default-VAlign" : "center",
                      "default-fill-color-blue" : 0.258823529411765,
                      "default-fill-color-green" : 0.258823529411765,
                      "default-fill-color-red" : 0.988235294117647,
                      "default-text-attributes" : null,
                      "default-translation0" : 89.0000000000638,
                      "default-translation1" : -45.2500000000267
                    },
                    "animationTracks" : {

                    }
                  },
                  {
                    "id" : 35,
                    "_type" : "Callout",
                    "def" : {
                      "kind" : "remix",
                      "shape" : "speech-bubble2",
                      "style" : "basic",
                      "fill-color-blue" : {
                        "type" : "double",
                        "defaultValue" : 0.258823529411765,
                        "interp" : "linr"
                      },
                      "fill-color-green" : {
                        "type" : "double",
                        "defaultValue" : 0.258823529411765,
                        "interp" : "linr"
                      },
                      "fill-color-opacity" : {
                        "type" : "double",
                        "defaultValue" : 1.0,
                        "interp" : "linr"
                      },
                      "fill-color-red" : {
                        "type" : "double",
                        "defaultValue" : 0.988235294117647,
                        "interp" : "linr"
                      },
                      "height" : {
                        "type" : "double",
                        "defaultValue" : 112.499999999971,
                        "interp" : "linr"
                      },
                      "stroke-color-blue" : {
                        "type" : "double",
                        "defaultValue" : 1.0,
                        "interp" : "linr"
                      },
                      "stroke-color-green" : {
                        "type" : "double",
                        "defaultValue" : 1.0,
                        "interp" : "linr"
                      },
                      "stroke-color-opacity" : {
                        "type" : "double",
                        "defaultValue" : 1.0,
                        "interp" : "linr"
                      },
                      "stroke-color-red" : {
                        "type" : "double",
                        "defaultValue" : 1.0,
                        "interp" : "linr"
                      },
                      "stroke-width" : {
                        "type" : "double",
                        "defaultValue" : 0.0,
                        "interp" : "linr"
                      },
                      "tail-x" : {
                        "type" : "double",
                        "defaultValue" : 62.5000000002489,
                        "interp" : "linr"
                      },
                      "tail-y" : {
                        "type" : "double",
                        "defaultValue" : 223.250000000104,
                        "interp" : "linr"
                      },
                      "width" : {
                        "type" : "double",
                        "defaultValue" : 279.000000000212,
                        "interp" : "linr"
                      },
                      "word-wrap" : {
                        "type" : "double",
                        "defaultValue" : 1.0,
                        "interp" : "linr"
                      },
                      "fill-style" : "solid",
                      "horizontal-alignment" : "center",
                      "stroke-style" : "solid",
                      "text" : "Exit Part-Editor'\r2: Click 'Edit Part' icon again",
                      "vertical-alignment" : "center",
                      "font" : {
                        "color-blue" : {
                          "type" : "double",
                          "defaultValue" : 1.0,
                          "interp" : "linr"
                        },
                        "color-green" : {
                          "type" : "double",
                          "defaultValue" : 1.0,
                          "interp" : "linr"
                        },
                        "color-red" : {
                          "type" : "double",
                          "defaultValue" : 1.0,
                          "interp" : "linr"
                        },
                        "size" : {
                          "type" : "double",
                          "defaultValue" : 64.0,
                          "interp" : "linr"
                        },
                        "tracking" : {
                          "type" : "double",
                          "defaultValue" : 0.0,
                          "interp" : "linr"
                        },
                        "name" : "Montserrat",
                        "weight" : "Regular"
                      },
                      "textAttributes" : {
                        "type" : "textAttributeList",
                        "keyframes" : [
                          {
                            "time" : 0,
                            "value" : [{"name":"fgColor","rangeEnd":49,"rangeStart":0,"value":"(255,255,255,255)","valueType":"color"},{"name":"fontItalic","rangeEnd":49,"rangeStart":0,"value":0,"valueType":"int"},{"name":"fontName","rangeEnd":49,"rangeStart":0,"value":"Montserrat","valueType":"string"},{"name":"fontSize","rangeEnd":49,"rangeStart":0,"value":64,"valueType":"double"},{"name":"strikethrough","rangeEnd":49,"rangeStart":0,"value":0,"valueType":"int"},{"name":"underline","rangeEnd":49,"rangeStart":0,"value":0,"valueType":"int"},{"name":"fontWeight","rangeEnd":49,"rangeStart":0,"value":400,"valueType":"int"}],
                            "duration" : 0
                          }
                        ]
                      }
                    },
                    "attributes" : {
                      "autoRotateText" : true
                    },
                    "parameters" : {
                      "translation0" : {
                        "type" : "double",
                        "defaultValue" : -209.499999999798,
                        "interp" : "eioe"
                      },
                      "translation1" : {
                        "type" : "double",
                        "defaultValue" : -56.2500000000368,
                        "interp" : "eioe"
                      }
                    },
                    "effects" : [
                        {
                          "effectName" : "DropShadow",
                          "category" : "categoryVisualEffects",
                          "parameters" : {
                            "angle" : {
                              "type" : "double",
                              "defaultValue" : 5.49778714378214,
                              "interp" : "linr",
                              "uiHints" : {
                                "userInterfaceType" : 0,
                                "unitType" : 0
                              }
                            },
                            "blur" : {
                              "type" : "double",
                              "defaultValue" : 10.0,
                              "interp" : "linr",
                              "uiHints" : {
                                "userInterfaceType" : 0,
                                "unitType" : 0
                              }
                            },
                            "color-alpha" : {
                              "type" : "double",
                              "defaultValue" : 1.0,
                              "interp" : "linr",
                              "uiHints" : {
                                "userInterfaceType" : 0,
                                "unitType" : 0
                              }
                            },
                            "color-blue" : {
                              "type" : "double",
                              "defaultValue" : 0.1216,
                              "interp" : "linr",
                              "uiHints" : {
                                "userInterfaceType" : 0,
                                "unitType" : 0
                              }
                            },
                            "color-green" : {
                              "type" : "double",
                              "defaultValue" : 0.1216,
                              "interp" : "linr",
                              "uiHints" : {
                                "userInterfaceType" : 0,
                                "unitType" : 0
                              }
                            },
                            "color-red" : {
                              "type" : "double",
                              "defaultValue" : 0.1216,
                              "interp" : "linr",
                              "uiHints" : {
                                "userInterfaceType" : 0,
                                "unitType" : 0
                              }
                            },
                            "enabled" : 1,
                            "offset" : {
                              "type" : "double",
                              "defaultValue" : 10.0,
                              "interp" : "linr",
                              "uiHints" : {
                                "userInterfaceType" : 0,
                                "unitType" : 0
                              }
                            },
                            "opacity" : {
                              "type" : "double",
                              "defaultValue" : 0.4,
                              "interp" : "linr",
                              "uiHints" : {
                                "userInterfaceType" : 0,
                                "unitType" : 0
                              }
                            }
                          }
                        }
                    ],
                    "start" : 870,
                    "duration" : 70,
                    "mediaStart" : 45,
                    "mediaDuration" : 70,
                    "scalar" : 1,
                    "metadata" : {
                      "WinSubProjectDisplayName" : "",
                      "clipSpeedAttribute" : false,
                      "default-HAlign" : "center",
                      "default-VAlign" : "center",
                      "default-text-attributes" : null,
                      "default-translation0" : 89.0000000000638,
                      "default-translation1" : -45.2500000000267
                    },
                    "animationTracks" : {

                    }
                  },
                  {
                    "id" : 36,
                    "_type" : "Callout",
                    "def" : {
                      "kind" : "remix",
                      "shape" : "speech-bubble2",
                      "style" : "basic",
                      "fill-color-blue" : {
                        "type" : "double",
                        "defaultValue" : 1.0,
                        "interp" : "linr"
                      },
                      "fill-color-green" : {
                        "type" : "double",
                        "defaultValue" : 1.0,
                        "interp" : "linr"
                      },
                      "fill-color-opacity" : {
                        "type" : "double",
                        "defaultValue" : 1.0,
                        "interp" : "linr"
                      },
                      "fill-color-red" : {
                        "type" : "double",
                        "defaultValue" : 1.0,
                        "interp" : "linr"
                      },
                      "height" : {
                        "type" : "double",
                        "defaultValue" : 89.4999999999467,
                        "interp" : "linr"
                      },
                      "stroke-color-blue" : {
                        "type" : "double",
                        "defaultValue" : 1.0,
                        "interp" : "linr"
                      },
                      "stroke-color-green" : {
                        "type" : "double",
                        "defaultValue" : 1.0,
                        "interp" : "linr"
                      },
                      "stroke-color-opacity" : {
                        "type" : "double",
                        "defaultValue" : 1.0,
                        "interp" : "linr"
                      },
                      "stroke-color-red" : {
                        "type" : "double",
                        "defaultValue" : 1.0,
                        "interp" : "linr"
                      },
                      "stroke-width" : {
                        "type" : "double",
                        "defaultValue" : 0.0,
                        "interp" : "linr"
                      },
                      "tail-x" : {
                        "type" : "double",
                        "defaultValue" : 153.000000000264,
                        "interp" : "linr"
                      },
                      "tail-y" : {
                        "type" : "double",
                        "defaultValue" : 207.750000000075,
                        "interp" : "linr"
                      },
                      "width" : {
                        "type" : "double",
                        "defaultValue" : 528.000000000128,
                        "interp" : "linr"
                      },
                      "word-wrap" : {
                        "type" : "double",
                        "defaultValue" : 1.0,
                        "interp" : "linr"
                      },
                      "fill-style" : "solid",
                      "horizontal-alignment" : "center",
                      "stroke-style" : "solid",
                      "text" : "1: Click Part-Outline\r 2: Right-Click in Selection-Window\rClick Edit-Element... in menu",
                      "vertical-alignment" : "center",
                      "font" : {
                        "color-blue" : {
                          "type" : "double",
                          "defaultValue" : 1.0,
                          "interp" : "linr"
                        },
                        "color-green" : {
                          "type" : "double",
                          "defaultValue" : 1.0,
                          "interp" : "linr"
                        },
                        "color-red" : {
                          "type" : "double",
                          "defaultValue" : 1.0,
                          "interp" : "linr"
                        },
                        "size" : {
                          "type" : "double",
                          "defaultValue" : 64.0,
                          "interp" : "linr"
                        },
                        "tracking" : {
                          "type" : "double",
                          "defaultValue" : 0.0,
                          "interp" : "linr"
                        },
                        "name" : "Montserrat",
                        "weight" : "Regular"
                      },
                      "textAttributes" : {
                        "type" : "textAttributeList",
                        "keyframes" : [
                          {
                            "time" : 0,
                            "value" : [{"name":"fgColor","rangeEnd":87,"rangeStart":21,"value":"(0,0,0,255)","valueType":"color"},{"name":"underline","rangeEnd":87,"rangeStart":0,"value":0,"valueType":"int"},{"name":"fontWeight","rangeEnd":87,"rangeStart":0,"value":400,"valueType":"int"},{"name":"fgColor","rangeEnd":21,"rangeStart":0,"value":"(249,0,0,255)","valueType":"color"},{"name":"fontItalic","rangeEnd":87,"rangeStart":0,"value":0,"valueType":"int"},{"name":"fontSize","rangeEnd":87,"rangeStart":0,"value":64,"valueType":"double"},{"name":"fontName","rangeEnd":87,"rangeStart":0,"value":"Montserrat","valueType":"string"},{"name":"strikethrough","rangeEnd":87,"rangeStart":0,"value":0,"valueType":"int"}],
                            "duration" : 0
                          }
                        ]
                      }
                    },
                    "attributes" : {
                      "autoRotateText" : true
                    },
                    "parameters" : {
                      "translation0" : {
                        "type" : "double",
                        "defaultValue" : -83.9999999997139,
                        "interp" : "eioe"
                      },
                      "translation1" : {
                        "type" : "double",
                        "defaultValue" : -156.250000000076,
                        "interp" : "eioe"
                      }
                    },
                    "effects" : [
                        {
                          "effectName" : "DropShadow",
                          "category" : "categoryVisualEffects",
                          "parameters" : {
                            "angle" : {
                              "type" : "double",
                              "defaultValue" : 5.49778714378214,
                              "interp" : "linr",
                              "uiHints" : {
                                "userInterfaceType" : 0,
                                "unitType" : 0
                              }
                            },
                            "blur" : {
                              "type" : "double",
                              "defaultValue" : 10.0,
                              "interp" : "linr",
                              "uiHints" : {
                                "userInterfaceType" : 0,
                                "unitType" : 0
                              }
                            },
                            "color-alpha" : {
                              "type" : "double",
                              "defaultValue" : 1.0,
                              "interp" : "linr",
                              "uiHints" : {
                                "userInterfaceType" : 0,
                                "unitType" : 0
                              }
                            },
                            "color-blue" : {
                              "type" : "double",
                              "defaultValue" : 0.1216,
                              "interp" : "linr",
                              "uiHints" : {
                                "userInterfaceType" : 0,
                                "unitType" : 0
                              }
                            },
                            "color-green" : {
                              "type" : "double",
                              "defaultValue" : 0.1216,
                              "interp" : "linr",
                              "uiHints" : {
                                "userInterfaceType" : 0,
                                "unitType" : 0
                              }
                            },
                            "color-red" : {
                              "type" : "double",
                              "defaultValue" : 0.1216,
                              "interp" : "linr",
                              "uiHints" : {
                                "userInterfaceType" : 0,
                                "unitType" : 0
                              }
                            },
                            "enabled" : 1,
                            "offset" : {
                              "type" : "double",
                              "defaultValue" : 10.0,
                              "interp" : "linr",
                              "uiHints" : {
                                "userInterfaceType" : 0,
                                "unitType" : 0
                              }
                            },
                            "opacity" : {
                              "type" : "double",
                              "defaultValue" : 0.4,
                              "interp" : "linr",
                              "uiHints" : {
                                "userInterfaceType" : 0,
                                "unitType" : 0
                              }
                            }
                          }
                        }
                    ],
                    "start" : 1049,
                    "duration" : 265,
                    "mediaStart" : 0,
                    "mediaDuration" : 265,
                    "scalar" : 1,
                    "metadata" : {
                      "WinSubProjectDisplayName" : "",
                      "clipSpeedAttribute" : false,
                      "default-HAlign" : "center",
                      "default-VAlign" : "center",
                      "default-fill-color-blue" : 0.258823529411765,
                      "default-fill-color-green" : 0.258823529411765,
                      "default-fill-color-red" : 0.988235294117647,
                      "default-text-attributes" : null,
                      "default-translation0" : 89.0000000000638,
                      "default-translation1" : -45.2500000000267
                    },
                    "animationTracks" : {

                    }
                  }
                ]
              },
              {
                "trackIndex" : 2,
                "medias" : [
                  {
                    "id" : 37,
                    "_type" : "Callout",
                    "def" : {
                      "kind" : "remix",
                      "shape" : "speech-bubble2",
                      "style" : "basic",
                      "fill-color-blue" : {
                        "type" : "double",
                        "defaultValue" : 0.172549019607843,
                        "interp" : "linr"
                      },
                      "fill-color-green" : {
                        "type" : "double",
                        "defaultValue" : 0.615686274509804,
                        "interp" : "linr"
                      },
                      "fill-color-opacity" : {
                        "type" : "double",
                        "defaultValue" : 1.0,
                        "interp" : "linr"
                      },
                      "fill-color-red" : {
                        "type" : "double",
                        "defaultValue" : 0.105882352941176,
                        "interp" : "linr"
                      },
                      "height" : {
                        "type" : "double",
                        "defaultValue" : 89.4999999999467,
                        "interp" : "linr"
                      },
                      "stroke-color-blue" : {
                        "type" : "double",
                        "defaultValue" : 1.0,
                        "interp" : "linr"
                      },
                      "stroke-color-green" : {
                        "type" : "double",
                        "defaultValue" : 1.0,
                        "interp" : "linr"
                      },
                      "stroke-color-opacity" : {
                        "type" : "double",
                        "defaultValue" : 1.0,
                        "interp" : "linr"
                      },
                      "stroke-color-red" : {
                        "type" : "double",
                        "defaultValue" : 1.0,
                        "interp" : "linr"
                      },
                      "stroke-width" : {
                        "type" : "double",
                        "defaultValue" : 0.0,
                        "interp" : "linr"
                      },
                      "tail-x" : {
                        "type" : "double",
                        "defaultValue" : 21.0000000002068,
                        "interp" : "linr"
                      },
                      "tail-y" : {
                        "type" : "double",
                        "defaultValue" : 217.750000000089,
                        "interp" : "linr"
                      },
                      "width" : {
                        "type" : "double",
                        "defaultValue" : 528.000000000128,
                        "interp" : "linr"
                      },
                      "word-wrap" : {
                        "type" : "double",
                        "defaultValue" : 1.0,
                        "interp" : "linr"
                      },
                      "fill-style" : "solid",
                      "horizontal-alignment" : "center",
                      "stroke-style" : "solid",
                      "text" : "1: Click 'Edit Part' icon\r2: Click 'Part-Outline'",
                      "vertical-alignment" : "center",
                      "font" : {
                        "color-blue" : {
                          "type" : "double",
                          "defaultValue" : 1.0,
                          "interp" : "linr"
                        },
                        "color-green" : {
                          "type" : "double",
                          "defaultValue" : 1.0,
                          "interp" : "linr"
                        },
                        "color-red" : {
                          "type" : "double",
                          "defaultValue" : 1.0,
                          "interp" : "linr"
                        },
                        "size" : {
                          "type" : "double",
                          "defaultValue" : 64.0,
                          "interp" : "linr"
                        },
                        "tracking" : {
                          "type" : "double",
                          "defaultValue" : 0.0,
                          "interp" : "linr"
                        },
                        "name" : "Montserrat",
                        "weight" : "Regular"
                      },
                      "textAttributes" : {
                        "type" : "textAttributeList",
                        "keyframes" : [
                          {
                            "time" : 0,
                            "value" : [{"name":"fontSize","rangeEnd":49,"rangeStart":0,"value":64,"valueType":"double"},{"name":"fontItalic","rangeEnd":49,"rangeStart":0,"value":0,"valueType":"int"},{"name":"strikethrough","rangeEnd":49,"rangeStart":0,"value":0,"valueType":"int"},{"name":"fgColor","rangeEnd":49,"rangeStart":0,"value":"(255,255,255,255)","valueType":"color"},{"name":"underline","rangeEnd":49,"rangeStart":0,"value":0,"valueType":"int"},{"name":"fontName","rangeEnd":49,"rangeStart":0,"value":"Montserrat","valueType":"string"},{"name":"fontWeight","rangeEnd":49,"rangeStart":0,"value":400,"valueType":"int"}],
                            "duration" : 0
                          }
                        ]
                      }
                    },
                    "attributes" : {
                      "autoRotateText" : true
                    },
                    "parameters" : {
                      "translation0" : {
                        "type" : "double",
                        "defaultValue" : 156.00000000016,
                        "interp" : "eioe"
                      },
                      "translation1" : {
                        "type" : "double",
                        "defaultValue" : -162.250000000062,
                        "interp" : "eioe"
                      }
                    },
                    "effects" : [
                        {
                          "effectName" : "DropShadow",
                          "category" : "categoryVisualEffects",
                          "parameters" : {
                            "angle" : {
                              "type" : "double",
                              "defaultValue" : 5.49778714378214,
                              "interp" : "linr",
                              "uiHints" : {
                                "userInterfaceType" : 0,
                                "unitType" : 0
                              }
                            },
                            "blur" : {
                              "type" : "double",
                              "defaultValue" : 10.0,
                              "interp" : "linr",
                              "uiHints" : {
                                "userInterfaceType" : 0,
                                "unitType" : 0
                              }
                            },
                            "color-alpha" : {
                              "type" : "double",
                              "defaultValue" : 1.0,
                              "interp" : "linr",
                              "uiHints" : {
                                "userInterfaceType" : 0,
                                "unitType" : 0
                              }
                            },
                            "color-blue" : {
                              "type" : "double",
                              "defaultValue" : 0.1216,
                              "interp" : "linr",
                              "uiHints" : {
                                "userInterfaceType" : 0,
                                "unitType" : 0
                              }
                            },
                            "color-green" : {
                              "type" : "double",
                              "defaultValue" : 0.1216,
                              "interp" : "linr",
                              "uiHints" : {
                                "userInterfaceType" : 0,
                                "unitType" : 0
                              }
                            },
                            "color-red" : {
                              "type" : "double",
                              "defaultValue" : 0.1216,
                              "interp" : "linr",
                              "uiHints" : {
                                "userInterfaceType" : 0,
                                "unitType" : 0
                              }
                            },
                            "enabled" : 1,
                            "offset" : {
                              "type" : "double",
                              "defaultValue" : 10.0,
                              "interp" : "linr",
                              "uiHints" : {
                                "userInterfaceType" : 0,
                                "unitType" : 0
                              }
                            },
                            "opacity" : {
                              "type" : "double",
                              "defaultValue" : 0.4,
                              "interp" : "linr",
                              "uiHints" : {
                                "userInterfaceType" : 0,
                                "unitType" : 0
                              }
                            }
                          }
                        }
                    ],
                    "start" : 215,
                    "duration" : 117,
                    "mediaStart" : 0,
                    "mediaDuration" : 117,
                    "scalar" : 1,
                    "metadata" : {
                      "WinSubProjectDisplayName" : "",
                      "clipSpeedAttribute" : false,
                      "default-HAlign" : "center",
                      "default-VAlign" : "center",
                      "default-fill-color-blue" : 0.258823529411765,
                      "default-fill-color-green" : 0.258823529411765,
                      "default-fill-color-red" : 0.988235294117647,
                      "default-text-attributes" : null,
                      "default-translation0" : 89.0000000000638,
                      "default-translation1" : -45.2500000000267
                    },
                    "animationTracks" : {

                    }
                  },
                  {
                    "id" : 38,
                    "_type" : "Callout",
                    "def" : {
                      "kind" : "remix",
                      "shape" : "speech-bubble2",
                      "style" : "basic",
                      "fill-color-blue" : {
                        "type" : "double",
                        "defaultValue" : 0.258823529411765,
                        "interp" : "linr"
                      },
                      "fill-color-green" : {
                        "type" : "double",
                        "defaultValue" : 0.258823529411765,
                        "interp" : "linr"
                      },
                      "fill-color-opacity" : {
                        "type" : "double",
                        "defaultValue" : 1.0,
                        "interp" : "linr"
                      },
                      "fill-color-red" : {
                        "type" : "double",
                        "defaultValue" : 0.988235294117647,
                        "interp" : "linr"
                      },
                      "height" : {
                        "type" : "double",
                        "defaultValue" : 112.499999999971,
                        "interp" : "linr"
                      },
                      "stroke-color-blue" : {
                        "type" : "double",
                        "defaultValue" : 1.0,
                        "interp" : "linr"
                      },
                      "stroke-color-green" : {
                        "type" : "double",
                        "defaultValue" : 1.0,
                        "interp" : "linr"
                      },
                      "stroke-color-opacity" : {
                        "type" : "double",
                        "defaultValue" : 1.0,
                        "interp" : "linr"
                      },
                      "stroke-color-red" : {
                        "type" : "double",
                        "defaultValue" : 1.0,
                        "interp" : "linr"
                      },
                      "stroke-width" : {
                        "type" : "double",
                        "defaultValue" : 0.0,
                        "interp" : "linr"
                      },
                      "tail-x" : {
                        "type" : "double",
                        "defaultValue" : 18.50000000038,
                        "interp" : "linr"
                      },
                      "tail-y" : {
                        "type" : "double",
                        "defaultValue" : 232.250000000122,
                        "interp" : "linr"
                      },
                      "width" : {
                        "type" : "double",
                        "defaultValue" : 348.999999999991,
                        "interp" : "linr"
                      },
                      "word-wrap" : {
                        "type" : "double",
                        "defaultValue" : 1.0,
                        "interp" : "linr"
                      },
                      "fill-style" : "solid",
                      "horizontal-alignment" : "center",
                      "stroke-style" : "solid",
                      "text" : "Exit 'Part-Editor'\r1: Click 'Edit Part' icon again",
                      "vertical-alignment" : "center",
                      "font" : {
                        "color-blue" : {
                          "type" : "double",
                          "defaultValue" : 1.0,
                          "interp" : "linr"
                        },
                        "color-green" : {
                          "type" : "double",
                          "defaultValue" : 1.0,
                          "interp" : "linr"
                        },
                        "color-red" : {
                          "type" : "double",
                          "defaultValue" : 1.0,
                          "interp" : "linr"
                        },
                        "size" : {
                          "type" : "double",
                          "defaultValue" : 64.0,
                          "interp" : "linr"
                        },
                        "tracking" : {
                          "type" : "double",
                          "defaultValue" : 0.0,
                          "interp" : "linr"
                        },
                        "name" : "Montserrat",
                        "weight" : "Regular"
                      },
                      "textAttributes" : {
                        "type" : "textAttributeList",
                        "keyframes" : [
                          {
                            "time" : 0,
                            "value" : [{"name":"fontWeight","rangeEnd":50,"rangeStart":0,"value":400,"valueType":"int"},{"name":"underline","rangeEnd":50,"rangeStart":0,"value":0,"valueType":"int"},{"name":"strikethrough","rangeEnd":50,"rangeStart":0,"value":0,"valueType":"int"},{"name":"fgColor","rangeEnd":50,"rangeStart":0,"value":"(255,255,255,255)","valueType":"color"},{"name":"fontName","rangeEnd":50,"rangeStart":0,"value":"Montserrat","valueType":"string"},{"name":"fontItalic","rangeEnd":50,"rangeStart":0,"value":0,"valueType":"int"},{"name":"fontSize","rangeEnd":50,"rangeStart":0,"value":64,"valueType":"double"}],
                            "duration" : 0
                          }
                        ]
                      }
                    },
                    "attributes" : {
                      "autoRotateText" : true
                    },
                    "parameters" : {
                      "translation0" : {
                        "type" : "double",
                        "defaultValue" : -174.499999999909,
                        "interp" : "eioe"
                      },
                      "translation1" : {
                        "type" : "double",
                        "defaultValue" : -56.2500000000368,
                        "interp" : "eioe"
                      }
                    },
                    "effects" : [
                        {
                          "effectName" : "DropShadow",
                          "category" : "categoryVisualEffects",
                          "parameters" : {
                            "angle" : {
                              "type" : "double",
                              "defaultValue" : 5.49778714378214,
                              "interp" : "linr",
                              "uiHints" : {
                                "userInterfaceType" : 0,
                                "unitType" : 0
                              }
                            },
                            "blur" : {
                              "type" : "double",
                              "defaultValue" : 10.0,
                              "interp" : "linr",
                              "uiHints" : {
                                "userInterfaceType" : 0,
                                "unitType" : 0
                              }
                            },
                            "color-alpha" : {
                              "type" : "double",
                              "defaultValue" : 1.0,
                              "interp" : "linr",
                              "uiHints" : {
                                "userInterfaceType" : 0,
                                "unitType" : 0
                              }
                            },
                            "color-blue" : {
                              "type" : "double",
                              "defaultValue" : 0.1216,
                              "interp" : "linr",
                              "uiHints" : {
                                "userInterfaceType" : 0,
                                "unitType" : 0
                              }
                            },
                            "color-green" : {
                              "type" : "double",
                              "defaultValue" : 0.1216,
                              "interp" : "linr",
                              "uiHints" : {
                                "userInterfaceType" : 0,
                                "unitType" : 0
                              }
                            },
                            "color-red" : {
                              "type" : "double",
                              "defaultValue" : 0.1216,
                              "interp" : "linr",
                              "uiHints" : {
                                "userInterfaceType" : 0,
                                "unitType" : 0
                              }
                            },
                            "enabled" : 1,
                            "offset" : {
                              "type" : "double",
                              "defaultValue" : 10.0,
                              "interp" : "linr",
                              "uiHints" : {
                                "userInterfaceType" : 0,
                                "unitType" : 0
                              }
                            },
                            "opacity" : {
                              "type" : "double",
                              "defaultValue" : 0.4,
                              "interp" : "linr",
                              "uiHints" : {
                                "userInterfaceType" : 0,
                                "unitType" : 0
                              }
                            }
                          }
                        }
                    ],
                    "start" : 442,
                    "duration" : 145,
                    "mediaStart" : 45,
                    "mediaDuration" : 145,
                    "scalar" : 1,
                    "metadata" : {
                      "WinSubProjectDisplayName" : "",
                      "clipSpeedAttribute" : false,
                      "default-HAlign" : "center",
                      "default-VAlign" : "center",
                      "default-text-attributes" : null,
                      "default-translation0" : 89.0000000000638,
                      "default-translation1" : -45.2500000000267
                    },
                    "animationTracks" : {

                    }
                  },
                  {
                    "id" : 39,
                    "_type" : "Callout",
                    "def" : {
                      "kind" : "remix",
                      "shape" : "text-rectangle",
                      "style" : "basic",
                      "fill-color-blue" : {
                        "type" : "double",
                        "defaultValue" : 1.0,
                        "interp" : "linr"
                      },
                      "fill-color-green" : {
                        "type" : "double",
                        "defaultValue" : 1.0,
                        "interp" : "linr"
                      },
                      "fill-color-opacity" : {
                        "type" : "double",
                        "defaultValue" : 1.0,
                        "interp" : "linr"
                      },
                      "fill-color-red" : {
                        "type" : "double",
                        "defaultValue" : 1.0,
                        "interp" : "linr"
                      },
                      "height" : {
                        "type" : "double",
                        "defaultValue" : 122.999999999952,
                        "interp" : "linr"
                      },
                      "stroke-color-blue" : {
                        "type" : "double",
                        "defaultValue" : 0.56078431372549,
                        "interp" : "linr"
                      },
                      "stroke-color-green" : {
                        "type" : "double",
                        "defaultValue" : 0.686274509803922,
                        "interp" : "linr"
                      },
                      "stroke-color-opacity" : {
                        "type" : "double",
                        "defaultValue" : 1.0,
                        "interp" : "linr"
                      },
                      "stroke-color-red" : {
                        "type" : "double",
                        "defaultValue" : 0.0196078431372549,
                        "interp" : "linr"
                      },
                      "stroke-width" : {
                        "type" : "double",
                        "defaultValue" : 2.0,
                        "interp" : "linr"
                      },
                      "tail-x" : {
                        "type" : "double",
                        "defaultValue" : -69.5000000000428,
                        "interp" : "linr"
                      },
                      "tail-y" : {
                        "type" : "double",
                        "defaultValue" : -6.49999999997598,
                        "interp" : "linr"
                      },
                      "width" : {
                        "type" : "double",
                        "defaultValue" : 210.999999999914,
                        "interp" : "linr"
                      },
                      "word-wrap" : {
                        "type" : "double",
                        "defaultValue" : 1.0,
                        "interp" : "linr"
                      },
                      "fill-style" : "solid",
                      "horizontal-alignment" : "center",
                      "stroke-style" : "solid",
                      "text" : "Wait \r3-4 secs",
                      "vertical-alignment" : "center",
                      "font" : {
                        "color-blue" : {
                          "type" : "double",
                          "defaultValue" : 0.266666666666667,
                          "interp" : "linr"
                        },
                        "color-green" : {
                          "type" : "double",
                          "defaultValue" : 0.231372549019608,
                          "interp" : "linr"
                        },
                        "color-opacity" : {
                          "type" : "double",
                          "defaultValue" : 1.0,
                          "interp" : "linr"
                        },
                        "color-red" : {
                          "type" : "double",
                          "defaultValue" : 0.184313725490196,
                          "interp" : "linr"
                        },
                        "size" : {
                          "type" : "double",
                          "defaultValue" : 64.0,
                          "interp" : "linr"
                        },
                        "tracking" : {
                          "type" : "double",
                          "defaultValue" : 0.0,
                          "interp" : "linr"
                        },
                        "name" : "Montserrat",
                        "weight" : "Regular"
                      },
                      "textAttributes" : {
                        "type" : "textAttributeList",
                        "keyframes" : [
                          {
                            "time" : 0,
                            "value" : [{"name":"fontItalic","rangeEnd":14,"rangeStart":0,"value":0,"valueType":"int"},{"name":"strikethrough","rangeEnd":14,"rangeStart":0,"value":0,"valueType":"int"},{"name":"fgColor","rangeEnd":14,"rangeStart":0,"value":"(47,59,68,255)","valueType":"color"},{"name":"fontName","rangeEnd":14,"rangeStart":0,"value":"Montserrat","valueType":"string"},{"name":"underline","rangeEnd":14,"rangeStart":0,"value":0,"valueType":"int"},{"name":"fontSize","rangeEnd":14,"rangeStart":0,"value":64,"valueType":"double"},{"name":"fontWeight","rangeEnd":14,"rangeStart":0,"value":400,"valueType":"int"}],
                            "duration" : 0
                          }
                        ]
                      }
                    },
                    "attributes" : {
                      "autoRotateText" : true
                    },
                    "parameters" : {
                      "translation0" : {
                        "type" : "double",
                        "defaultValue" : 259.50000000005,
                        "interp" : "eioe"
                      },
                      "translation1" : {
                        "type" : "double",
                        "defaultValue" : 187.499999999955,
                        "interp" : "eioe"
                      }
                    },
                    "effects" : [
                        {
                          "effectName" : "DropShadow",
                          "category" : "categoryVisualEffects",
                          "parameters" : {
                            "angle" : {
                              "type" : "double",
                              "defaultValue" : 5.49778714378214,
                              "interp" : "linr",
                              "uiHints" : {
                                "userInterfaceType" : 0,
                                "unitType" : 0
                              }
                            },
                            "blur" : {
                              "type" : "double",
                              "defaultValue" : 10.0,
                              "interp" : "linr",
                              "uiHints" : {
                                "userInterfaceType" : 0,
                                "unitType" : 0
                              }
                            },
                            "color-alpha" : {
                              "type" : "double",
                              "defaultValue" : 1.0,
                              "interp" : "linr",
                              "uiHints" : {
                                "userInterfaceType" : 0,
                                "unitType" : 0
                              }
                            },
                            "color-blue" : {
                              "type" : "double",
                              "defaultValue" : 0.1216,
                              "interp" : "linr",
                              "uiHints" : {
                                "userInterfaceType" : 0,
                                "unitType" : 0
                              }
                            },
                            "color-green" : {
                              "type" : "double",
                              "defaultValue" : 0.1216,
                              "interp" : "linr",
                              "uiHints" : {
                                "userInterfaceType" : 0,
                                "unitType" : 0
                              }
                            },
                            "color-red" : {
                              "type" : "double",
                              "defaultValue" : 0.1216,
                              "interp" : "linr",
                              "uiHints" : {
                                "userInterfaceType" : 0,
                                "unitType" : 0
                              }
                            },
                            "enabled" : 1,
                            "offset" : {
                              "type" : "double",
                              "defaultValue" : 10.0,
                              "interp" : "linr",
                              "uiHints" : {
                                "userInterfaceType" : 0,
                                "unitType" : 0
                              }
                            },
                            "opacity" : {
                              "type" : "double",
                              "defaultValue" : 0.4,
                              "interp" : "linr",
                              "uiHints" : {
                                "userInterfaceType" : 0,
                                "unitType" : 0
                              }
                            }
                          }
                        }
                    ],
                    "start" : 770,
                    "duration" : 56,
                    "mediaStart" : 43,
                    "mediaDuration" : 56,
                    "scalar" : 1,
                    "metadata" : {
                      "WinSubProjectDisplayName" : "",
                      "clipSpeedAttribute" : false,
                      "default-HAlign" : "center",
                      "default-VAlign" : "center",
                      "default-text-attributes" : null,
                      "default-translation0" : 69.5000000000428,
                      "default-translation1" : -13.500000000024
                    },
                    "animationTracks" : {

                    }
                  },
                  {
                    "id" : 40,
                    "_type" : "Callout",
                    "def" : {
                      "kind" : "remix",
                      "shape" : "speech-bubble2",
                      "style" : "basic",
                      "fill-color-blue" : {
                        "type" : "double",
                        "defaultValue" : 1.0,
                        "interp" : "linr"
                      },
                      "fill-color-green" : {
                        "type" : "double",
                        "defaultValue" : 1.0,
                        "interp" : "linr"
                      },
                      "fill-color-opacity" : {
                        "type" : "double",
                        "defaultValue" : 1.0,
                        "interp" : "linr"
                      },
                      "fill-color-red" : {
                        "type" : "double",
                        "defaultValue" : 1.0,
                        "interp" : "linr"
                      },
                      "height" : {
                        "type" : "double",
                        "defaultValue" : 89.4999999999467,
                        "interp" : "linr"
                      },
                      "stroke-color-blue" : {
                        "type" : "double",
                        "defaultValue" : 1.0,
                        "interp" : "linr"
                      },
                      "stroke-color-green" : {
                        "type" : "double",
                        "defaultValue" : 1.0,
                        "interp" : "linr"
                      },
                      "stroke-color-opacity" : {
                        "type" : "double",
                        "defaultValue" : 1.0,
                        "interp" : "linr"
                      },
                      "stroke-color-red" : {
                        "type" : "double",
                        "defaultValue" : 1.0,
                        "interp" : "linr"
                      },
                      "stroke-width" : {
                        "type" : "double",
                        "defaultValue" : 0.0,
                        "interp" : "linr"
                      },
                      "tail-x" : {
                        "type" : "double",
                        "defaultValue" : -242.999999999709,
                        "interp" : "linr"
                      },
                      "tail-y" : {
                        "type" : "double",
                        "defaultValue" : 333.750000000072,
                        "interp" : "linr"
                      },
                      "width" : {
                        "type" : "double",
                        "defaultValue" : 528.000000000128,
                        "interp" : "linr"
                      },
                      "word-wrap" : {
                        "type" : "double",
                        "defaultValue" : 1.0,
                        "interp" : "linr"
                      },
                      "fill-style" : "solid",
                      "horizontal-alignment" : "center",
                      "stroke-style" : "solid",
                      "text" : "1: Click Part-Outline\r 2: Right-Click in Selection-Window\rClick Edit-Element... in menu",
                      "vertical-alignment" : "center",
                      "font" : {
                        "color-blue" : {
                          "type" : "double",
                          "defaultValue" : 1.0,
                          "interp" : "linr"
                        },
                        "color-green" : {
                          "type" : "double",
                          "defaultValue" : 1.0,
                          "interp" : "linr"
                        },
                        "color-red" : {
                          "type" : "double",
                          "defaultValue" : 1.0,
                          "interp" : "linr"
                        },
                        "size" : {
                          "type" : "double",
                          "defaultValue" : 64.0,
                          "interp" : "linr"
                        },
                        "tracking" : {
                          "type" : "double",
                          "defaultValue" : 0.0,
                          "interp" : "linr"
                        },
                        "name" : "Montserrat",
                        "weight" : "Regular"
                      },
                      "textAttributes" : {
                        "type" : "textAttributeList",
                        "keyframes" : [
                          {
                            "time" : 0,
                            "value" : [{"name":"fontName","rangeEnd":87,"rangeStart":0,"value":"Montserrat","valueType":"string"},{"name":"fontWeight","rangeEnd":87,"rangeStart":0,"value":400,"valueType":"int"},{"name":"fontSize","rangeEnd":87,"rangeStart":0,"value":64,"valueType":"double"},{"name":"fgColor","rangeEnd":87,"rangeStart":57,"value":"(0,0,0,255)","valueType":"color"},{"name":"strikethrough","rangeEnd":87,"rangeStart":0,"value":0,"valueType":"int"},{"name":"fgColor","rangeEnd":23,"rangeStart":0,"value":"(0,0,0,255)","valueType":"color"},{"name":"fgColor","rangeEnd":57,"rangeStart":23,"value":"(255,0,0,255)","valueType":"color"},{"name":"underline","rangeEnd":87,"rangeStart":0,"value":0,"valueType":"int"},{"name":"fontItalic","rangeEnd":87,"rangeStart":0,"value":0,"valueType":"int"}],
                            "duration" : 0
                          }
                        ]
                      }
                    },
                    "attributes" : {
                      "autoRotateText" : true
                    },
                    "parameters" : {
                      "translation0" : {
                        "type" : "double",
                        "defaultValue" : -83.9999999997139,
                        "interp" : "eioe"
                      },
                      "translation1" : {
                        "type" : "double",
                        "defaultValue" : -156.250000000076,
                        "interp" : "eioe"
                      }
                    },
                    "effects" : [
                        {
                          "effectName" : "DropShadow",
                          "category" : "categoryVisualEffects",
                          "parameters" : {
                            "angle" : {
                              "type" : "double",
                              "defaultValue" : 5.49778714378214,
                              "interp" : "linr",
                              "uiHints" : {
                                "userInterfaceType" : 0,
                                "unitType" : 0
                              }
                            },
                            "blur" : {
                              "type" : "double",
                              "defaultValue" : 10.0,
                              "interp" : "linr",
                              "uiHints" : {
                                "userInterfaceType" : 0,
                                "unitType" : 0
                              }
                            },
                            "color-alpha" : {
                              "type" : "double",
                              "defaultValue" : 1.0,
                              "interp" : "linr",
                              "uiHints" : {
                                "userInterfaceType" : 0,
                                "unitType" : 0
                              }
                            },
                            "color-blue" : {
                              "type" : "double",
                              "defaultValue" : 0.1216,
                              "interp" : "linr",
                              "uiHints" : {
                                "userInterfaceType" : 0,
                                "unitType" : 0
                              }
                            },
                            "color-green" : {
                              "type" : "double",
                              "defaultValue" : 0.1216,
                              "interp" : "linr",
                              "uiHints" : {
                                "userInterfaceType" : 0,
                                "unitType" : 0
                              }
                            },
                            "color-red" : {
                              "type" : "double",
                              "defaultValue" : 0.1216,
                              "interp" : "linr",
                              "uiHints" : {
                                "userInterfaceType" : 0,
                                "unitType" : 0
                              }
                            },
                            "enabled" : 1,
                            "offset" : {
                              "type" : "double",
                              "defaultValue" : 10.0,
                              "interp" : "linr",
                              "uiHints" : {
                                "userInterfaceType" : 0,
                                "unitType" : 0
                              }
                            },
                            "opacity" : {
                              "type" : "double",
                              "defaultValue" : 0.4,
                              "interp" : "linr",
                              "uiHints" : {
                                "userInterfaceType" : 0,
                                "unitType" : 0
                              }
                            }
                          }
                        }
                    ],
                    "start" : 1104,
                    "duration" : 210,
                    "mediaStart" : 0,
                    "mediaDuration" : 210,
                    "scalar" : 1,
                    "metadata" : {
                      "WinSubProjectDisplayName" : "",
                      "clipSpeedAttribute" : false,
                      "default-HAlign" : "center",
                      "default-VAlign" : "center",
                      "default-fill-color-blue" : 0.258823529411765,
                      "default-fill-color-green" : 0.258823529411765,
                      "default-fill-color-red" : 0.988235294117647,
                      "default-text-attributes" : null,
                      "default-translation0" : 89.0000000000638,
                      "default-translation1" : -45.2500000000267
                    },
                    "animationTracks" : {

                    }
                  },
                  {
                    "id" : 41,
                    "_type" : "Callout",
                    "def" : {
                      "kind" : "remix",
                      "shape" : "text-rectangle",
                      "style" : "basic",
                      "fill-color-blue" : {
                        "type" : "double",
                        "defaultValue" : 1.0,
                        "interp" : "linr"
                      },
                      "fill-color-green" : {
                        "type" : "double",
                        "defaultValue" : 1.0,
                        "interp" : "linr"
                      },
                      "fill-color-opacity" : {
                        "type" : "double",
                        "defaultValue" : 1.0,
                        "interp" : "linr"
                      },
                      "fill-color-red" : {
                        "type" : "double",
                        "defaultValue" : 1.0,
                        "interp" : "linr"
                      },
                      "height" : {
                        "type" : "double",
                        "defaultValue" : 122.999999999952,
                        "interp" : "linr"
                      },
                      "stroke-color-blue" : {
                        "type" : "double",
                        "defaultValue" : 0.56078431372549,
                        "interp" : "linr"
                      },
                      "stroke-color-green" : {
                        "type" : "double",
                        "defaultValue" : 0.686274509803922,
                        "interp" : "linr"
                      },
                      "stroke-color-opacity" : {
                        "type" : "double",
                        "defaultValue" : 1.0,
                        "interp" : "linr"
                      },
                      "stroke-color-red" : {
                        "type" : "double",
                        "defaultValue" : 0.0196078431372549,
                        "interp" : "linr"
                      },
                      "stroke-width" : {
                        "type" : "double",
                        "defaultValue" : 2.0,
                        "interp" : "linr"
                      },
                      "tail-x" : {
                        "type" : "double",
                        "defaultValue" : -69.5000000000428,
                        "interp" : "linr"
                      },
                      "tail-y" : {
                        "type" : "double",
                        "defaultValue" : -6.49999999997598,
                        "interp" : "linr"
                      },
                      "width" : {
                        "type" : "double",
                        "defaultValue" : 210.999999999914,
                        "interp" : "linr"
                      },
                      "word-wrap" : {
                        "type" : "double",
                        "defaultValue" : 1.0,
                        "interp" : "linr"
                      },
                      "fill-style" : "solid",
                      "horizontal-alignment" : "center",
                      "stroke-style" : "solid",
                      "text" : "Wait \r3-4 secs",
                      "vertical-alignment" : "center",
                      "font" : {
                        "color-blue" : {
                          "type" : "double",
                          "defaultValue" : 0.266666666666667,
                          "interp" : "linr"
                        },
                        "color-green" : {
                          "type" : "double",
                          "defaultValue" : 0.231372549019608,
                          "interp" : "linr"
                        },
                        "color-opacity" : {
                          "type" : "double",
                          "defaultValue" : 1.0,
                          "interp" : "linr"
                        },
                        "color-red" : {
                          "type" : "double",
                          "defaultValue" : 0.184313725490196,
                          "interp" : "linr"
                        },
                        "size" : {
                          "type" : "double",
                          "defaultValue" : 64.0,
                          "interp" : "linr"
                        },
                        "tracking" : {
                          "type" : "double",
                          "defaultValue" : 0.0,
                          "interp" : "linr"
                        },
                        "name" : "Montserrat",
                        "weight" : "Regular"
                      },
                      "textAttributes" : {
                        "type" : "textAttributeList",
                        "keyframes" : [
                          {
                            "time" : 0,
                            "value" : [{"name":"fontItalic","rangeEnd":14,"rangeStart":0,"value":0,"valueType":"int"},{"name":"strikethrough","rangeEnd":14,"rangeStart":0,"value":0,"valueType":"int"},{"name":"fgColor","rangeEnd":14,"rangeStart":0,"value":"(47,59,68,255)","valueType":"color"},{"name":"fontName","rangeEnd":14,"rangeStart":0,"value":"Montserrat","valueType":"string"},{"name":"underline","rangeEnd":14,"rangeStart":0,"value":0,"valueType":"int"},{"name":"fontSize","rangeEnd":14,"rangeStart":0,"value":64,"valueType":"double"},{"name":"fontWeight","rangeEnd":14,"rangeStart":0,"value":400,"valueType":"int"}],
                            "duration" : 0
                          }
                        ]
                      }
                    },
                    "attributes" : {
                      "autoRotateText" : true
                    },
                    "parameters" : {
                      "translation0" : {
                        "type" : "double",
                        "defaultValue" : 249.500000000058,
                        "interp" : "eioe"
                      },
                      "translation1" : {
                        "type" : "double",
                        "defaultValue" : 180.499999999977,
                        "interp" : "eioe"
                      }
                    },
                    "effects" : [
                        {
                          "effectName" : "DropShadow",
                          "category" : "categoryVisualEffects",
                          "parameters" : {
                            "angle" : {
                              "type" : "double",
                              "defaultValue" : 5.49778714378214,
                              "interp" : "linr",
                              "uiHints" : {
                                "userInterfaceType" : 0,
                                "unitType" : 0
                              }
                            },
                            "blur" : {
                              "type" : "double",
                              "defaultValue" : 10.0,
                              "interp" : "linr",
                              "uiHints" : {
                                "userInterfaceType" : 0,
                                "unitType" : 0
                              }
                            },
                            "color-alpha" : {
                              "type" : "double",
                              "defaultValue" : 1.0,
                              "interp" : "linr",
                              "uiHints" : {
                                "userInterfaceType" : 0,
                                "unitType" : 0
                              }
                            },
                            "color-blue" : {
                              "type" : "double",
                              "defaultValue" : 0.1216,
                              "interp" : "linr",
                              "uiHints" : {
                                "userInterfaceType" : 0,
                                "unitType" : 0
                              }
                            },
                            "color-green" : {
                              "type" : "double",
                              "defaultValue" : 0.1216,
                              "interp" : "linr",
                              "uiHints" : {
                                "userInterfaceType" : 0,
                                "unitType" : 0
                              }
                            },
                            "color-red" : {
                              "type" : "double",
                              "defaultValue" : 0.1216,
                              "interp" : "linr",
                              "uiHints" : {
                                "userInterfaceType" : 0,
                                "unitType" : 0
                              }
                            },
                            "enabled" : 1,
                            "offset" : {
                              "type" : "double",
                              "defaultValue" : 10.0,
                              "interp" : "linr",
                              "uiHints" : {
                                "userInterfaceType" : 0,
                                "unitType" : 0
                              }
                            },
                            "opacity" : {
                              "type" : "double",
                              "defaultValue" : 0.4,
                              "interp" : "linr",
                              "uiHints" : {
                                "userInterfaceType" : 0,
                                "unitType" : 0
                              }
                            }
                          }
                        }
                    ],
                    "start" : 1332,
                    "duration" : 90,
                    "mediaStart" : 0,
                    "mediaDuration" : 90,
                    "scalar" : 1,
                    "metadata" : {
                      "WinSubProjectDisplayName" : "",
                      "clipSpeedAttribute" : false,
                      "default-HAlign" : "center",
                      "default-VAlign" : "center",
                      "default-text-attributes" : null,
                      "default-translation0" : 69.5000000000428,
                      "default-translation1" : -13.500000000024
                    },
                    "animationTracks" : {

                    }
                  }
                ]
              },
              {
                "trackIndex" : 3,
                "medias" : [
                  {
                    "id" : 42,
                    "_type" : "Callout",
                    "def" : {
                      "kind" : "remix",
                      "shape" : "text-rectangle",
                      "style" : "basic",
                      "fill-color-blue" : 1.0,
                      "fill-color-green" : 1.0,
                      "fill-color-opacity" : 1.0,
                      "fill-color-red" : 1.0,
                      "height" : 122.999999999952,
                      "stroke-color-blue" : 0.56078431372549,
                      "stroke-color-green" : 0.686274509803922,
                      "stroke-color-opacity" : 1.0,
                      "stroke-color-red" : 0.0196078431372549,
                      "stroke-width" : 2.0,
                      "tail-x" : -69.5000000000428,
                      "tail-y" : -6.49999999997598,
                      "width" : 210.999999999914,
                      "word-wrap" : 1.0,
                      "fill-style" : "solid",
                      "horizontal-alignment" : "center",
                      "stroke-style" : "solid",
                      "text" : "Wait \r3-4 secs",
                      "vertical-alignment" : "center",
                      "font" : {
                        "color-blue" : 0.266666666666667,
                        "color-green" : 0.231372549019608,
                        "color-opacity" : 1.0,
                        "color-red" : 0.184313725490196,
                        "size" : 64.0,
                        "tracking" : 0.0,
                        "name" : "Montserrat",
                        "weight" : "Regular"
                      },
                      "textAttributes" : {
                        "type" : "textAttributeList",
                        "keyframes" : [
                          {
                            "time" : 0,
                            "value" : [{"name":"fontItalic","rangeEnd":14,"rangeStart":0,"value":0,"valueType":"int"},{"name":"strikethrough","rangeEnd":14,"rangeStart":0,"value":0,"valueType":"int"},{"name":"fgColor","rangeEnd":14,"rangeStart":0,"value":"(47,59,68,255)","valueType":"color"},{"name":"fontName","rangeEnd":14,"rangeStart":0,"value":"Montserrat","valueType":"string"},{"name":"underline","rangeEnd":14,"rangeStart":0,"value":0,"valueType":"int"},{"name":"fontSize","rangeEnd":14,"rangeStart":0,"value":64,"valueType":"double"},{"name":"fontWeight","rangeEnd":14,"rangeStart":0,"value":400,"valueType":"int"}],
                            "duration" : 0
                          }
                        ]
                      }
                    },
                    "attributes" : {
                      "autoRotateText" : true
                    },
                    "parameters" : {
                      "translation0" : 249.500000000058,
                      "translation1" : 180.499999999977
                    },
                    "effects" : [
                        {
                          "effectName" : "DropShadow",
                          "category" : "categoryVisualEffects",
                          "parameters" : {
                            "angle" : 5.49778714378214,
                            "blur" : 10.0,
                            "color-alpha" : 1.0,
                            "color-blue" : 0.1216,
                            "color-green" : 0.1216,
                            "color-red" : 0.1216,
                            "enabled" : 1,
                            "offset" : 10.0,
                            "opacity" : 0.4
                          }
                        }
                    ],
                    "start" : 305,
                    "duration" : 90,
                    "mediaStart" : 0,
                    "mediaDuration" : 90,
                    "scalar" : 1,
                    "metadata" : {
                      "WinSubProjectDisplayName" : "",
                      "clipSpeedAttribute" : false,
                      "default-HAlign" : "center",
                      "default-VAlign" : "center",
                      "default-text-attributes" : null,
                      "default-translation0" : 69.5000000000428,
                      "default-translation1" : -13.500000000024
                    },
                    "animationTracks" : {

                    }
                  },
                  {
                    "id" : 43,
                    "_type" : "Callout",
                    "def" : {
                      "kind" : "remix",
                      "shape" : "speech-bubble2",
                      "style" : "basic",
                      "fill-color-blue" : {
                        "type" : "double",
                        "defaultValue" : 1.0,
                        "interp" : "linr"
                      },
                      "fill-color-green" : {
                        "type" : "double",
                        "defaultValue" : 1.0,
                        "interp" : "linr"
                      },
                      "fill-color-opacity" : {
                        "type" : "double",
                        "defaultValue" : 1.0,
                        "interp" : "linr"
                      },
                      "fill-color-red" : {
                        "type" : "double",
                        "defaultValue" : 1.0,
                        "interp" : "linr"
                      },
                      "height" : {
                        "type" : "double",
                        "defaultValue" : 89.4999999999467,
                        "interp" : "linr"
                      },
                      "stroke-color-blue" : {
                        "type" : "double",
                        "defaultValue" : 1.0,
                        "interp" : "linr"
                      },
                      "stroke-color-green" : {
                        "type" : "double",
                        "defaultValue" : 1.0,
                        "interp" : "linr"
                      },
                      "stroke-color-opacity" : {
                        "type" : "double",
                        "defaultValue" : 1.0,
                        "interp" : "linr"
                      },
                      "stroke-color-red" : {
                        "type" : "double",
                        "defaultValue" : 1.0,
                        "interp" : "linr"
                      },
                      "stroke-width" : {
                        "type" : "double",
                        "defaultValue" : 0.0,
                        "interp" : "linr"
                      },
                      "tail-x" : {
                        "type" : "double",
                        "defaultValue" : -98.9999999996664,
                        "interp" : "linr"
                      },
                      "tail-y" : {
                        "type" : "double",
                        "defaultValue" : 337.750000000078,
                        "interp" : "linr"
                      },
                      "width" : {
                        "type" : "double",
                        "defaultValue" : 528.000000000128,
                        "interp" : "linr"
                      },
                      "word-wrap" : {
                        "type" : "double",
                        "defaultValue" : 1.0,
                        "interp" : "linr"
                      },
                      "fill-style" : "solid",
                      "horizontal-alignment" : "center",
                      "stroke-style" : "solid",
                      "text" : "1: Click Part-Outline\r 2: Right-Click in Selection-Window\r3: Click 'Edit-Element...' in menu",
                      "vertical-alignment" : "center",
                      "font" : {
                        "color-blue" : {
                          "type" : "double",
                          "defaultValue" : 1.0,
                          "interp" : "linr"
                        },
                        "color-green" : {
                          "type" : "double",
                          "defaultValue" : 1.0,
                          "interp" : "linr"
                        },
                        "color-red" : {
                          "type" : "double",
                          "defaultValue" : 1.0,
                          "interp" : "linr"
                        },
                        "size" : {
                          "type" : "double",
                          "defaultValue" : 64.0,
                          "interp" : "linr"
                        },
                        "tracking" : {
                          "type" : "double",
                          "defaultValue" : 0.0,
                          "interp" : "linr"
                        },
                        "name" : "Montserrat",
                        "weight" : "Regular"
                      },
                      "textAttributes" : {
                        "type" : "textAttributeList",
                        "keyframes" : [
                          {
                            "time" : 0,
                            "value" : [{"name":"fontItalic","rangeEnd":92,"rangeStart":0,"value":0,"valueType":"int"},{"name":"fontWeight","rangeEnd":92,"rangeStart":0,"value":400,"valueType":"int"},{"name":"fgColor","rangeEnd":92,"rangeStart":57,"value":"(255,0,0,255)","valueType":"color"},{"name":"fontName","rangeEnd":92,"rangeStart":0,"value":"Montserrat","valueType":"string"},{"name":"strikethrough","rangeEnd":92,"rangeStart":0,"value":0,"valueType":"int"},{"name":"underline","rangeEnd":92,"rangeStart":0,"value":0,"valueType":"int"},{"name":"fontSize","rangeEnd":92,"rangeStart":0,"value":64,"valueType":"double"},{"name":"fgColor","rangeEnd":57,"rangeStart":0,"value":"(0,0,0,255)","valueType":"color"}],
                            "duration" : 0
                          }
                        ]
                      }
                    },
                    "attributes" : {
                      "autoRotateText" : true
                    },
                    "parameters" : {
                      "translation0" : {
                        "type" : "double",
                        "defaultValue" : -83.9999999997139,
                        "interp" : "eioe"
                      },
                      "translation1" : {
                        "type" : "double",
                        "defaultValue" : -156.250000000076,
                        "interp" : "eioe"
                      }
                    },
                    "effects" : [
                        {
                          "effectName" : "DropShadow",
                          "category" : "categoryVisualEffects",
                          "parameters" : {
                            "angle" : {
                              "type" : "double",
                              "defaultValue" : 5.49778714378214,
                              "interp" : "linr",
                              "uiHints" : {
                                "userInterfaceType" : 0,
                                "unitType" : 0
                              }
                            },
                            "blur" : {
                              "type" : "double",
                              "defaultValue" : 10.0,
                              "interp" : "linr",
                              "uiHints" : {
                                "userInterfaceType" : 0,
                                "unitType" : 0
                              }
                            },
                            "color-alpha" : {
                              "type" : "double",
                              "defaultValue" : 1.0,
                              "interp" : "linr",
                              "uiHints" : {
                                "userInterfaceType" : 0,
                                "unitType" : 0
                              }
                            },
                            "color-blue" : {
                              "type" : "double",
                              "defaultValue" : 0.1216,
                              "interp" : "linr",
                              "uiHints" : {
                                "userInterfaceType" : 0,
                                "unitType" : 0
                              }
                            },
                            "color-green" : {
                              "type" : "double",
                              "defaultValue" : 0.1216,
                              "interp" : "linr",
                              "uiHints" : {
                                "userInterfaceType" : 0,
                                "unitType" : 0
                              }
                            },
                            "color-red" : {
                              "type" : "double",
                              "defaultValue" : 0.1216,
                              "interp" : "linr",
                              "uiHints" : {
                                "userInterfaceType" : 0,
                                "unitType" : 0
                              }
                            },
                            "enabled" : 1,
                            "offset" : {
                              "type" : "double",
                              "defaultValue" : 10.0,
                              "interp" : "linr",
                              "uiHints" : {
                                "userInterfaceType" : 0,
                                "unitType" : 0
                              }
                            },
                            "opacity" : {
                              "type" : "double",
                              "defaultValue" : 0.4,
                              "interp" : "linr",
                              "uiHints" : {
                                "userInterfaceType" : 0,
                                "unitType" : 0
                              }
                            }
                          }
                        }
                    ],
                    "start" : 1183,
                    "duration" : 131,
                    "mediaStart" : 0,
                    "mediaDuration" : 131,
                    "scalar" : 1,
                    "metadata" : {
                      "WinSubProjectDisplayName" : "",
                      "clipSpeedAttribute" : false,
                      "default-HAlign" : "center",
                      "default-VAlign" : "center",
                      "default-fill-color-blue" : 0.258823529411765,
                      "default-fill-color-green" : 0.258823529411765,
                      "default-fill-color-red" : 0.988235294117647,
                      "default-text-attributes" : null,
                      "default-translation0" : 89.0000000000638,
                      "default-translation1" : -45.2500000000267
                    },
                    "animationTracks" : {

                    }
                  }
                ]
              },
              {
                "trackIndex" : 4,
                "medias" : [
                ]
              }
            ]
          }
        }
      ]
    },
    "trackAttributes" : [
      {
        "ident" : "",
        "audioMuted" : false,
        "videoHidden" : false,
        "metadata" : {
          "IsLocked" : "False",
          "WinTrackHeight" : "56"
        }
      },
      {
        "ident" : "",
        "audioMuted" : false,
        "videoHidden" : false,
        "metadata" : {
          "IsLocked" : "False",
          "WinTrackHeight" : "56"
        }
      },
      {
        "ident" : "",
        "audioMuted" : false,
        "videoHidden" : false,
        "metadata" : {
          "IsLocked" : "False",
          "WinTrackHeight" : "56"
        }
      },
      {
        "ident" : "",
        "audioMuted" : false,
        "videoHidden" : false,
        "metadata" : {
          "IsLocked" : "False",
          "WinTrackHeight" : "56"
        }
      },
      {
        "ident" : "",
        "audioMuted" : false,
        "videoHidden" : false,
        "metadata" : {
          "IsLocked" : "False",
          "WinTrackHeight" : "56"
        }
      }
    ],
    "captionAttributes" : {
      "enabled" : true,
      "fontName" : "Arial",
      "fontSize" : 28,
      "backgroundColor" : [ 0, 0, 0, 191],
      "foregroundColor" : [ 255, 255, 255, 255],
      "lang" : "en",
      "alignment" : 0,
      "defaultFontSize" : true,
      "opacity" : 0.5,
      "backgroundEnabled" : true,
      "backgroundOnlyAroundText" : true
    },
    "backgroundColor" : [ 0, 0, 0, 255]
  },
  "metadata" : {
    "AutoSaveFile" : "C:\\Users\\Adam\\AppData\\Local\\TechSmith\\Camtasia Studio\\9.0\\Auto-Saves\\Untitled Project430fb98.autosave.tscproj",
    "CanvasZoom" : 100,
    "Date" : "2020-02-13 11:58:02 AM",
    "IsAutoSave" : "0",
    "Language" : "ENU",
    "ProfileName" : "",
    "ProjectDimensionsChanged" : "1",
    "audioNarrationNotes" : "",
    "calloutStyle" : "Basic",
    "canvasDetached" : "False",
    "canvasPositionHeight" : "0",
    "canvasPositionLeft" : "0",
    "canvasPositionTop" : "0",
    "canvasPositionWidth" : "0"
  }
}
