{
  "title" : "",
  "description" : "",
  "author" : "",
  "width" : 640.0,
  "height" : 480.0,
  "version" : "0.5",
  "editRate" : 30,
  "authoringClientName" :  {
    "name" : "Camtasia Studio",
    "platform" : "Windows",
    "version" : "9.0"
  },
  "sourceBin" : [
    {
      "id" : 1,
      "src" : "C:\\Users\\Adam\\Documents\\My HelpAndManual Projects\\Videos1\\MD14\\Hover-Only2.trec",
      "rect" : [0, 0, 640, 480],
      "lastMod" : "20200125T153340",
      "sourceTracks" : [
        {
          "range" : [0, 1835],
          "type" : 0,
          "editRate" : 30,
          "trackRect" : [0, 0, 640, 480],
          "sampleRate" : 30,
          "bitDepth" : 0,
          "numChannels" : 0,
          "metaData" : "Hover-Only2.trec;"
        }
      ]
    },
    {
      "id" : 2,
      "src" : "C:\\Users\\Adam\\Documents\\My HelpAndManual Projects\\Videos1\\MD14\\HoverDrag.trec",
      "rect" : [0, 0, 640, 480],
      "lastMod" : "20200125T211249",
      "sourceTracks" : [
        {
          "range" : [0, 1485],
          "type" : 0,
          "editRate" : 30,
          "trackRect" : [0, 0, 640, 480],
          "sampleRate" : 30,
          "bitDepth" : 0,
          "numChannels" : 0,
          "metaData" : "HoverDrag.trec;"
        }
      ]
    },
    {
      "id" : 3,
      "src" : "C:\\Users\\Adam\\Documents\\My HelpAndManual Projects\\Videos1\\MD14\\AddArc.trec",
      "rect" : [0, 0, 640, 480],
      "lastMod" : "20200125T214939",
      "sourceTracks" : [
        {
          "range" : [0, 563],
          "type" : 0,
          "editRate" : 30,
          "trackRect" : [0, 0, 640, 480],
          "sampleRate" : 30,
          "bitDepth" : 0,
          "numChannels" : 0,
          "metaData" : "AddArc.trec;"
        }
      ]
    },
    {
      "id" : 4,
      "src" : "C:\\Users\\Adam\\Documents\\My HelpAndManual Projects\\Videos1\\MD14\\AddMotDimRocker.trec",
      "rect" : [0, 0, 768, 480],
      "lastMod" : "20200125T220052",
      "sourceTracks" : [
        {
          "range" : [0, 893],
          "type" : 0,
          "editRate" : 30,
          "trackRect" : [0, 0, 768, 480],
          "sampleRate" : 30,
          "bitDepth" : 0,
          "numChannels" : 0,
          "metaData" : "AddMotDimRocker.trec;"
        }
      ]
    },
    {
      "id" : 5,
      "src" : "C:\\Users\\Adam\\Documents\\My HelpAndManual Projects\\Videos1\\MD14\\AddPartA.trec",
      "rect" : [0, 0, 640, 480],
      "lastMod" : "20200125T223046",
      "sourceTracks" : [
        {
          "range" : [0, 361],
          "type" : 0,
          "editRate" : 30,
          "trackRect" : [0, 0, 640, 480],
          "sampleRate" : 30,
          "bitDepth" : 0,
          "numChannels" : 0,
          "metaData" : "AddPartA.trec;"
        }
      ]
    },
    {
      "id" : 6,
      "src" : "C:\\Users\\Adam\\Documents\\My HelpAndManual Projects\\Videos1\\MD14\\MergePoints-Both.trec",
      "rect" : [0, 0, 640, 480],
      "lastMod" : "20200130T183810",
      "sourceTracks" : [
        {
          "range" : [0, 2219],
          "type" : 0,
          "editRate" : 30,
          "trackRect" : [0, 0, 640, 480],
          "sampleRate" : 30,
          "bitDepth" : 0,
          "numChannels" : 0,
          "metaData" : "MergePoints-Both.trec;"
        }
      ]
    }
  ],
  "timeline" : {
    "id" : 7,
    "sceneTrack" : {
      "scenes" : [
        {
          "duration" : 241.566666666667,
          "title" : "",
          "type" : "",
          "csml" : {
            "tracks" : [
              {
                "trackIndex" : 0,
                "medias" : [
                  {
                    "id" : 8,
                    "_type" : "ScreenVMFile",
                    "src" : 1,
                    "trackNumber" : 0,
                    "attributes" : {
                      "ident" : "Hover-Only2"
                    },
                    "parameters" : {
                      "cursorScale" : {
                        "type" : "double",
                        "defaultValue" : 1.0,
                        "interp" : "linr"
                      },
                      "cursorOpacity" : {
                        "type" : "double",
                        "defaultValue" : 1.0,
                        "interp" : "linr"
                      }
                    },
                    "effects" : [

                    ],
                    "start" : 0,
                    "duration" : 1313,
                    "mediaStart" : 0,
                    "mediaDuration" : 1313,
                    "scalar" : 1,
                    "metadata" : {
                      "AutoAppliedSmartFocus" : "False",
                      "WinSubProjectDisplayName" : "",
                      "clipSpeedAttribute" : false
                    },
                    "animationTracks" : {

                    }
                  },
                  {
                    "id" : 9,
                    "_type" : "ScreenVMFile",
                    "src" : 6,
                    "trackNumber" : 0,
                    "attributes" : {
                      "ident" : "MergePoints-Both"
                    },
                    "parameters" : {
                      "cursorScale" : {
                        "type" : "double",
                        "defaultValue" : 1.0,
                        "interp" : "linr"
                      },
                      "cursorOpacity" : {
                        "type" : "double",
                        "defaultValue" : 1.0,
                        "interp" : "linr"
                      }
                    },
                    "effects" : [

                    ],
                    "start" : 1313,
                    "duration" : 923,
                    "mediaStart" : 0,
                    "mediaDuration" : 923,
                    "scalar" : 1,
                    "metadata" : {
                      "AutoAppliedSmartFocus" : "False",
                      "WinSubProjectDisplayName" : "",
                      "clipSpeedAttribute" : false
                    },
                    "animationTracks" : {

                    }
                  },
                  {
                    "id" : 10,
                    "_type" : "ScreenVMFile",
                    "src" : 6,
                    "trackNumber" : 0,
                    "attributes" : {
                      "ident" : "MergePoints-Both"
                    },
                    "parameters" : {
                      "cursorScale" : {
                        "type" : "double",
                        "defaultValue" : 1.0,
                        "interp" : "linr"
                      },
                      "cursorOpacity" : {
                        "type" : "double",
                        "defaultValue" : 1.0,
                        "interp" : "linr"
                      }
                    },
                    "effects" : [

                    ],
                    "start" : 2236,
                    "duration" : 293,
                    "mediaStart" : 1063,
                    "mediaDuration" : 293,
                    "scalar" : 1,
                    "metadata" : {
                      "AutoAppliedSmartFocus" : "False",
                      "WinSubProjectDisplayName" : "",
                      "clipSpeedAttribute" : false
                    },
                    "animationTracks" : {

                    }
                  },
                  {
                    "id" : 11,
                    "_type" : "ScreenVMFile",
                    "src" : 6,
                    "trackNumber" : 0,
                    "attributes" : {
                      "ident" : "MergePoints-Both"
                    },
                    "parameters" : {
                      "cursorScale" : {
                        "type" : "double",
                        "defaultValue" : 1.0,
                        "interp" : "linr"
                      },
                      "cursorOpacity" : {
                        "type" : "double",
                        "defaultValue" : 1.0,
                        "interp" : "linr"
                      }
                    },
                    "effects" : [

                    ],
                    "start" : 2529,
                    "duration" : 539,
                    "mediaStart" : 1524,
                    "mediaDuration" : 539,
                    "scalar" : 1,
                    "metadata" : {
                      "AutoAppliedSmartFocus" : "False",
                      "WinSubProjectDisplayName" : "",
                      "clipSpeedAttribute" : false
                    },
                    "animationTracks" : {

                    }
                  },
                  {
                    "id" : 12,
                    "_type" : "ScreenVMFile",
                    "src" : 5,
                    "trackNumber" : 0,
                    "attributes" : {
                      "ident" : "AddPartA"
                    },
                    "parameters" : {
                      "cursorScale" : {
                        "type" : "double",
                        "defaultValue" : 1.0,
                        "interp" : "linr"
                      },
                      "cursorOpacity" : {
                        "type" : "double",
                        "defaultValue" : 1.0,
                        "interp" : "linr"
                      }
                    },
                    "effects" : [

                    ],
                    "start" : 4187,
                    "duration" : 361,
                    "mediaStart" : 0,
                    "mediaDuration" : 361,
                    "scalar" : 1,
                    "metadata" : {
                      "AutoAppliedSmartFocus" : "False",
                      "WinSubProjectDisplayName" : "",
                      "clipSpeedAttribute" : false
                    },
                    "animationTracks" : {

                    }
                  },
                  {
                    "id" : 13,
                    "_type" : "ScreenVMFile",
                    "src" : 2,
                    "trackNumber" : 0,
                    "attributes" : {
                      "ident" : "HoverDrag"
                    },
                    "parameters" : {
                      "cursorScale" : {
                        "type" : "double",
                        "defaultValue" : 1.0,
                        "interp" : "linr"
                      },
                      "cursorOpacity" : {
                        "type" : "double",
                        "defaultValue" : 1.0,
                        "interp" : "linr"
                      }
                    },
                    "effects" : [

                    ],
                    "start" : 4548,
                    "duration" : 1393,
                    "mediaStart" : 38,
                    "mediaDuration" : 1393,
                    "scalar" : 1,
                    "metadata" : {
                      "AutoAppliedSmartFocus" : "False",
                      "WinSubProjectDisplayName" : "",
                      "clipSpeedAttribute" : false
                    },
                    "animationTracks" : {

                    }
                  },
                  {
                    "id" : 14,
                    "_type" : "ScreenVMFile",
                    "src" : 3,
                    "trackNumber" : 0,
                    "attributes" : {
                      "ident" : "AddArc"
                    },
                    "parameters" : {
                      "cursorScale" : {
                        "type" : "double",
                        "defaultValue" : 1.0,
                        "interp" : "linr"
                      },
                      "cursorOpacity" : {
                        "type" : "double",
                        "defaultValue" : 1.0,
                        "interp" : "linr"
                      }
                    },
                    "effects" : [

                    ],
                    "start" : 5941,
                    "duration" : 563,
                    "mediaStart" : 0,
                    "mediaDuration" : 563,
                    "scalar" : 1,
                    "metadata" : {
                      "AutoAppliedSmartFocus" : "False",
                      "WinSubProjectDisplayName" : "",
                      "clipSpeedAttribute" : false
                    },
                    "animationTracks" : {

                    }
                  },
                  {
                    "id" : 15,
                    "_type" : "ScreenVMFile",
                    "src" : 4,
                    "trackNumber" : 0,
                    "attributes" : {
                      "ident" : "AddMotDimRocker"
                    },
                    "parameters" : {
                      "scale0" : {
                        "type" : "double",
                        "defaultValue" : 0.833333333333333,
                        "interp" : "eioe"
                      },
                      "scale1" : {
                        "type" : "double",
                        "defaultValue" : 0.833333333333333,
                        "interp" : "eioe"
                      },
                      "cursorScale" : {
                        "type" : "double",
                        "defaultValue" : 1.0,
                        "interp" : "linr"
                      },
                      "cursorOpacity" : {
                        "type" : "double",
                        "defaultValue" : 1.0,
                        "interp" : "linr"
                      }
                    },
                    "effects" : [

                    ],
                    "start" : 6504,
                    "duration" : 227,
                    "mediaStart" : 0,
                    "mediaDuration" : 227,
                    "scalar" : 1,
                    "metadata" : {
                      "AutoAppliedSmartFocus" : "False",
                      "WinSubProjectDisplayName" : "",
                      "clipSpeedAttribute" : false
                    },
                    "animationTracks" : {

                    }
                  },
                  {
                    "id" : 16,
                    "_type" : "ScreenVMFile",
                    "src" : 4,
                    "trackNumber" : 0,
                    "attributes" : {
                      "ident" : "AddMotDimRocker"
                    },
                    "parameters" : {
                      "translation1" : {
                        "type" : "double",
                        "defaultValue" : 3.81462965470813e-06,
                        "interp" : "eioe"
                      },
                      "scale0" : {
                        "type" : "double",
                        "defaultValue" : 0.833333333333333,
                        "interp" : "eioe"
                      },
                      "scale1" : {
                        "type" : "double",
                        "defaultValue" : 0.833333333333333,
                        "interp" : "eioe"
                      },
                      "cursorScale" : {
                        "type" : "double",
                        "defaultValue" : 1.0,
                        "interp" : "linr"
                      },
                      "cursorOpacity" : {
                        "type" : "double",
                        "defaultValue" : 1.0,
                        "interp" : "linr"
                      }
                    },
                    "effects" : [

                    ],
                    "start" : 6731,
                    "duration" : 516,
                    "mediaStart" : 312,
                    "mediaDuration" : 516,
                    "scalar" : 1,
                    "metadata" : {
                      "AutoAppliedSmartFocus" : "False",
                      "WinSubProjectDisplayName" : "",
                      "clipSpeedAttribute" : false,
                      "default-translation1" : 0.0
                    },
                    "animationTracks" : {

                    }
                  }
                ]
              },
              {
                "trackIndex" : 1,
                "medias" : [
                  {
                    "id" : 17,
                    "_type" : "Callout",
                    "def" : {
                      "kind" : "TypeWinSimple",
                      "shape" : "",
                      "style" : "",
                      "CutoutPercentage" : -1.0,
                      "RoundedRectRadius" : -1.0,
                      "Style" : 4.0,
                      "borderColorBlue" : 0.607843137254902,
                      "borderColorGreen" : 0.52156862745098,
                      "borderColorRed" : 0.192156862745098,
                      "borderState" : 0.0,
                      "borderWidth" : 3.0,
                      "dimensionTime" : 0.0,
                      "fillColorBlue" : 0.607843137254902,
                      "fillColorGreen" : 0.52156862745098,
                      "fillColorRed" : 0.192156862745098,
                      "fillState" : 1.0,
                      "flipOnXAxis" : 0.0,
                      "flipOnYAxis" : 0.0,
                      "height" : 116.012084592145,
                      "textIgnoresOpacity" : 0.0,
                      "textRectHeight" : 0.875,
                      "textRectWidth" : 0.909365558912387,
                      "textRectX" : 0.0453172205438066,
                      "textRectY" : 0.0625,
                      "textVerticalAlign" : 0.0,
                      "width" : 160.0,
                      "VectorPath" : "M0,0h331v240H0V0z",
                      "filename" : "C:\\Program Files\\TechSmith\\Camtasia 9\\Media\\Studio\\Callouts\\rectanglewithtext.xml",
                      "horizontal-alignment" : "center",
                      "name" : "Simple Rectangle",
                      "text" : "{\\rtf1\\ansi\\ansicpg1252\\deff0\\nouicompat\\deflang1033{\\fonttbl{\\f0\\fswiss\\fprq2\\fcharset0 Arial;}}\r\n{\\colortbl ;\\red255\\green255\\blue255;}\r\n{\\*\\generator Riched20 10.0.18362}\\viewkind4\\uc1 \r\n\\pard\\qc\\cf1\\f0\\fs72 Hover ONLY\\par\r\n}\r\n",
                      "vertical-alignment" : "center",
                      "xmlContent" : "﻿<?xml version=\"1.0\"?>\n\n<Overlay version=\"1.0.1\">\n\n<Overlay_Filename>rectanglewithtext.png</Overlay_Filename>\n<Overlay_Name>Simple Rectangle</Overlay_Name>\n<Text_Top>15</Text_Top>\n<Text_Left>15</Text_Left>\n<Text_Bottom>15</Text_Bottom>\n<Text_Right>15</Text_Right>\n<Fill_Color>1</Fill_Color>\n<Border_Color>1</Border_Color>\n<Initial_Fill_Color>0xff9b8531</Initial_Fill_Color>\n<Initial_Border_Color>0xff9b8531</Initial_Border_Color>\n<VectorProps>\n<figure>\n<svg>M0,0h331v240H0V0z</svg>\n</figure>\n<seamY>-1</seamY>\n<shapeWidth>331</shapeWidth>\n<shapeHeight>240</shapeHeight>\n</VectorProps>\n<Style>4</Style>\n<UseDefaultSpec>1</UseDefaultSpec>   \n</Overlay>",
                      "textAttributes" : {
                        "type" : "textAttributeList",
                        "keyframes" : [
                          {
                            "time" : 0,
                            "value" : null,
                            "duration" : 0
                          }
                        ]
                      }
                    },
                    "attributes" : {
                      "autoRotateText" : true
                    },
                    "parameters" : {
                      "translation0" : -160.000000000277,
                      "translation1" : 215.006042480355,
                      "scale0" : 1.99999999999863,
                      "scale1" : 0.465572918365733
                    },
                    "effects" : [

                    ],
                    "start" : 0,
                    "duration" : 1313,
                    "mediaStart" : 0,
                    "mediaDuration" : 1313,
                    "scalar" : 1,
                    "metadata" : {
                      "WinSubProjectDisplayName" : "",
                      "clipSpeedAttribute" : false,
                      "default-fill-color-blue" : 0.607843137254902,
                      "default-fill-color-green" : 0.52156862745098,
                      "default-fill-color-red" : 0.192156862745098,
                      "default-legacy-flip-y" : 0.0,
                      "default-legacy-text-callout-vertical-align" : "middle",
                      "default-scale0" : 1.0,
                      "default-scale1" : 1.0,
                      "default-stroke-color-blue" : 0.607843137254902,
                      "default-stroke-color-green" : 0.52156862745098,
                      "default-stroke-color-red" : 0.192156862745098,
                      "default-text" : "{\\rtf1\\ansi\\ansicpg1252\\deff0\\deflang1033{\\fonttbl{\\f0\\fswiss\\fprq2\\fcharset0 Arial;}}{\\colortbl ;\\red255\\green255\\blue255;}\\viewkind4\\uc1\\pard\\qc\\cf1\\fs72 abc}",
                      "default-translation0" : 0.0,
                      "default-translation1" : 0.0
                    },
                    "animationTracks" : {

                    }
                  },
                  {
                    "id" : 18,
                    "_type" : "Callout",
                    "def" : {
                      "kind" : "remix",
                      "shape" : "text-rectangle",
                      "style" : "basic",
                      "fill-color-blue" : 1.0,
                      "fill-color-green" : 1.0,
                      "fill-color-opacity" : 1.0,
                      "fill-color-red" : 1.0,
                      "height" : 95.9999999999926,
                      "stroke-color-blue" : 0.56078431372549,
                      "stroke-color-green" : 0.686274509803922,
                      "stroke-color-opacity" : 1.0,
                      "stroke-color-red" : 0.0196078431372549,
                      "stroke-width" : 2.0,
                      "tail-x" : 0.0,
                      "tail-y" : -85.9999999999839,
                      "width" : 350.0,
                      "word-wrap" : 1.0,
                      "fill-style" : "solid",
                      "horizontal-alignment" : "center",
                      "stroke-style" : "solid",
                      "text" : "Merge-Point Hover Technique",
                      "vertical-alignment" : "center",
                      "font" : {
                        "color-blue" : 0.266666666666667,
                        "color-green" : 0.231372549019608,
                        "color-opacity" : 1.0,
                        "color-red" : 0.184313725490196,
                        "size" : 64.0,
                        "tracking" : 0.0,
                        "name" : "Montserrat",
                        "weight" : "Regular"
                      },
                      "textAttributes" : {
                        "type" : "textAttributeList",
                        "keyframes" : [
                          {
                            "time" : 0,
                            "value" : [{"name":"fontWeight","rangeEnd":27,"rangeStart":0,"value":400,"valueType":"int"},{"name":"fontItalic","rangeEnd":27,"rangeStart":0,"value":0,"valueType":"int"},{"name":"strikethrough","rangeEnd":27,"rangeStart":0,"value":0,"valueType":"int"},{"name":"fgColor","rangeEnd":27,"rangeStart":0,"value":"(47,59,68,255)","valueType":"color"},{"name":"fontName","rangeEnd":27,"rangeStart":0,"value":"Montserrat","valueType":"string"},{"name":"fontSize","rangeEnd":27,"rangeStart":0,"value":64,"valueType":"double"},{"name":"underline","rangeEnd":27,"rangeStart":0,"value":0,"valueType":"int"}],
                            "duration" : 0
                          }
                        ]
                      }
                    },
                    "attributes" : {
                      "autoRotateText" : true
                    },
                    "parameters" : {
                      "translation0" : 130.000000000019,
                      "translation1" : -178.000000000032
                    },
                    "effects" : [
                        {
                          "effectName" : "DropShadow",
                          "category" : "categoryVisualEffects",
                          "parameters" : {
                            "angle" : 5.49778714378214,
                            "blur" : 10.0,
                            "color-alpha" : 1.0,
                            "color-blue" : 0.1216,
                            "color-green" : 0.1216,
                            "color-red" : 0.1216,
                            "enabled" : 1,
                            "offset" : 10.0,
                            "opacity" : 0.4
                          }
                        }
                    ],
                    "start" : 1388,
                    "duration" : 225,
                    "mediaStart" : 0,
                    "mediaDuration" : 225,
                    "scalar" : 1,
                    "metadata" : {
                      "WinSubProjectDisplayName" : "",
                      "clipSpeedAttribute" : false,
                      "default-HAlign" : "center",
                      "default-VAlign" : "center",
                      "default-text-attributes" : null,
                      "default-translation0" : 0.0,
                      "default-translation1" : 46.4999999999938
                    },
                    "animationTracks" : {

                    }
                  },
                  {
                    "id" : 19,
                    "_type" : "Callout",
                    "def" : {
                      "kind" : "remix",
                      "shape" : "text-rectangle",
                      "style" : "basic",
                      "fill-color-blue" : {
                        "type" : "double",
                        "defaultValue" : 1.0,
                        "interp" : "linr"
                      },
                      "fill-color-green" : {
                        "type" : "double",
                        "defaultValue" : 1.0,
                        "interp" : "linr"
                      },
                      "fill-color-opacity" : {
                        "type" : "double",
                        "defaultValue" : 1.0,
                        "interp" : "linr"
                      },
                      "fill-color-red" : {
                        "type" : "double",
                        "defaultValue" : 1.0,
                        "interp" : "linr"
                      },
                      "height" : {
                        "type" : "double",
                        "defaultValue" : 95.9999999999926,
                        "interp" : "linr"
                      },
                      "stroke-color-blue" : {
                        "type" : "double",
                        "defaultValue" : 0.56078431372549,
                        "interp" : "linr"
                      },
                      "stroke-color-green" : {
                        "type" : "double",
                        "defaultValue" : 0.686274509803922,
                        "interp" : "linr"
                      },
                      "stroke-color-opacity" : {
                        "type" : "double",
                        "defaultValue" : 1.0,
                        "interp" : "linr"
                      },
                      "stroke-color-red" : {
                        "type" : "double",
                        "defaultValue" : 0.0196078431372549,
                        "interp" : "linr"
                      },
                      "stroke-width" : {
                        "type" : "double",
                        "defaultValue" : 2.0,
                        "interp" : "linr"
                      },
                      "tail-x" : {
                        "type" : "double",
                        "defaultValue" : 9.4999999999575,
                        "interp" : "linr"
                      },
                      "tail-y" : {
                        "type" : "double",
                        "defaultValue" : -85.9999999999839,
                        "interp" : "linr"
                      },
                      "width" : {
                        "type" : "double",
                        "defaultValue" : 368.999999999915,
                        "interp" : "linr"
                      },
                      "word-wrap" : {
                        "type" : "double",
                        "defaultValue" : 1.0,
                        "interp" : "linr"
                      },
                      "fill-style" : "solid",
                      "horizontal-alignment" : "center",
                      "stroke-style" : "solid",
                      "text" : "Geometry menu > Merge-Point",
                      "vertical-alignment" : "center",
                      "font" : {
                        "color-blue" : {
                          "type" : "double",
                          "defaultValue" : 0.266666666666667,
                          "interp" : "linr"
                        },
                        "color-green" : {
                          "type" : "double",
                          "defaultValue" : 0.231372549019608,
                          "interp" : "linr"
                        },
                        "color-opacity" : {
                          "type" : "double",
                          "defaultValue" : 1.0,
                          "interp" : "linr"
                        },
                        "color-red" : {
                          "type" : "double",
                          "defaultValue" : 0.184313725490196,
                          "interp" : "linr"
                        },
                        "size" : {
                          "type" : "double",
                          "defaultValue" : 64.0,
                          "interp" : "linr"
                        },
                        "tracking" : {
                          "type" : "double",
                          "defaultValue" : 0.0,
                          "interp" : "linr"
                        },
                        "name" : "Montserrat",
                        "weight" : "Regular"
                      },
                      "textAttributes" : {
                        "type" : "textAttributeList",
                        "keyframes" : [
                          {
                            "time" : 0,
                            "value" : [{"name":"fontWeight","rangeEnd":27,"rangeStart":0,"value":400,"valueType":"int"},{"name":"underline","rangeEnd":27,"rangeStart":0,"value":0,"valueType":"int"},{"name":"fgColor","rangeEnd":27,"rangeStart":0,"value":"(47,59,68,255)","valueType":"color"},{"name":"strikethrough","rangeEnd":27,"rangeStart":0,"value":0,"valueType":"int"},{"name":"fontSize","rangeEnd":27,"rangeStart":0,"value":64,"valueType":"double"},{"name":"fontItalic","rangeEnd":27,"rangeStart":0,"value":0,"valueType":"int"},{"name":"fontName","rangeEnd":27,"rangeStart":0,"value":"Montserrat","valueType":"string"}],
                            "duration" : 0
                          }
                        ]
                      }
                    },
                    "attributes" : {
                      "autoRotateText" : true
                    },
                    "parameters" : {
                      "translation0" : {
                        "type" : "double",
                        "defaultValue" : 120.500000000061,
                        "interp" : "eioe"
                      },
                      "translation1" : {
                        "type" : "double",
                        "defaultValue" : -178.000000000032,
                        "interp" : "eioe"
                      }
                    },
                    "effects" : [
                        {
                          "effectName" : "DropShadow",
                          "category" : "categoryVisualEffects",
                          "parameters" : {
                            "angle" : {
                              "type" : "double",
                              "defaultValue" : 5.49778714378214,
                              "interp" : "linr",
                              "uiHints" : {
                                "userInterfaceType" : 0,
                                "unitType" : 0
                              }
                            },
                            "blur" : {
                              "type" : "double",
                              "defaultValue" : 10.0,
                              "interp" : "linr",
                              "uiHints" : {
                                "userInterfaceType" : 0,
                                "unitType" : 0
                              }
                            },
                            "color-alpha" : {
                              "type" : "double",
                              "defaultValue" : 1.0,
                              "interp" : "linr",
                              "uiHints" : {
                                "userInterfaceType" : 0,
                                "unitType" : 0
                              }
                            },
                            "color-blue" : {
                              "type" : "double",
                              "defaultValue" : 0.1216,
                              "interp" : "linr",
                              "uiHints" : {
                                "userInterfaceType" : 0,
                                "unitType" : 0
                              }
                            },
                            "color-green" : {
                              "type" : "double",
                              "defaultValue" : 0.1216,
                              "interp" : "linr",
                              "uiHints" : {
                                "userInterfaceType" : 0,
                                "unitType" : 0
                              }
                            },
                            "color-red" : {
                              "type" : "double",
                              "defaultValue" : 0.1216,
                              "interp" : "linr",
                              "uiHints" : {
                                "userInterfaceType" : 0,
                                "unitType" : 0
                              }
                            },
                            "enabled" : 1,
                            "offset" : {
                              "type" : "double",
                              "defaultValue" : 10.0,
                              "interp" : "linr",
                              "uiHints" : {
                                "userInterfaceType" : 0,
                                "unitType" : 0
                              }
                            },
                            "opacity" : {
                              "type" : "double",
                              "defaultValue" : 0.4,
                              "interp" : "linr",
                              "uiHints" : {
                                "userInterfaceType" : 0,
                                "unitType" : 0
                              }
                            }
                          }
                        }
                    ],
                    "start" : 2068,
                    "duration" : 461,
                    "mediaStart" : 0,
                    "mediaDuration" : 461,
                    "scalar" : 1,
                    "metadata" : {
                      "WinSubProjectDisplayName" : "",
                      "clipSpeedAttribute" : false,
                      "default-HAlign" : "center",
                      "default-VAlign" : "center",
                      "default-text-attributes" : null,
                      "default-translation0" : 0.0,
                      "default-translation1" : 46.4999999999938
                    },
                    "animationTracks" : {

                    }
                  },
                  {
                    "id" : 20,
                    "_type" : "Callout",
                    "def" : {
                      "kind" : "remix",
                      "shape" : "text-rectangle",
                      "style" : "basic",
                      "fill-color-blue" : {
                        "type" : "double",
                        "defaultValue" : 1.0,
                        "interp" : "linr"
                      },
                      "fill-color-green" : {
                        "type" : "double",
                        "defaultValue" : 1.0,
                        "interp" : "linr"
                      },
                      "fill-color-opacity" : {
                        "type" : "double",
                        "defaultValue" : 1.0,
                        "interp" : "linr"
                      },
                      "fill-color-red" : {
                        "type" : "double",
                        "defaultValue" : 1.0,
                        "interp" : "linr"
                      },
                      "height" : {
                        "type" : "double",
                        "defaultValue" : 95.9999999999926,
                        "interp" : "linr"
                      },
                      "stroke-color-blue" : {
                        "type" : "double",
                        "defaultValue" : 0.56078431372549,
                        "interp" : "linr"
                      },
                      "stroke-color-green" : {
                        "type" : "double",
                        "defaultValue" : 0.686274509803922,
                        "interp" : "linr"
                      },
                      "stroke-color-opacity" : {
                        "type" : "double",
                        "defaultValue" : 1.0,
                        "interp" : "linr"
                      },
                      "stroke-color-red" : {
                        "type" : "double",
                        "defaultValue" : 0.0196078431372549,
                        "interp" : "linr"
                      },
                      "stroke-width" : {
                        "type" : "double",
                        "defaultValue" : 2.0,
                        "interp" : "linr"
                      },
                      "tail-x" : {
                        "type" : "double",
                        "defaultValue" : 9.4999999999575,
                        "interp" : "linr"
                      },
                      "tail-y" : {
                        "type" : "double",
                        "defaultValue" : -85.9999999999839,
                        "interp" : "linr"
                      },
                      "width" : {
                        "type" : "double",
                        "defaultValue" : 368.999999999915,
                        "interp" : "linr"
                      },
                      "word-wrap" : {
                        "type" : "double",
                        "defaultValue" : 1.0,
                        "interp" : "linr"
                      },
                      "fill-style" : "solid",
                      "horizontal-alignment" : "center",
                      "stroke-style" : "solid",
                      "text" : "Constraints menu > Add Coincident",
                      "vertical-alignment" : "center",
                      "font" : {
                        "color-blue" : {
                          "type" : "double",
                          "defaultValue" : 0.266666666666667,
                          "interp" : "linr"
                        },
                        "color-green" : {
                          "type" : "double",
                          "defaultValue" : 0.231372549019608,
                          "interp" : "linr"
                        },
                        "color-opacity" : {
                          "type" : "double",
                          "defaultValue" : 1.0,
                          "interp" : "linr"
                        },
                        "color-red" : {
                          "type" : "double",
                          "defaultValue" : 0.184313725490196,
                          "interp" : "linr"
                        },
                        "size" : {
                          "type" : "double",
                          "defaultValue" : 64.0,
                          "interp" : "linr"
                        },
                        "tracking" : {
                          "type" : "double",
                          "defaultValue" : 0.0,
                          "interp" : "linr"
                        },
                        "name" : "Montserrat",
                        "weight" : "Regular"
                      },
                      "textAttributes" : {
                        "type" : "textAttributeList",
                        "keyframes" : [
                          {
                            "time" : 0,
                            "value" : [{"name":"fontItalic","rangeEnd":33,"rangeStart":0,"value":0,"valueType":"int"},{"name":"fontSize","rangeEnd":33,"rangeStart":0,"value":64,"valueType":"double"},{"name":"fgColor","rangeEnd":33,"rangeStart":0,"value":"(47,59,68,255)","valueType":"color"},{"name":"fontWeight","rangeEnd":33,"rangeStart":0,"value":400,"valueType":"int"},{"name":"strikethrough","rangeEnd":33,"rangeStart":0,"value":0,"valueType":"int"},{"name":"underline","rangeEnd":33,"rangeStart":0,"value":0,"valueType":"int"},{"name":"fontName","rangeEnd":33,"rangeStart":0,"value":"Montserrat","valueType":"string"}],
                            "duration" : 0
                          }
                        ]
                      }
                    },
                    "attributes" : {
                      "autoRotateText" : true
                    },
                    "parameters" : {
                      "translation0" : {
                        "type" : "double",
                        "defaultValue" : 120.500000000061,
                        "interp" : "eioe"
                      },
                      "translation1" : {
                        "type" : "double",
                        "defaultValue" : -178.000000000032,
                        "interp" : "eioe"
                      }
                    },
                    "effects" : [
                        {
                          "effectName" : "DropShadow",
                          "category" : "categoryVisualEffects",
                          "parameters" : {
                            "angle" : {
                              "type" : "double",
                              "defaultValue" : 5.49778714378214,
                              "interp" : "linr",
                              "uiHints" : {
                                "userInterfaceType" : 0,
                                "unitType" : 0
                              }
                            },
                            "blur" : {
                              "type" : "double",
                              "defaultValue" : 10.0,
                              "interp" : "linr",
                              "uiHints" : {
                                "userInterfaceType" : 0,
                                "unitType" : 0
                              }
                            },
                            "color-alpha" : {
                              "type" : "double",
                              "defaultValue" : 1.0,
                              "interp" : "linr",
                              "uiHints" : {
                                "userInterfaceType" : 0,
                                "unitType" : 0
                              }
                            },
                            "color-blue" : {
                              "type" : "double",
                              "defaultValue" : 0.1216,
                              "interp" : "linr",
                              "uiHints" : {
                                "userInterfaceType" : 0,
                                "unitType" : 0
                              }
                            },
                            "color-green" : {
                              "type" : "double",
                              "defaultValue" : 0.1216,
                              "interp" : "linr",
                              "uiHints" : {
                                "userInterfaceType" : 0,
                                "unitType" : 0
                              }
                            },
                            "color-red" : {
                              "type" : "double",
                              "defaultValue" : 0.1216,
                              "interp" : "linr",
                              "uiHints" : {
                                "userInterfaceType" : 0,
                                "unitType" : 0
                              }
                            },
                            "enabled" : 1,
                            "offset" : {
                              "type" : "double",
                              "defaultValue" : 10.0,
                              "interp" : "linr",
                              "uiHints" : {
                                "userInterfaceType" : 0,
                                "unitType" : 0
                              }
                            },
                            "opacity" : {
                              "type" : "double",
                              "defaultValue" : 0.4,
                              "interp" : "linr",
                              "uiHints" : {
                                "userInterfaceType" : 0,
                                "unitType" : 0
                              }
                            }
                          }
                        }
                    ],
                    "start" : 2772,
                    "duration" : 296,
                    "mediaStart" : 0,
                    "mediaDuration" : 296,
                    "scalar" : 1,
                    "metadata" : {
                      "WinSubProjectDisplayName" : "",
                      "clipSpeedAttribute" : false,
                      "default-HAlign" : "center",
                      "default-VAlign" : "center",
                      "default-text-attributes" : null,
                      "default-translation0" : 0.0,
                      "default-translation1" : 46.4999999999938
                    },
                    "animationTracks" : {

                    }
                  }
                ]
              },
              {
                "trackIndex" : 2,
                "medias" : [
                  {
                    "id" : 21,
                    "_type" : "Callout",
                    "def" : {
                      "kind" : "TypeWinSimple",
                      "shape" : "",
                      "style" : "",
                      "CutoutPercentage" : -1.0,
                      "RoundedRectRadius" : -1.0,
                      "Style" : 4.0,
                      "borderColorBlue" : 0.607843137254902,
                      "borderColorGreen" : 0.52156862745098,
                      "borderColorRed" : 0.192156862745098,
                      "borderState" : 0.0,
                      "borderWidth" : 3.0,
                      "dimensionTime" : 0.0,
                      "fillColorBlue" : 0.172549019607843,
                      "fillColorGreen" : 0.615686274509804,
                      "fillColorRed" : 0.105882352941176,
                      "fillState" : 1.0,
                      "flipOnXAxis" : 0.0,
                      "flipOnYAxis" : 0.0,
                      "height" : 116.012084592145,
                      "textIgnoresOpacity" : 0.0,
                      "textRectHeight" : 0.875,
                      "textRectWidth" : 0.909365558912387,
                      "textRectX" : 0.0453172205438066,
                      "textRectY" : 0.0625,
                      "textVerticalAlign" : 0.0,
                      "width" : 160.0,
                      "VectorPath" : "M0,0h331v240H0V0z",
                      "filename" : "C:\\Program Files\\TechSmith\\Camtasia 9\\Media\\Studio\\Callouts\\rectanglewithtext.xml",
                      "horizontal-alignment" : "center",
                      "name" : "Simple Rectangle",
                      "text" : "{\\rtf1\\ansi\\ansicpg1252\\deff0\\nouicompat\\deflang1033{\\fonttbl{\\f0\\fswiss\\fprq2\\fcharset0 Arial;}}\r\n{\\colortbl ;\\red255\\green255\\blue255;}\r\n{\\*\\generator Riched20 10.0.18362}\\viewkind4\\uc1 \r\n\\pard\\qc\\cf1\\f0\\fs52 Output-Connector\\par\r\n}\r\n",
                      "vertical-alignment" : "center",
                      "xmlContent" : "﻿<?xml version=\"1.0\"?>\n\n<Overlay version=\"1.0.1\">\n\n<Overlay_Filename>rectanglewithtext.png</Overlay_Filename>\n<Overlay_Name>Simple Rectangle</Overlay_Name>\n<Text_Top>15</Text_Top>\n<Text_Left>15</Text_Left>\n<Text_Bottom>15</Text_Bottom>\n<Text_Right>15</Text_Right>\n<Fill_Color>1</Fill_Color>\n<Border_Color>1</Border_Color>\n<Initial_Fill_Color>0xff9b8531</Initial_Fill_Color>\n<Initial_Border_Color>0xff9b8531</Initial_Border_Color>\n<VectorProps>\n<figure>\n<svg>M0,0h331v240H0V0z</svg>\n</figure>\n<seamY>-1</seamY>\n<shapeWidth>331</shapeWidth>\n<shapeHeight>240</shapeHeight>\n</VectorProps>\n<Style>4</Style>\n<UseDefaultSpec>1</UseDefaultSpec>   \n</Overlay>",
                      "textAttributes" : {
                        "type" : "textAttributeList",
                        "keyframes" : [
                          {
                            "time" : 0,
                            "value" : null,
                            "duration" : 0
                          }
                        ]
                      }
                    },
                    "attributes" : {
                      "autoRotateText" : true
                    },
                    "parameters" : {
                      "translation0" : -160.000000000408,
                      "translation1" : 155.487915038886,
                      "scale0" : 1.99999999999751,
                      "scale1" : 0.560494796243933
                    },
                    "effects" : [

                    ],
                    "start" : 656,
                    "duration" : 74,
                    "mediaStart" : 0,
                    "mediaDuration" : 74,
                    "scalar" : 1,
                    "metadata" : {
                      "WinSubProjectDisplayName" : "",
                      "clipSpeedAttribute" : false,
                      "default-fill-color-blue" : 0.607843137254902,
                      "default-fill-color-green" : 0.52156862745098,
                      "default-fill-color-red" : 0.192156862745098,
                      "default-legacy-fill-state" : 1.0,
                      "default-legacy-flip-y" : 0.0,
                      "default-legacy-text-callout-vertical-align" : "middle",
                      "default-scale0" : 1.0,
                      "default-scale1" : 1.0,
                      "default-stroke-color-blue" : 0.607843137254902,
                      "default-stroke-color-green" : 0.52156862745098,
                      "default-stroke-color-red" : 0.192156862745098,
                      "default-text" : "{\\rtf1\\ansi\\ansicpg1252\\deff0\\deflang1033{\\fonttbl{\\f0\\fswiss\\fprq2\\fcharset0 Arial;}}{\\colortbl ;\\red255\\green255\\blue255;}\\viewkind4\\uc1\\pard\\qc\\cf1\\fs72 abc}",
                      "default-translation0" : 0.0,
                      "default-translation1" : 0.0
                    },
                    "animationTracks" : {

                    }
                  },
                  {
                    "id" : 22,
                    "_type" : "Callout",
                    "def" : {
                      "kind" : "remix",
                      "shape" : "speech-bubble2",
                      "style" : "basic",
                      "fill-color-blue" : 0.0,
                      "fill-color-green" : 0.0,
                      "fill-color-opacity" : 1.0,
                      "fill-color-red" : 0.996078431372549,
                      "height" : 47.000000000047,
                      "stroke-color-blue" : 1.0,
                      "stroke-color-green" : 1.0,
                      "stroke-color-opacity" : 1.0,
                      "stroke-color-red" : 1.0,
                      "stroke-width" : 0.0,
                      "tail-x" : 229.999999999479,
                      "tail-y" : -120.500000000034,
                      "width" : 350.0,
                      "word-wrap" : 1.0,
                      "fill-style" : "solid",
                      "horizontal-alignment" : "center",
                      "stroke-style" : "solid",
                      "text" : "Add Motion-Dimension FB",
                      "vertical-alignment" : "center",
                      "font" : {
                        "color-blue" : 1.0,
                        "color-green" : 1.0,
                        "color-red" : 1.0,
                        "size" : 64.0,
                        "tracking" : 0.0,
                        "name" : "Montserrat",
                        "weight" : "Regular"
                      },
                      "textAttributes" : {
                        "type" : "textAttributeList",
                        "keyframes" : [
                          {
                            "time" : 0,
                            "value" : [{"name":"strikethrough","rangeEnd":23,"rangeStart":0,"value":0,"valueType":"int"},{"name":"fontName","rangeEnd":23,"rangeStart":0,"value":"Arial","valueType":"string"},{"name":"fontWeight","rangeEnd":23,"rangeStart":0,"value":400,"valueType":"int"},{"name":"fontSize","rangeEnd":23,"rangeStart":0,"value":26,"valueType":"double"},{"name":"underline","rangeEnd":23,"rangeStart":0,"value":0,"valueType":"int"},{"name":"fontItalic","rangeEnd":23,"rangeStart":0,"value":0,"valueType":"int"},{"name":"fgColor","rangeEnd":23,"rangeStart":0,"value":"(255,255,255,255)","valueType":"color"}],
                            "duration" : 0
                          }
                        ]
                      }
                    },
                    "attributes" : {
                      "autoRotateText" : true
                    },
                    "parameters" : {
                      "translation0" : 56.0000000000033,
                      "translation1" : 137.499999999986
                    },
                    "effects" : [
                        {
                          "effectName" : "DropShadow",
                          "category" : "categoryVisualEffects",
                          "parameters" : {
                            "angle" : 5.49778714378214,
                            "blur" : 10.0,
                            "color-alpha" : 1.0,
                            "color-blue" : 0.1216,
                            "color-green" : 0.1216,
                            "color-red" : 0.1216,
                            "enabled" : 1,
                            "offset" : 10.0,
                            "opacity" : 0.4
                          }
                        }
                    ],
                    "start" : 3470,
                    "duration" : 150,
                    "mediaStart" : 0,
                    "mediaDuration" : 150,
                    "scalar" : 1,
                    "metadata" : {
                      "WinSubProjectDisplayName" : "",
                      "clipSpeedAttribute" : false,
                      "default-HAlign" : "center",
                      "default-VAlign" : "center",
                      "default-fill-color-blue" : 0.258823529411765,
                      "default-fill-color-green" : 0.258823529411765,
                      "default-fill-color-red" : 0.988235294117647,
                      "default-translation0" : 0.0,
                      "default-translation1" : 66.4999999999765
                    },
                    "animationTracks" : {

                    }
                  },
                  {
                    "id" : 23,
                    "_type" : "Callout",
                    "def" : {
                      "kind" : "remix",
                      "shape" : "speech-bubble",
                      "style" : "urban",
                      "fill-color-blue" : 0.129411764705882,
                      "fill-color-green" : 0.741176470588235,
                      "fill-color-opacity" : 1.0,
                      "fill-color-red" : 0.956862745098039,
                      "height" : 54.0000000000609,
                      "stroke-color-blue" : 0.384313725490196,
                      "stroke-color-green" : 0.525490196078431,
                      "stroke-color-opacity" : 1.0,
                      "stroke-color-red" : 0.96078431372549,
                      "stroke-width" : 0.0,
                      "tail-x" : -148.500000000007,
                      "tail-y" : -114.416667938304,
                      "width" : 347.000000000038,
                      "word-wrap" : 1.0,
                      "fill-style" : "solid",
                      "horizontal-alignment" : "center",
                      "stroke-style" : "solid",
                      "text" : "Command-Manager",
                      "vertical-alignment" : "center",
                      "font" : {
                        "color-blue" : 1.0,
                        "color-green" : 1.0,
                        "color-red" : 1.0,
                        "size" : 70.0,
                        "tracking" : 0.0,
                        "name" : "Dosis",
                        "weight" : "Semi Bold"
                      },
                      "textAttributes" : {
                        "type" : "textAttributeList",
                        "keyframes" : [
                          {
                            "time" : 0,
                            "value" : [{"name":"underline","rangeEnd":15,"rangeStart":0,"value":0,"valueType":"int"},{"name":"fontItalic","rangeEnd":15,"rangeStart":0,"value":0,"valueType":"int"},{"name":"fontWeight","rangeEnd":15,"rangeStart":0,"value":700,"valueType":"int"},{"name":"fgColor","rangeEnd":15,"rangeStart":0,"value":"(255,255,255,255)","valueType":"color"},{"name":"fontName","rangeEnd":15,"rangeStart":0,"value":"Arial","valueType":"string"},{"name":"strikethrough","rangeEnd":15,"rangeStart":0,"value":0,"valueType":"int"},{"name":"fontSize","rangeEnd":15,"rangeStart":0,"value":36,"valueType":"double"}],
                            "duration" : 0
                          }
                        ]
                      }
                    },
                    "attributes" : {
                      "autoRotateText" : true
                    },
                    "parameters" : {
                      "translation0" : -125.49999999999,
                      "translation1" : 125.999999999987
                    },
                    "effects" : [
                        {
                          "effectName" : "DropShadow",
                          "category" : "categoryVisualEffects",
                          "parameters" : {
                            "angle" : 5.49778714378214,
                            "blur" : 10.0,
                            "color-alpha" : 1.0,
                            "color-blue" : 0.1216,
                            "color-green" : 0.1216,
                            "color-red" : 0.1216,
                            "enabled" : 1,
                            "offset" : 10.0,
                            "opacity" : 0.4
                          }
                        }
                    ],
                    "start" : 3635,
                    "duration" : 463,
                    "mediaStart" : 0,
                    "mediaDuration" : 463,
                    "scalar" : 1,
                    "metadata" : {
                      "WinSubProjectDisplayName" : "",
                      "clipSpeedAttribute" : false,
                      "default-HAlign" : "center",
                      "default-VAlign" : "center",
                      "default-translation0" : 0.0,
                      "default-translation1" : 49.9999999999742
                    },
                    "animationTracks" : {

                    }
                  }
                ]
              },
              {
                "trackIndex" : 3,
                "medias" : [
                  {
                    "id" : 24,
                    "_type" : "Callout",
                    "def" : {
                      "kind" : "TypeWinSimple",
                      "shape" : "",
                      "style" : "",
                      "CutoutPercentage" : -1.0,
                      "RoundedRectRadius" : -1.0,
                      "Style" : 4.0,
                      "borderColorBlue" : 0.607843137254902,
                      "borderColorGreen" : 0.52156862745098,
                      "borderColorRed" : 0.192156862745098,
                      "borderState" : 0.0,
                      "borderWidth" : 3.0,
                      "dimensionTime" : 0.0,
                      "fillColorBlue" : 0.172549019607843,
                      "fillColorGreen" : 0.615686274509804,
                      "fillColorRed" : 0.105882352941176,
                      "fillState" : 1.0,
                      "flipOnXAxis" : 0.0,
                      "flipOnYAxis" : 0.0,
                      "height" : 116.012084592145,
                      "textIgnoresOpacity" : 0.0,
                      "textRectHeight" : 0.875,
                      "textRectWidth" : 0.909365558912387,
                      "textRectX" : 0.0453172205438066,
                      "textRectY" : 0.0625,
                      "textVerticalAlign" : 0.0,
                      "width" : 160.0,
                      "VectorPath" : "M0,0h331v240H0V0z",
                      "filename" : "C:\\Program Files\\TechSmith\\Camtasia 9\\Media\\Studio\\Callouts\\rectanglewithtext.xml",
                      "horizontal-alignment" : "center",
                      "name" : "Simple Rectangle",
                      "text" : "{\\rtf1\\ansi\\ansicpg1252\\deff0\\nouicompat\\deflang1033{\\fonttbl{\\f0\\fswiss\\fprq2\\fcharset0 Arial;}}\r\n{\\colortbl ;\\red255\\green255\\blue255;}\r\n{\\*\\generator Riched20 10.0.18362}\\viewkind4\\uc1 \r\n\\pard\\qc\\cf1\\f0\\fs52 Part-Outline\\par\r\n}\r\n",
                      "vertical-alignment" : "center",
                      "xmlContent" : "﻿<?xml version=\"1.0\"?>\n\n<Overlay version=\"1.0.1\">\n\n<Overlay_Filename>rectanglewithtext.png</Overlay_Filename>\n<Overlay_Name>Simple Rectangle</Overlay_Name>\n<Text_Top>15</Text_Top>\n<Text_Left>15</Text_Left>\n<Text_Bottom>15</Text_Bottom>\n<Text_Right>15</Text_Right>\n<Fill_Color>1</Fill_Color>\n<Border_Color>1</Border_Color>\n<Initial_Fill_Color>0xff9b8531</Initial_Fill_Color>\n<Initial_Border_Color>0xff9b8531</Initial_Border_Color>\n<VectorProps>\n<figure>\n<svg>M0,0h331v240H0V0z</svg>\n</figure>\n<seamY>-1</seamY>\n<shapeWidth>331</shapeWidth>\n<shapeHeight>240</shapeHeight>\n</VectorProps>\n<Style>4</Style>\n<UseDefaultSpec>1</UseDefaultSpec>   \n</Overlay>",
                      "textAttributes" : {
                        "type" : "textAttributeList",
                        "keyframes" : [
                          {
                            "time" : 0,
                            "value" : null,
                            "duration" : 0
                          }
                        ]
                      }
                    },
                    "attributes" : {
                      "autoRotateText" : true
                    },
                    "parameters" : {
                      "translation0" : -160.000000000136,
                      "translation1" : 155.487915038917,
                      "scale0" : 1.9999999999983,
                      "scale1" : 0.560494796243933
                    },
                    "effects" : [

                    ],
                    "start" : 0,
                    "duration" : 150,
                    "mediaStart" : 0,
                    "mediaDuration" : 150,
                    "scalar" : 1,
                    "metadata" : {
                      "WinSubProjectDisplayName" : "",
                      "clipSpeedAttribute" : false,
                      "default-fill-color-blue" : 0.607843137254902,
                      "default-fill-color-green" : 0.52156862745098,
                      "default-fill-color-red" : 0.192156862745098,
                      "default-legacy-fill-state" : 1.0,
                      "default-legacy-flip-y" : 0.0,
                      "default-legacy-text-callout-vertical-align" : "middle",
                      "default-scale0" : 1.0,
                      "default-scale1" : 1.0,
                      "default-stroke-color-blue" : 0.607843137254902,
                      "default-stroke-color-green" : 0.52156862745098,
                      "default-stroke-color-red" : 0.192156862745098,
                      "default-text" : "{\\rtf1\\ansi\\ansicpg1252\\deff0\\deflang1033{\\fonttbl{\\f0\\fswiss\\fprq2\\fcharset0 Arial;}}{\\colortbl ;\\red255\\green255\\blue255;}\\viewkind4\\uc1\\pard\\qc\\cf1\\fs72 abc}",
                      "default-translation0" : 0.0,
                      "default-translation1" : 0.0
                    },
                    "animationTracks" : {

                    }
                  },
                  {
                    "id" : 25,
                    "_type" : "Callout",
                    "def" : {
                      "kind" : "TypeWinSimple",
                      "shape" : "",
                      "style" : "",
                      "CutoutPercentage" : -1.0,
                      "RoundedRectRadius" : -1.0,
                      "Style" : 4.0,
                      "borderColorBlue" : 0.607843137254902,
                      "borderColorGreen" : 0.52156862745098,
                      "borderColorRed" : 0.192156862745098,
                      "borderState" : 0.0,
                      "borderWidth" : 3.0,
                      "dimensionTime" : 0.0,
                      "fillColorBlue" : 0.172549019607843,
                      "fillColorGreen" : 0.615686274509804,
                      "fillColorRed" : 0.105882352941176,
                      "fillState" : 1.0,
                      "flipOnXAxis" : 0.0,
                      "flipOnYAxis" : 0.0,
                      "height" : 116.012084592145,
                      "textIgnoresOpacity" : 0.0,
                      "textRectHeight" : 0.875,
                      "textRectWidth" : 0.909365558912387,
                      "textRectX" : 0.0453172205438066,
                      "textRectY" : 0.0625,
                      "textVerticalAlign" : 0.0,
                      "width" : 160.0,
                      "VectorPath" : "M0,0h331v240H0V0z",
                      "filename" : "C:\\Program Files\\TechSmith\\Camtasia 9\\Media\\Studio\\Callouts\\rectanglewithtext.xml",
                      "horizontal-alignment" : "center",
                      "name" : "Simple Rectangle",
                      "text" : "{\\rtf1\\ansi\\ansicpg1252\\deff0\\nouicompat\\deflang1033{\\fonttbl{\\f0\\fswiss\\fprq2\\fcharset0 Arial;}}\r\n{\\colortbl ;\\red255\\green255\\blue255;}\r\n{\\*\\generator Riched20 10.0.18362}\\viewkind4\\uc1 \r\n\\pard\\qc\\cf1\\f0\\fs52 Motion-Dimension\\par\r\n}\r\n",
                      "vertical-alignment" : "center",
                      "xmlContent" : "﻿<?xml version=\"1.0\"?>\n\n<Overlay version=\"1.0.1\">\n\n<Overlay_Filename>rectanglewithtext.png</Overlay_Filename>\n<Overlay_Name>Simple Rectangle</Overlay_Name>\n<Text_Top>15</Text_Top>\n<Text_Left>15</Text_Left>\n<Text_Bottom>15</Text_Bottom>\n<Text_Right>15</Text_Right>\n<Fill_Color>1</Fill_Color>\n<Border_Color>1</Border_Color>\n<Initial_Fill_Color>0xff9b8531</Initial_Fill_Color>\n<Initial_Border_Color>0xff9b8531</Initial_Border_Color>\n<VectorProps>\n<figure>\n<svg>M0,0h331v240H0V0z</svg>\n</figure>\n<seamY>-1</seamY>\n<shapeWidth>331</shapeWidth>\n<shapeHeight>240</shapeHeight>\n</VectorProps>\n<Style>4</Style>\n<UseDefaultSpec>1</UseDefaultSpec>   \n</Overlay>",
                      "textAttributes" : {
                        "type" : "textAttributeList",
                        "keyframes" : [
                          {
                            "time" : 0,
                            "value" : null,
                            "duration" : 0
                          }
                        ]
                      }
                    },
                    "attributes" : {
                      "autoRotateText" : true
                    },
                    "parameters" : {
                      "translation0" : -160.00000000024,
                      "translation1" : 155.487915038917,
                      "scale0" : 1.99999999999699,
                      "scale1" : 0.560494796243933
                    },
                    "effects" : [

                    ],
                    "start" : 150,
                    "duration" : 113,
                    "mediaStart" : 0,
                    "mediaDuration" : 113,
                    "scalar" : 1,
                    "metadata" : {
                      "WinSubProjectDisplayName" : "",
                      "clipSpeedAttribute" : false,
                      "default-fill-color-blue" : 0.607843137254902,
                      "default-fill-color-green" : 0.52156862745098,
                      "default-fill-color-red" : 0.192156862745098,
                      "default-legacy-fill-state" : 1.0,
                      "default-legacy-flip-y" : 0.0,
                      "default-legacy-text-callout-vertical-align" : "middle",
                      "default-scale0" : 1.0,
                      "default-scale1" : 1.0,
                      "default-stroke-color-blue" : 0.607843137254902,
                      "default-stroke-color-green" : 0.52156862745098,
                      "default-stroke-color-red" : 0.192156862745098,
                      "default-text" : "{\\rtf1\\ansi\\ansicpg1252\\deff0\\deflang1033{\\fonttbl{\\f0\\fswiss\\fprq2\\fcharset0 Arial;}}{\\colortbl ;\\red255\\green255\\blue255;}\\viewkind4\\uc1\\pard\\qc\\cf1\\fs72 abc}",
                      "default-translation0" : 0.0,
                      "default-translation1" : 0.0
                    },
                    "animationTracks" : {

                    }
                  },
                  {
                    "id" : 26,
                    "_type" : "Callout",
                    "def" : {
                      "kind" : "TypeWinSimple",
                      "shape" : "",
                      "style" : "",
                      "CutoutPercentage" : -1.0,
                      "RoundedRectRadius" : -1.0,
                      "Style" : 4.0,
                      "borderColorBlue" : 0.607843137254902,
                      "borderColorGreen" : 0.52156862745098,
                      "borderColorRed" : 0.192156862745098,
                      "borderState" : 0.0,
                      "borderWidth" : 3.0,
                      "dimensionTime" : 0.0,
                      "fillColorBlue" : 0.172549019607843,
                      "fillColorGreen" : 0.615686274509804,
                      "fillColorRed" : 0.105882352941176,
                      "fillState" : 1.0,
                      "flipOnXAxis" : 0.0,
                      "flipOnYAxis" : 0.0,
                      "height" : 116.012084592145,
                      "textIgnoresOpacity" : 0.0,
                      "textRectHeight" : 0.875,
                      "textRectWidth" : 0.909365558912387,
                      "textRectX" : 0.0453172205438066,
                      "textRectY" : 0.0625,
                      "textVerticalAlign" : 0.0,
                      "width" : 160.0,
                      "VectorPath" : "M0,0h331v240H0V0z",
                      "filename" : "C:\\Program Files\\TechSmith\\Camtasia 9\\Media\\Studio\\Callouts\\rectanglewithtext.xml",
                      "horizontal-alignment" : "center",
                      "name" : "Simple Rectangle",
                      "text" : "{\\rtf1\\ansi\\ansicpg1252\\deff0\\nouicompat\\deflang1033{\\fonttbl{\\f0\\fswiss\\fprq2\\fcharset0 Arial;}}\r\n{\\colortbl ;\\red255\\green255\\blue255;}\r\n{\\*\\generator Riched20 10.0.18362}\\viewkind4\\uc1 \r\n\\pard\\qc\\cf1\\f0\\fs52 Cam-Track\\par\r\n}\r\n",
                      "vertical-alignment" : "center",
                      "xmlContent" : "﻿<?xml version=\"1.0\"?>\n\n<Overlay version=\"1.0.1\">\n\n<Overlay_Filename>rectanglewithtext.png</Overlay_Filename>\n<Overlay_Name>Simple Rectangle</Overlay_Name>\n<Text_Top>15</Text_Top>\n<Text_Left>15</Text_Left>\n<Text_Bottom>15</Text_Bottom>\n<Text_Right>15</Text_Right>\n<Fill_Color>1</Fill_Color>\n<Border_Color>1</Border_Color>\n<Initial_Fill_Color>0xff9b8531</Initial_Fill_Color>\n<Initial_Border_Color>0xff9b8531</Initial_Border_Color>\n<VectorProps>\n<figure>\n<svg>M0,0h331v240H0V0z</svg>\n</figure>\n<seamY>-1</seamY>\n<shapeWidth>331</shapeWidth>\n<shapeHeight>240</shapeHeight>\n</VectorProps>\n<Style>4</Style>\n<UseDefaultSpec>1</UseDefaultSpec>   \n</Overlay>",
                      "textAttributes" : {
                        "type" : "textAttributeList",
                        "keyframes" : [
                          {
                            "time" : 0,
                            "value" : null,
                            "duration" : 0
                          }
                        ]
                      }
                    },
                    "attributes" : {
                      "autoRotateText" : true
                    },
                    "parameters" : {
                      "translation0" : -160.000000000296,
                      "translation1" : 155.487915038917,
                      "scale0" : 1.9999999999963,
                      "scale1" : 0.560494796243933
                    },
                    "effects" : [

                    ],
                    "start" : 263,
                    "duration" : 113,
                    "mediaStart" : 0,
                    "mediaDuration" : 113,
                    "scalar" : 1,
                    "metadata" : {
                      "WinSubProjectDisplayName" : "",
                      "clipSpeedAttribute" : false,
                      "default-fill-color-blue" : 0.607843137254902,
                      "default-fill-color-green" : 0.52156862745098,
                      "default-fill-color-red" : 0.192156862745098,
                      "default-legacy-fill-state" : 1.0,
                      "default-legacy-flip-y" : 0.0,
                      "default-legacy-text-callout-vertical-align" : "middle",
                      "default-scale0" : 1.0,
                      "default-scale1" : 1.0,
                      "default-stroke-color-blue" : 0.607843137254902,
                      "default-stroke-color-green" : 0.52156862745098,
                      "default-stroke-color-red" : 0.192156862745098,
                      "default-text" : "{\\rtf1\\ansi\\ansicpg1252\\deff0\\deflang1033{\\fonttbl{\\f0\\fswiss\\fprq2\\fcharset0 Arial;}}{\\colortbl ;\\red255\\green255\\blue255;}\\viewkind4\\uc1\\pard\\qc\\cf1\\fs72 abc}",
                      "default-translation0" : 0.0,
                      "default-translation1" : 0.0
                    },
                    "animationTracks" : {

                    }
                  },
                  {
                    "id" : 27,
                    "_type" : "Callout",
                    "def" : {
                      "kind" : "TypeWinSimple",
                      "shape" : "",
                      "style" : "",
                      "CutoutPercentage" : -1.0,
                      "RoundedRectRadius" : -1.0,
                      "Style" : 4.0,
                      "borderColorBlue" : 0.607843137254902,
                      "borderColorGreen" : 0.52156862745098,
                      "borderColorRed" : 0.192156862745098,
                      "borderState" : 0.0,
                      "borderWidth" : 3.0,
                      "dimensionTime" : 0.0,
                      "fillColorBlue" : 0.172549019607843,
                      "fillColorGreen" : 0.615686274509804,
                      "fillColorRed" : 0.105882352941176,
                      "fillState" : 1.0,
                      "flipOnXAxis" : 0.0,
                      "flipOnYAxis" : 0.0,
                      "height" : 116.012084592145,
                      "textIgnoresOpacity" : 0.0,
                      "textRectHeight" : 0.875,
                      "textRectWidth" : 0.909365558912387,
                      "textRectX" : 0.0453172205438066,
                      "textRectY" : 0.0625,
                      "textVerticalAlign" : 0.0,
                      "width" : 160.0,
                      "VectorPath" : "M0,0h331v240H0V0z",
                      "filename" : "C:\\Program Files\\TechSmith\\Camtasia 9\\Media\\Studio\\Callouts\\rectanglewithtext.xml",
                      "horizontal-alignment" : "center",
                      "name" : "Simple Rectangle",
                      "text" : "{\\rtf1\\ansi\\ansicpg1252\\deff0\\nouicompat\\deflang1033{\\fonttbl{\\f0\\fswiss\\fprq2\\fcharset0 Arial;}}\r\n{\\colortbl ;\\red255\\green255\\blue255;}\r\n{\\*\\generator Riched20 10.0.18362}\\viewkind4\\uc1 \r\n\\pard\\qc\\cf1\\f0\\fs52 Base-Part [Outline]\\par\r\n}\r\n",
                      "vertical-alignment" : "center",
                      "xmlContent" : "﻿<?xml version=\"1.0\"?>\n\n<Overlay version=\"1.0.1\">\n\n<Overlay_Filename>rectanglewithtext.png</Overlay_Filename>\n<Overlay_Name>Simple Rectangle</Overlay_Name>\n<Text_Top>15</Text_Top>\n<Text_Left>15</Text_Left>\n<Text_Bottom>15</Text_Bottom>\n<Text_Right>15</Text_Right>\n<Fill_Color>1</Fill_Color>\n<Border_Color>1</Border_Color>\n<Initial_Fill_Color>0xff9b8531</Initial_Fill_Color>\n<Initial_Border_Color>0xff9b8531</Initial_Border_Color>\n<VectorProps>\n<figure>\n<svg>M0,0h331v240H0V0z</svg>\n</figure>\n<seamY>-1</seamY>\n<shapeWidth>331</shapeWidth>\n<shapeHeight>240</shapeHeight>\n</VectorProps>\n<Style>4</Style>\n<UseDefaultSpec>1</UseDefaultSpec>   \n</Overlay>",
                      "textAttributes" : {
                        "type" : "textAttributeList",
                        "keyframes" : [
                          {
                            "time" : 0,
                            "value" : null,
                            "duration" : 0
                          }
                        ]
                      }
                    },
                    "attributes" : {
                      "autoRotateText" : true
                    },
                    "parameters" : {
                      "translation0" : -160.00000000024,
                      "translation1" : 155.487915038917,
                      "scale0" : 1.99999999999699,
                      "scale1" : 0.560494796243933
                    },
                    "effects" : [

                    ],
                    "start" : 405,
                    "duration" : 113,
                    "mediaStart" : 0,
                    "mediaDuration" : 113,
                    "scalar" : 1,
                    "metadata" : {
                      "WinSubProjectDisplayName" : "",
                      "clipSpeedAttribute" : false,
                      "default-fill-color-blue" : 0.607843137254902,
                      "default-fill-color-green" : 0.52156862745098,
                      "default-fill-color-red" : 0.192156862745098,
                      "default-legacy-fill-state" : 1.0,
                      "default-legacy-flip-y" : 0.0,
                      "default-legacy-text-callout-vertical-align" : "middle",
                      "default-scale0" : 1.0,
                      "default-scale1" : 1.0,
                      "default-stroke-color-blue" : 0.607843137254902,
                      "default-stroke-color-green" : 0.52156862745098,
                      "default-stroke-color-red" : 0.192156862745098,
                      "default-text" : "{\\rtf1\\ansi\\ansicpg1252\\deff0\\deflang1033{\\fonttbl{\\f0\\fswiss\\fprq2\\fcharset0 Arial;}}{\\colortbl ;\\red255\\green255\\blue255;}\\viewkind4\\uc1\\pard\\qc\\cf1\\fs72 abc}",
                      "default-translation0" : 0.0,
                      "default-translation1" : 0.0
                    },
                    "animationTracks" : {

                    }
                  },
                  {
                    "id" : 28,
                    "_type" : "Callout",
                    "def" : {
                      "kind" : "TypeWinSimple",
                      "shape" : "",
                      "style" : "",
                      "CutoutPercentage" : -1.0,
                      "RoundedRectRadius" : -1.0,
                      "Style" : 4.0,
                      "borderColorBlue" : 0.607843137254902,
                      "borderColorGreen" : 0.52156862745098,
                      "borderColorRed" : 0.192156862745098,
                      "borderState" : 0.0,
                      "borderWidth" : 3.0,
                      "dimensionTime" : 0.0,
                      "fillColorBlue" : 0.172549019607843,
                      "fillColorGreen" : 0.615686274509804,
                      "fillColorRed" : 0.105882352941176,
                      "fillState" : 1.0,
                      "flipOnXAxis" : 0.0,
                      "flipOnYAxis" : 0.0,
                      "height" : 116.012084592145,
                      "textIgnoresOpacity" : 0.0,
                      "textRectHeight" : 0.875,
                      "textRectWidth" : 0.909365558912387,
                      "textRectX" : 0.0453172205438066,
                      "textRectY" : 0.0625,
                      "textVerticalAlign" : 0.0,
                      "width" : 160.0,
                      "VectorPath" : "M0,0h331v240H0V0z",
                      "filename" : "C:\\Program Files\\TechSmith\\Camtasia 9\\Media\\Studio\\Callouts\\rectanglewithtext.xml",
                      "horizontal-alignment" : "center",
                      "name" : "Simple Rectangle",
                      "text" : "{\\rtf1\\ansi\\ansicpg1252\\deff0\\nouicompat\\deflang1033{\\fonttbl{\\f0\\fswiss\\fprq2\\fcharset0 Arial;}}\r\n{\\colortbl ;\\red255\\green255\\blue255;}\r\n{\\*\\generator Riched20 10.0.18362}\\viewkind4\\uc1 \r\n\\pard\\qc\\cf1\\f0\\fs52 Function-Block\\par\r\n}\r\n",
                      "vertical-alignment" : "center",
                      "xmlContent" : "﻿<?xml version=\"1.0\"?>\n\n<Overlay version=\"1.0.1\">\n\n<Overlay_Filename>rectanglewithtext.png</Overlay_Filename>\n<Overlay_Name>Simple Rectangle</Overlay_Name>\n<Text_Top>15</Text_Top>\n<Text_Left>15</Text_Left>\n<Text_Bottom>15</Text_Bottom>\n<Text_Right>15</Text_Right>\n<Fill_Color>1</Fill_Color>\n<Border_Color>1</Border_Color>\n<Initial_Fill_Color>0xff9b8531</Initial_Fill_Color>\n<Initial_Border_Color>0xff9b8531</Initial_Border_Color>\n<VectorProps>\n<figure>\n<svg>M0,0h331v240H0V0z</svg>\n</figure>\n<seamY>-1</seamY>\n<shapeWidth>331</shapeWidth>\n<shapeHeight>240</shapeHeight>\n</VectorProps>\n<Style>4</Style>\n<UseDefaultSpec>1</UseDefaultSpec>   \n</Overlay>",
                      "textAttributes" : {
                        "type" : "textAttributeList",
                        "keyframes" : [
                          {
                            "time" : 0,
                            "value" : null,
                            "duration" : 0
                          }
                        ]
                      }
                    },
                    "attributes" : {
                      "autoRotateText" : true
                    },
                    "parameters" : {
                      "translation0" : -160.00000000024,
                      "translation1" : 155.487915038917,
                      "scale0" : 1.99999999999699,
                      "scale1" : 0.560494796243933
                    },
                    "effects" : [

                    ],
                    "start" : 543,
                    "duration" : 113,
                    "mediaStart" : 0,
                    "mediaDuration" : 113,
                    "scalar" : 1,
                    "metadata" : {
                      "WinSubProjectDisplayName" : "",
                      "clipSpeedAttribute" : false,
                      "default-fill-color-blue" : 0.607843137254902,
                      "default-fill-color-green" : 0.52156862745098,
                      "default-fill-color-red" : 0.192156862745098,
                      "default-legacy-fill-state" : 1.0,
                      "default-legacy-flip-y" : 0.0,
                      "default-legacy-text-callout-vertical-align" : "middle",
                      "default-scale0" : 1.0,
                      "default-scale1" : 1.0,
                      "default-stroke-color-blue" : 0.607843137254902,
                      "default-stroke-color-green" : 0.52156862745098,
                      "default-stroke-color-red" : 0.192156862745098,
                      "default-text" : "{\\rtf1\\ansi\\ansicpg1252\\deff0\\deflang1033{\\fonttbl{\\f0\\fswiss\\fprq2\\fcharset0 Arial;}}{\\colortbl ;\\red255\\green255\\blue255;}\\viewkind4\\uc1\\pard\\qc\\cf1\\fs72 abc}",
                      "default-translation0" : 0.0,
                      "default-translation1" : 0.0
                    },
                    "animationTracks" : {

                    }
                  },
                  {
                    "id" : 29,
                    "_type" : "Callout",
                    "def" : {
                      "kind" : "TypeWinSimple",
                      "shape" : "",
                      "style" : "",
                      "CutoutPercentage" : -1.0,
                      "RoundedRectRadius" : -1.0,
                      "Style" : 4.0,
                      "borderColorBlue" : 0.607843137254902,
                      "borderColorGreen" : 0.52156862745098,
                      "borderColorRed" : 0.192156862745098,
                      "borderState" : 0.0,
                      "borderWidth" : 3.0,
                      "dimensionTime" : 0.0,
                      "fillColorBlue" : 0.172549019607843,
                      "fillColorGreen" : 0.615686274509804,
                      "fillColorRed" : 0.105882352941176,
                      "fillState" : 1.0,
                      "flipOnXAxis" : 0.0,
                      "flipOnYAxis" : 0.0,
                      "height" : 116.012084592145,
                      "textIgnoresOpacity" : 0.0,
                      "textRectHeight" : 0.875,
                      "textRectWidth" : 0.909365558912387,
                      "textRectX" : 0.0453172205438066,
                      "textRectY" : 0.0625,
                      "textVerticalAlign" : 0.0,
                      "width" : 160.0,
                      "VectorPath" : "M0,0h331v240H0V0z",
                      "filename" : "C:\\Program Files\\TechSmith\\Camtasia 9\\Media\\Studio\\Callouts\\rectanglewithtext.xml",
                      "horizontal-alignment" : "center",
                      "name" : "Simple Rectangle",
                      "text" : "{\\rtf1\\ansi\\ansicpg1252\\deff0\\nouicompat\\deflang1033{\\fonttbl{\\f0\\fswiss\\fprq2\\fcharset0 Arial;}}\r\n{\\colortbl ;\\red255\\green255\\blue255;}\r\n{\\*\\generator Riched20 10.0.18362}\\viewkind4\\uc1 \r\n\\pard\\qc\\cf1\\f0\\fs52 Function-Block\\par\r\n}\r\n",
                      "vertical-alignment" : "center",
                      "xmlContent" : "﻿<?xml version=\"1.0\"?>\n\n<Overlay version=\"1.0.1\">\n\n<Overlay_Filename>rectanglewithtext.png</Overlay_Filename>\n<Overlay_Name>Simple Rectangle</Overlay_Name>\n<Text_Top>15</Text_Top>\n<Text_Left>15</Text_Left>\n<Text_Bottom>15</Text_Bottom>\n<Text_Right>15</Text_Right>\n<Fill_Color>1</Fill_Color>\n<Border_Color>1</Border_Color>\n<Initial_Fill_Color>0xff9b8531</Initial_Fill_Color>\n<Initial_Border_Color>0xff9b8531</Initial_Border_Color>\n<VectorProps>\n<figure>\n<svg>M0,0h331v240H0V0z</svg>\n</figure>\n<seamY>-1</seamY>\n<shapeWidth>331</shapeWidth>\n<shapeHeight>240</shapeHeight>\n</VectorProps>\n<Style>4</Style>\n<UseDefaultSpec>1</UseDefaultSpec>   \n</Overlay>",
                      "textAttributes" : {
                        "type" : "textAttributeList",
                        "keyframes" : [
                          {
                            "time" : 0,
                            "value" : null,
                            "duration" : 0
                          }
                        ]
                      }
                    },
                    "attributes" : {
                      "autoRotateText" : true
                    },
                    "parameters" : {
                      "translation0" : -160.000000000351,
                      "translation1" : 155.487915038917,
                      "scale0" : 1.99999999999561,
                      "scale1" : 0.560494796243933
                    },
                    "effects" : [

                    ],
                    "start" : 730,
                    "duration" : 74,
                    "mediaStart" : 0,
                    "mediaDuration" : 74,
                    "scalar" : 1,
                    "metadata" : {
                      "WinSubProjectDisplayName" : "",
                      "clipSpeedAttribute" : false,
                      "default-fill-color-blue" : 0.607843137254902,
                      "default-fill-color-green" : 0.52156862745098,
                      "default-fill-color-red" : 0.192156862745098,
                      "default-legacy-fill-state" : 1.0,
                      "default-legacy-flip-y" : 0.0,
                      "default-legacy-text-callout-vertical-align" : "middle",
                      "default-scale0" : 1.0,
                      "default-scale1" : 1.0,
                      "default-stroke-color-blue" : 0.607843137254902,
                      "default-stroke-color-green" : 0.52156862745098,
                      "default-stroke-color-red" : 0.192156862745098,
                      "default-text" : "{\\rtf1\\ansi\\ansicpg1252\\deff0\\deflang1033{\\fonttbl{\\f0\\fswiss\\fprq2\\fcharset0 Arial;}}{\\colortbl ;\\red255\\green255\\blue255;}\\viewkind4\\uc1\\pard\\qc\\cf1\\fs72 abc}",
                      "default-translation0" : 0.0,
                      "default-translation1" : 0.0
                    },
                    "animationTracks" : {

                    }
                  },
                  {
                    "id" : 30,
                    "_type" : "Callout",
                    "def" : {
                      "kind" : "TypeWinSimple",
                      "shape" : "",
                      "style" : "",
                      "CutoutPercentage" : -1.0,
                      "RoundedRectRadius" : -1.0,
                      "Style" : 4.0,
                      "borderColorBlue" : 0.607843137254902,
                      "borderColorGreen" : 0.52156862745098,
                      "borderColorRed" : 0.192156862745098,
                      "borderState" : 0.0,
                      "borderWidth" : 3.0,
                      "dimensionTime" : 0.0,
                      "fillColorBlue" : 0.172549019607843,
                      "fillColorGreen" : 0.615686274509804,
                      "fillColorRed" : 0.105882352941176,
                      "fillState" : 1.0,
                      "flipOnXAxis" : 0.0,
                      "flipOnYAxis" : 0.0,
                      "height" : 116.012084592145,
                      "textIgnoresOpacity" : 0.0,
                      "textRectHeight" : 0.875,
                      "textRectWidth" : 0.909365558912387,
                      "textRectX" : 0.0453172205438066,
                      "textRectY" : 0.0625,
                      "textVerticalAlign" : 0.0,
                      "width" : 160.0,
                      "VectorPath" : "M0,0h331v240H0V0z",
                      "filename" : "C:\\Program Files\\TechSmith\\Camtasia 9\\Media\\Studio\\Callouts\\rectanglewithtext.xml",
                      "horizontal-alignment" : "center",
                      "name" : "Simple Rectangle",
                      "text" : "{\\rtf1\\ansi\\ansicpg1252\\deff0\\nouicompat\\deflang1033{\\fonttbl{\\f0\\fswiss\\fprq2\\fcharset0 Arial;}}\r\n{\\colortbl ;\\red255\\green255\\blue255;}\r\n{\\*\\generator Riched20 10.0.18362}\\viewkind4\\uc1 \r\n\\pard\\qc\\cf1\\f0\\fs52 Sliding-Joint 1\\par\r\n}\r\n",
                      "vertical-alignment" : "center",
                      "xmlContent" : "﻿<?xml version=\"1.0\"?>\n\n<Overlay version=\"1.0.1\">\n\n<Overlay_Filename>rectanglewithtext.png</Overlay_Filename>\n<Overlay_Name>Simple Rectangle</Overlay_Name>\n<Text_Top>15</Text_Top>\n<Text_Left>15</Text_Left>\n<Text_Bottom>15</Text_Bottom>\n<Text_Right>15</Text_Right>\n<Fill_Color>1</Fill_Color>\n<Border_Color>1</Border_Color>\n<Initial_Fill_Color>0xff9b8531</Initial_Fill_Color>\n<Initial_Border_Color>0xff9b8531</Initial_Border_Color>\n<VectorProps>\n<figure>\n<svg>M0,0h331v240H0V0z</svg>\n</figure>\n<seamY>-1</seamY>\n<shapeWidth>331</shapeWidth>\n<shapeHeight>240</shapeHeight>\n</VectorProps>\n<Style>4</Style>\n<UseDefaultSpec>1</UseDefaultSpec>   \n</Overlay>",
                      "textAttributes" : {
                        "type" : "textAttributeList",
                        "keyframes" : [
                          {
                            "time" : 0,
                            "value" : null,
                            "duration" : 0
                          }
                        ]
                      }
                    },
                    "attributes" : {
                      "autoRotateText" : true
                    },
                    "parameters" : {
                      "translation0" : -160.000000000351,
                      "translation1" : 155.487915038917,
                      "scale0" : 1.99999999999561,
                      "scale1" : 0.560494796243933
                    },
                    "effects" : [

                    ],
                    "start" : 965,
                    "duration" : 74,
                    "mediaStart" : 0,
                    "mediaDuration" : 74,
                    "scalar" : 1,
                    "metadata" : {
                      "WinSubProjectDisplayName" : "",
                      "clipSpeedAttribute" : false,
                      "default-fill-color-blue" : 0.607843137254902,
                      "default-fill-color-green" : 0.52156862745098,
                      "default-fill-color-red" : 0.192156862745098,
                      "default-legacy-fill-state" : 1.0,
                      "default-legacy-flip-y" : 0.0,
                      "default-legacy-text-callout-vertical-align" : "middle",
                      "default-scale0" : 1.0,
                      "default-scale1" : 1.0,
                      "default-stroke-color-blue" : 0.607843137254902,
                      "default-stroke-color-green" : 0.52156862745098,
                      "default-stroke-color-red" : 0.192156862745098,
                      "default-text" : "{\\rtf1\\ansi\\ansicpg1252\\deff0\\deflang1033{\\fonttbl{\\f0\\fswiss\\fprq2\\fcharset0 Arial;}}{\\colortbl ;\\red255\\green255\\blue255;}\\viewkind4\\uc1\\pard\\qc\\cf1\\fs72 abc}",
                      "default-translation0" : 0.0,
                      "default-translation1" : 0.0
                    },
                    "animationTracks" : {

                    }
                  },
                  {
                    "id" : 31,
                    "_type" : "Callout",
                    "def" : {
                      "kind" : "TypeWinSimple",
                      "shape" : "",
                      "style" : "",
                      "CutoutPercentage" : -1.0,
                      "RoundedRectRadius" : -1.0,
                      "Style" : 4.0,
                      "borderColorBlue" : 0.607843137254902,
                      "borderColorGreen" : 0.52156862745098,
                      "borderColorRed" : 0.192156862745098,
                      "borderState" : 0.0,
                      "borderWidth" : 3.0,
                      "dimensionTime" : 0.0,
                      "fillColorBlue" : 0.172549019607843,
                      "fillColorGreen" : 0.615686274509804,
                      "fillColorRed" : 0.105882352941176,
                      "fillState" : 1.0,
                      "flipOnXAxis" : 0.0,
                      "flipOnYAxis" : 0.0,
                      "height" : 116.012084592145,
                      "textIgnoresOpacity" : 0.0,
                      "textRectHeight" : 0.875,
                      "textRectWidth" : 0.909365558912387,
                      "textRectX" : 0.0453172205438066,
                      "textRectY" : 0.0625,
                      "textVerticalAlign" : 0.0,
                      "width" : 160.0,
                      "VectorPath" : "M0,0h331v240H0V0z",
                      "filename" : "C:\\Program Files\\TechSmith\\Camtasia 9\\Media\\Studio\\Callouts\\rectanglewithtext.xml",
                      "horizontal-alignment" : "center",
                      "name" : "Simple Rectangle",
                      "text" : "{\\rtf1\\ansi\\ansicpg1252\\deff0\\nouicompat\\deflang1033{\\fonttbl{\\f0\\fswiss\\fprq2\\fcharset0 Arial;}}\r\n{\\colortbl ;\\red255\\green255\\blue255;}\r\n{\\*\\generator Riched20 10.0.18362}\\viewkind4\\uc1 \r\n\\pard\\qc\\cf1\\f0\\fs52 Sliding-Joint 2\\par\r\n}\r\n",
                      "vertical-alignment" : "center",
                      "xmlContent" : "﻿<?xml version=\"1.0\"?>\n\n<Overlay version=\"1.0.1\">\n\n<Overlay_Filename>rectanglewithtext.png</Overlay_Filename>\n<Overlay_Name>Simple Rectangle</Overlay_Name>\n<Text_Top>15</Text_Top>\n<Text_Left>15</Text_Left>\n<Text_Bottom>15</Text_Bottom>\n<Text_Right>15</Text_Right>\n<Fill_Color>1</Fill_Color>\n<Border_Color>1</Border_Color>\n<Initial_Fill_Color>0xff9b8531</Initial_Fill_Color>\n<Initial_Border_Color>0xff9b8531</Initial_Border_Color>\n<VectorProps>\n<figure>\n<svg>M0,0h331v240H0V0z</svg>\n</figure>\n<seamY>-1</seamY>\n<shapeWidth>331</shapeWidth>\n<shapeHeight>240</shapeHeight>\n</VectorProps>\n<Style>4</Style>\n<UseDefaultSpec>1</UseDefaultSpec>   \n</Overlay>",
                      "textAttributes" : {
                        "type" : "textAttributeList",
                        "keyframes" : [
                          {
                            "time" : 0,
                            "value" : null,
                            "duration" : 0
                          }
                        ]
                      }
                    },
                    "attributes" : {
                      "autoRotateText" : true
                    },
                    "parameters" : {
                      "translation0" : -160.000000000351,
                      "translation1" : 155.487915038917,
                      "scale0" : 1.99999999999561,
                      "scale1" : 0.560494796243933
                    },
                    "effects" : [

                    ],
                    "start" : 1062,
                    "duration" : 74,
                    "mediaStart" : 0,
                    "mediaDuration" : 74,
                    "scalar" : 1,
                    "metadata" : {
                      "WinSubProjectDisplayName" : "",
                      "clipSpeedAttribute" : false,
                      "default-fill-color-blue" : 0.607843137254902,
                      "default-fill-color-green" : 0.52156862745098,
                      "default-fill-color-red" : 0.192156862745098,
                      "default-legacy-fill-state" : 1.0,
                      "default-legacy-flip-y" : 0.0,
                      "default-legacy-text-callout-vertical-align" : "middle",
                      "default-scale0" : 1.0,
                      "default-scale1" : 1.0,
                      "default-stroke-color-blue" : 0.607843137254902,
                      "default-stroke-color-green" : 0.52156862745098,
                      "default-stroke-color-red" : 0.192156862745098,
                      "default-text" : "{\\rtf1\\ansi\\ansicpg1252\\deff0\\deflang1033{\\fonttbl{\\f0\\fswiss\\fprq2\\fcharset0 Arial;}}{\\colortbl ;\\red255\\green255\\blue255;}\\viewkind4\\uc1\\pard\\qc\\cf1\\fs72 abc}",
                      "default-translation0" : 0.0,
                      "default-translation1" : 0.0
                    },
                    "animationTracks" : {

                    }
                  },
                  {
                    "id" : 32,
                    "_type" : "Callout",
                    "def" : {
                      "kind" : "TypeWinSimple",
                      "shape" : "",
                      "style" : "",
                      "CutoutPercentage" : -1.0,
                      "RoundedRectRadius" : -1.0,
                      "Style" : 4.0,
                      "borderColorBlue" : 0.607843137254902,
                      "borderColorGreen" : 0.52156862745098,
                      "borderColorRed" : 0.192156862745098,
                      "borderState" : 0.0,
                      "borderWidth" : 3.0,
                      "dimensionTime" : 0.0,
                      "fillColorBlue" : 0.172549019607843,
                      "fillColorGreen" : 0.615686274509804,
                      "fillColorRed" : 0.105882352941176,
                      "fillState" : 1.0,
                      "flipOnXAxis" : 0.0,
                      "flipOnYAxis" : 0.0,
                      "height" : 116.012084592145,
                      "textIgnoresOpacity" : 0.0,
                      "textRectHeight" : 0.875,
                      "textRectWidth" : 0.909365558912387,
                      "textRectX" : 0.0453172205438066,
                      "textRectY" : 0.0625,
                      "textVerticalAlign" : 0.0,
                      "width" : 160.0,
                      "VectorPath" : "M0,0h331v240H0V0z",
                      "filename" : "C:\\Program Files\\TechSmith\\Camtasia 9\\Media\\Studio\\Callouts\\rectanglewithtext.xml",
                      "horizontal-alignment" : "center",
                      "name" : "Simple Rectangle",
                      "text" : "{\\rtf1\\ansi\\ansicpg1252\\deff0\\nouicompat\\deflang1033{\\fonttbl{\\f0\\fswiss\\fprq2\\fcharset0 Arial;}}\r\n{\\colortbl ;\\red255\\green255\\blue255;}\r\n{\\*\\generator Riched20 10.0.18362}\\viewkind4\\uc1 \r\n\\pard\\qc\\cf1\\f0\\fs52 Profile/Extrusion\\par\r\n}\r\n",
                      "vertical-alignment" : "center",
                      "xmlContent" : "﻿<?xml version=\"1.0\"?>\n\n<Overlay version=\"1.0.1\">\n\n<Overlay_Filename>rectanglewithtext.png</Overlay_Filename>\n<Overlay_Name>Simple Rectangle</Overlay_Name>\n<Text_Top>15</Text_Top>\n<Text_Left>15</Text_Left>\n<Text_Bottom>15</Text_Bottom>\n<Text_Right>15</Text_Right>\n<Fill_Color>1</Fill_Color>\n<Border_Color>1</Border_Color>\n<Initial_Fill_Color>0xff9b8531</Initial_Fill_Color>\n<Initial_Border_Color>0xff9b8531</Initial_Border_Color>\n<VectorProps>\n<figure>\n<svg>M0,0h331v240H0V0z</svg>\n</figure>\n<seamY>-1</seamY>\n<shapeWidth>331</shapeWidth>\n<shapeHeight>240</shapeHeight>\n</VectorProps>\n<Style>4</Style>\n<UseDefaultSpec>1</UseDefaultSpec>   \n</Overlay>",
                      "textAttributes" : {
                        "type" : "textAttributeList",
                        "keyframes" : [
                          {
                            "time" : 0,
                            "value" : null,
                            "duration" : 0
                          }
                        ]
                      }
                    },
                    "attributes" : {
                      "autoRotateText" : true
                    },
                    "parameters" : {
                      "translation0" : -160.000000000351,
                      "translation1" : 155.487915038917,
                      "scale0" : 1.99999999999561,
                      "scale1" : 0.560494796243933
                    },
                    "effects" : [

                    ],
                    "start" : 1136,
                    "duration" : 74,
                    "mediaStart" : 0,
                    "mediaDuration" : 74,
                    "scalar" : 1,
                    "metadata" : {
                      "WinSubProjectDisplayName" : "",
                      "clipSpeedAttribute" : false,
                      "default-fill-color-blue" : 0.607843137254902,
                      "default-fill-color-green" : 0.52156862745098,
                      "default-fill-color-red" : 0.192156862745098,
                      "default-legacy-fill-state" : 1.0,
                      "default-legacy-flip-y" : 0.0,
                      "default-legacy-text-callout-vertical-align" : "middle",
                      "default-scale0" : 1.0,
                      "default-scale1" : 1.0,
                      "default-stroke-color-blue" : 0.607843137254902,
                      "default-stroke-color-green" : 0.52156862745098,
                      "default-stroke-color-red" : 0.192156862745098,
                      "default-text" : "{\\rtf1\\ansi\\ansicpg1252\\deff0\\deflang1033{\\fonttbl{\\f0\\fswiss\\fprq2\\fcharset0 Arial;}}{\\colortbl ;\\red255\\green255\\blue255;}\\viewkind4\\uc1\\pard\\qc\\cf1\\fs72 abc}",
                      "default-translation0" : 0.0,
                      "default-translation1" : 0.0
                    },
                    "animationTracks" : {

                    }
                  },
                  {
                    "id" : 33,
                    "_type" : "Callout",
                    "def" : {
                      "kind" : "TypeWinSimple",
                      "shape" : "",
                      "style" : "",
                      "CutoutPercentage" : -1.0,
                      "RoundedRectRadius" : -1.0,
                      "Style" : 4.0,
                      "borderColorBlue" : 0.607843137254902,
                      "borderColorGreen" : 0.52156862745098,
                      "borderColorRed" : 0.192156862745098,
                      "borderState" : 0.0,
                      "borderWidth" : 3.0,
                      "dimensionTime" : 0.0,
                      "fillColorBlue" : 0.172549019607843,
                      "fillColorGreen" : 0.615686274509804,
                      "fillColorRed" : 0.105882352941176,
                      "fillState" : 1.0,
                      "flipOnXAxis" : 0.0,
                      "flipOnYAxis" : 0.0,
                      "height" : 116.012084592145,
                      "textIgnoresOpacity" : 0.0,
                      "textRectHeight" : 0.875,
                      "textRectWidth" : 0.909365558912387,
                      "textRectX" : 0.0453172205438066,
                      "textRectY" : 0.0625,
                      "textVerticalAlign" : 0.0,
                      "width" : 160.0,
                      "VectorPath" : "M0,0h331v240H0V0z",
                      "filename" : "C:\\Program Files\\TechSmith\\Camtasia 9\\Media\\Studio\\Callouts\\rectanglewithtext.xml",
                      "horizontal-alignment" : "center",
                      "name" : "Simple Rectangle",
                      "text" : "{\\rtf1\\ansi\\ansicpg1252\\deff0\\nouicompat\\deflang1033{\\fonttbl{\\f0\\fswiss\\fprq2\\fcharset0 Arial;}}\r\n{\\colortbl ;\\red255\\green255\\blue255;}\r\n{\\*\\generator Riched20 10.0.18362}\\viewkind4\\uc1 \r\n\\pard\\qc\\cf1\\f0\\fs52 Pin-Joint\\par\r\n}\r\n",
                      "vertical-alignment" : "center",
                      "xmlContent" : "﻿<?xml version=\"1.0\"?>\n\n<Overlay version=\"1.0.1\">\n\n<Overlay_Filename>rectanglewithtext.png</Overlay_Filename>\n<Overlay_Name>Simple Rectangle</Overlay_Name>\n<Text_Top>15</Text_Top>\n<Text_Left>15</Text_Left>\n<Text_Bottom>15</Text_Bottom>\n<Text_Right>15</Text_Right>\n<Fill_Color>1</Fill_Color>\n<Border_Color>1</Border_Color>\n<Initial_Fill_Color>0xff9b8531</Initial_Fill_Color>\n<Initial_Border_Color>0xff9b8531</Initial_Border_Color>\n<VectorProps>\n<figure>\n<svg>M0,0h331v240H0V0z</svg>\n</figure>\n<seamY>-1</seamY>\n<shapeWidth>331</shapeWidth>\n<shapeHeight>240</shapeHeight>\n</VectorProps>\n<Style>4</Style>\n<UseDefaultSpec>1</UseDefaultSpec>   \n</Overlay>",
                      "textAttributes" : {
                        "type" : "textAttributeList",
                        "keyframes" : [
                          {
                            "time" : 0,
                            "value" : null,
                            "duration" : 0
                          }
                        ]
                      }
                    },
                    "attributes" : {
                      "autoRotateText" : true
                    },
                    "parameters" : {
                      "translation0" : -160.000000000351,
                      "translation1" : 155.487915038917,
                      "scale0" : 1.99999999999561,
                      "scale1" : 0.560494796243933
                    },
                    "effects" : [

                    ],
                    "start" : 1233,
                    "duration" : 74,
                    "mediaStart" : 0,
                    "mediaDuration" : 74,
                    "scalar" : 1,
                    "metadata" : {
                      "WinSubProjectDisplayName" : "",
                      "clipSpeedAttribute" : false,
                      "default-fill-color-blue" : 0.607843137254902,
                      "default-fill-color-green" : 0.52156862745098,
                      "default-fill-color-red" : 0.192156862745098,
                      "default-legacy-fill-state" : 1.0,
                      "default-legacy-flip-y" : 0.0,
                      "default-legacy-text-callout-vertical-align" : "middle",
                      "default-scale0" : 1.0,
                      "default-scale1" : 1.0,
                      "default-stroke-color-blue" : 0.607843137254902,
                      "default-stroke-color-green" : 0.52156862745098,
                      "default-stroke-color-red" : 0.192156862745098,
                      "default-text" : "{\\rtf1\\ansi\\ansicpg1252\\deff0\\deflang1033{\\fonttbl{\\f0\\fswiss\\fprq2\\fcharset0 Arial;}}{\\colortbl ;\\red255\\green255\\blue255;}\\viewkind4\\uc1\\pard\\qc\\cf1\\fs72 abc}",
                      "default-translation0" : 0.0,
                      "default-translation1" : 0.0
                    },
                    "animationTracks" : {

                    }
                  },
                  {
                    "id" : 34,
                    "_type" : "Callout",
                    "def" : {
                      "kind" : "remix",
                      "shape" : "shape-rectangle",
                      "style" : "basic",
                      "fill-color-blue" : 0.00784313725490196,
                      "fill-color-green" : 0.00784313725490196,
                      "fill-color-opacity" : 0.0,
                      "fill-color-red" : 1.0,
                      "height" : 206.416664123564,
                      "stroke-color-blue" : 0.0,
                      "stroke-color-green" : 0.0,
                      "stroke-color-opacity" : 1.0,
                      "stroke-color-red" : 1.0,
                      "stroke-width" : 5.16666666666667,
                      "width" : 167.00000000013,
                      "fill-style" : "solid",
                      "horizontal-alignment" : "center",
                      "stroke-style" : "solid",
                      "vertical-alignment" : "center",
                      "textAttributes" : {
                        "type" : "textAttributeList",
                        "keyframes" : [
                          {
                            "time" : 0,
                            "value" : null,
                            "duration" : 0
                          }
                        ]
                      }
                    },
                    "attributes" : {
                      "autoRotateText" : true
                    },
                    "parameters" : {
                      "translation0" : -233.916664123438,
                      "translation1" : -94.2083320617908
                    },
                    "effects" : [
                        {
                          "effectName" : "DropShadow",
                          "category" : "categoryVisualEffects",
                          "parameters" : {
                            "angle" : 5.49778714378214,
                            "blur" : 10.0,
                            "color-alpha" : 1.0,
                            "color-blue" : 0.1216,
                            "color-green" : 0.1216,
                            "color-red" : 0.1216,
                            "enabled" : 1,
                            "offset" : 10.0,
                            "opacity" : 0.4
                          }
                        }
                    ],
                    "start" : 3635,
                    "duration" : 463,
                    "mediaStart" : 0,
                    "mediaDuration" : 463,
                    "scalar" : 1,
                    "metadata" : {
                      "WinSubProjectDisplayName" : "",
                      "clipSpeedAttribute" : false,
                      "default-fill-color-blue" : 0.0,
                      "default-fill-color-green" : 0.0,
                      "default-fill-color-red" : 0.0,
                      "default-stroke-color-blue" : 0.0,
                      "default-stroke-color-green" : 0.0,
                      "default-stroke-color-red" : 0.0,
                      "default-stroke-width" : 6.0,
                      "default-translation0" : 0.0,
                      "default-translation1" : 0.0
                    },
                    "animationTracks" : {

                    }
                  }
                ]
              },
              {
                "trackIndex" : 4,
                "medias" : [
                ]
              }
            ]
          }
        }
      ]
    },
    "trackAttributes" : [
      {
        "ident" : "",
        "audioMuted" : false,
        "videoHidden" : false,
        "metadata" : {
          "IsLocked" : "False",
          "WinTrackHeight" : "56"
        }
      },
      {
        "ident" : "",
        "audioMuted" : false,
        "videoHidden" : false,
        "metadata" : {
          "IsLocked" : "False",
          "WinTrackHeight" : "56"
        }
      },
      {
        "ident" : "",
        "audioMuted" : false,
        "videoHidden" : false,
        "metadata" : {
          "IsLocked" : "False",
          "WinTrackHeight" : "56"
        }
      },
      {
        "ident" : "",
        "audioMuted" : false,
        "videoHidden" : false,
        "metadata" : {
          "IsLocked" : "False",
          "WinTrackHeight" : "56"
        }
      },
      {
        "ident" : "",
        "audioMuted" : false,
        "videoHidden" : false,
        "metadata" : {
          "IsLocked" : "False",
          "WinTrackHeight" : "56"
        }
      }
    ],
    "captionAttributes" : {
      "enabled" : true,
      "fontName" : "Arial",
      "fontSize" : 23,
      "backgroundColor" : [ 0, 0, 0, 191],
      "foregroundColor" : [ 255, 255, 255, 255],
      "lang" : "en",
      "alignment" : 0,
      "defaultFontSize" : true,
      "opacity" : 0.5,
      "backgroundEnabled" : true,
      "backgroundOnlyAroundText" : true
    },
    "backgroundColor" : [ 0, 0, 0, 255]
  },
  "metadata" : {
    "AutoSaveFile" : "C:\\Users\\Adam\\AppData\\Local\\TechSmith\\Camtasia Studio\\9.0\\Auto-Saves\\Hover-Sketch-Editorc5087f9.autosave.tscproj",
    "CanvasZoom" : 100,
    "Date" : "2020-01-25 01:26:42 PM",
    "Fit" : 0,
    "IsAutoSave" : "0",
    "Language" : "ENU",
    "ProfileName" : "",
    "ProjectDimensionsChanged" : "1",
    "Title" : "Hover-Sketch-Editor",
    "audioNarrationNotes" : "",
    "calloutStyle" : "Basic",
    "canvasDetached" : "False",
    "canvasPositionHeight" : "0",
    "canvasPositionLeft" : "0",
    "canvasPositionTop" : "0",
    "canvasPositionWidth" : "0"
  }
}
